<svg xmlns="http://www.w3.org/2000/svg" width="512" height="512" viewBox="0 0 512 512">
<g>
<path d="M 111.50 453.61 C106.42,451.39 101.82,446.82 99.37,441.54 L 97.02 436.50 L 97.01 384.25 L 97.00 332.00 L 81.66 332.00 L 68.19 345.00 L 54.30 345.00 L 52.49 349.02 C50.40,353.66 43.34,360.54 38.69,362.48 C25.57,367.95 10.41,362.55 3.50,349.96 C0.91,345.25 0.50,343.48 0.52,337.00 C0.56,325.51 5.63,317.29 15.73,312.35 C23.10,308.74 32.22,308.57 39.20,311.92 C44.83,314.62 51.26,321.30 53.08,326.35 C54.30,329.72 54.71,330.00 58.37,330.00 C61.90,330.00 63.09,329.28 69.07,323.50 L 75.81 317.00 L 97.00 317.00 L 97.00 264.00 L 54.38 264.00 L 52.66 267.92 C48.83,276.59 37.53,284.00 28.14,284.00 C16.23,284.00 4.67,275.54 1.44,264.46 C-2.67,250.32 4.65,235.11 17.83,230.40 C24.23,228.11 33.87,228.63 39.80,231.59 C45.54,234.45 51.35,240.56 53.20,245.68 L 54.40 249.00 L 97.00 249.00 L 97.00 195.00 L 75.04 195.00 L 68.15 188.50 C62.71,183.37 60.60,182.00 58.15,182.00 C55.44,182.00 54.72,182.62 52.61,186.75 C45.43,200.78 29.46,206.37 15.73,199.65 C5.61,194.71 0.55,186.48 0.55,175.00 C0.55,163.28 5.47,155.44 16.38,149.76 C21.51,147.10 32.62,146.84 38.19,149.25 C43.34,151.48 50.33,158.19 52.49,162.98 C54.28,166.95 54.37,167.00 59.68,167.00 C66.80,167.00 70.49,168.73 76.46,174.89 L 81.42 180.00 L 97.00 180.00 L 97.01 127.75 L 97.02 75.50 L 99.37 70.46 C101.88,65.07 106.50,60.53 111.72,58.35 C114.23,57.30 123.37,57.00 153.31,57.00 C189.22,57.00 191.80,57.12 193.35,58.83 C194.26,59.83 195.00,61.41 195.00,62.33 C195.00,63.78 196.36,64.00 205.50,64.00 C215.04,64.00 216.00,63.83 216.00,62.15 C216.00,61.14 216.82,59.57 217.83,58.65 C219.47,57.17 224.02,57.00 262.58,57.02 C303.51,57.04 305.71,57.14 310.00,59.07 C313.41,60.61 326.11,72.72 362.65,109.30 C389.13,135.81 411.59,159.07 412.57,161.00 C413.61,163.07 414.53,167.66 414.80,172.25 L 415.26 180.00 L 430.58 180.00 L 435.54 174.89 C441.51,168.73 445.20,167.00 452.32,167.00 C457.63,167.00 457.72,166.95 459.51,162.98 C461.60,158.34 468.66,151.46 473.31,149.52 C486.43,144.05 501.59,149.45 508.50,162.04 C511.09,166.75 511.50,168.52 511.48,175.00 C511.44,186.49 506.37,194.71 496.27,199.65 C489.58,202.93 479.93,203.34 473.73,200.61 C468.30,198.23 462.22,192.37 459.41,186.81 C457.28,182.62 456.57,182.00 453.85,182.00 C451.40,182.00 449.29,183.37 443.85,188.50 L 436.96 195.00 L 415.00 195.00 L 415.00 249.00 L 457.60 249.00 L 458.80 245.68 C460.65,240.56 466.46,234.45 472.20,231.59 C478.13,228.63 487.77,228.11 494.17,230.40 C503.24,233.64 510.67,243.36 511.70,253.35 C513.37,269.51 500.21,284.00 483.86,284.00 C474.47,284.00 463.17,276.59 459.34,267.92 L 457.62 264.00 L 415.00 264.00 L 415.00 317.00 L 436.19 317.00 L 442.93 323.50 C448.91,329.28 450.10,330.00 453.63,330.00 C457.29,330.00 457.70,329.72 458.92,326.35 C460.74,321.30 467.17,314.62 472.80,311.92 C479.78,308.57 488.90,308.74 496.27,312.35 C506.37,317.29 511.44,325.51 511.48,337.00 C511.50,343.48 511.09,345.25 508.50,349.96 C501.59,362.55 486.43,367.95 473.31,362.48 C468.66,360.54 461.60,353.66 459.51,349.02 L 457.70 345.00 L 443.81 345.00 L 437.07 338.50 L 430.34 332.00 L 415.00 332.00 L 414.98 436.50 L 412.63 441.54 C410.12,446.93 405.50,451.47 400.28,453.65 C397.88,454.66 390.86,455.00 372.53,455.00 C349.33,455.00 347.89,454.89 346.00,453.00 C344.90,451.90 344.00,450.33 344.00,449.50 C344.00,448.27 342.27,448.01 334.25,448.04 L 324.50 448.08 L 322.48 451.29 L 320.46 454.50 L 217.48 454.71 C134.28,454.89 113.92,454.67 111.50,453.61 ZM 324.00 446.67 C324.00,447.69 326.35,448.00 333.93,448.00 C343.03,448.00 343.92,447.83 344.51,445.97 C345.96,441.40 348.28,440.98 371.80,440.96 L 393.92 440.94 L 396.96 438.38 L 400.00 435.82 L 400.00 173.08 L 358.75 172.79 C318.50,172.51 317.40,172.45 313.41,170.31 C308.96,167.93 304.07,162.86 301.27,157.74 C299.67,154.82 299.47,150.43 299.17,113.25 L 298.84 72.00 L 222.15 72.00 L 219.08 69.41 C217.38,67.99 216.00,66.19 216.00,65.41 C216.00,64.29 213.94,64.00 206.00,64.00 C200.50,64.00 196.00,64.42 196.00,64.92 C196.00,65.43 194.62,67.23 192.92,68.92 L 189.85 72.00 L 153.67 72.03 C118.53,72.07 117.43,72.13 115.00,74.15 L 112.50 76.23 L 112.21 253.36 C112.06,350.79 112.18,431.94 112.50,433.69 C112.89,435.88 114.11,437.52 116.40,438.94 C119.71,440.98 120.50,441.00 219.55,441.00 L 319.37 441.00 L 321.69 443.17 C322.96,444.37 324.00,445.95 324.00,446.67 ZM 204.00 242.50 C204.00,245.36 202.25,244.70 185.46,235.50 C182.14,233.69 177.06,230.80 174.17,229.10 C171.28,227.39 168.74,226.00 168.54,226.00 C168.33,226.00 164.74,223.98 160.55,221.50 C156.37,219.02 152.59,217.00 152.16,217.00 C151.73,217.00 150.08,215.65 148.50,214.00 C146.92,212.35 146.03,211.00 146.51,211.00 C147.00,211.00 146.84,210.44 146.15,209.75 C145.46,209.06 144.41,208.50 143.81,208.50 C143.21,208.50 141.77,207.23 140.61,205.68 C138.59,202.98 138.49,201.58 138.21,172.32 C137.88,137.94 138.17,136.10 144.84,129.74 C146.85,127.83 157.95,120.95 169.50,114.47 C199.06,97.87 199.27,97.77 202.56,99.02 C204.49,99.76 206.30,99.73 208.73,98.92 C211.88,97.88 212.79,98.11 219.34,101.51 C223.28,103.56 227.00,105.64 227.61,106.12 C228.22,106.61 231.82,108.64 235.61,110.63 C239.40,112.63 243.00,114.65 243.61,115.13 C244.22,115.62 247.82,117.65 251.61,119.65 C268.28,128.44 273.94,135.68 273.98,148.27 C274.00,154.52 273.81,155.13 271.52,156.17 C270.15,156.79 268.77,158.15 268.44,159.19 C267.67,161.63 264.37,160.79 261.25,157.36 C259.42,155.35 259.00,153.72 259.00,148.64 C259.00,145.16 258.45,141.67 257.75,140.78 C257.06,139.89 245.93,133.20 233.00,125.90 C215.27,115.88 208.64,112.63 206.00,112.62 C203.35,112.62 196.80,115.85 179.00,125.94 C166.07,133.26 154.94,139.70 154.25,140.25 C153.30,141.00 153.00,148.20 153.00,170.01 C153.00,195.99 153.17,198.97 154.75,200.74 C157.35,203.66 203.32,229.00 206.01,229.00 C209.77,229.00 257.07,201.93 258.12,199.18 C258.60,197.91 259.00,194.48 259.00,191.57 C259.00,184.71 261.63,181.00 266.50,181.00 C271.63,181.00 274.02,184.67 273.92,192.38 C273.81,201.38 272.15,205.91 268.20,208.03 C266.38,209.01 264.94,210.09 264.99,210.44 C265.12,211.30 260.98,216.50 260.16,216.50 C259.80,216.50 258.15,217.46 256.50,218.62 C253.60,220.67 245.02,225.36 244.00,225.46 C243.73,225.48 242.15,226.46 240.50,227.62 C237.60,229.67 229.02,234.36 228.00,234.46 C227.73,234.48 226.08,235.52 224.34,236.76 C220.22,239.69 210.98,243.98 208.75,243.99 C207.79,244.00 207.00,243.32 207.00,242.50 C207.00,241.68 206.32,241.00 205.50,241.00 C204.68,241.00 204.00,241.68 204.00,242.50 ZM 225.00 204.21 C211.98,211.55 206.74,213.43 202.50,212.29 C201.40,212.00 194.88,208.59 188.00,204.72 C176.16,198.05 170.68,195.10 168.16,190.52 C165.90,186.42 166.00,181.02 166.00,170.51 C166.00,154.21 166.78,150.23 170.67,146.77 C171.74,145.81 179.11,141.43 187.03,137.02 C196.58,131.70 201.28,129.04 205.98,129.04 C210.69,129.03 215.41,131.69 225.03,137.01 C240.58,145.62 243.33,147.93 244.95,153.75 C246.32,158.69 246.29,182.43 244.90,187.42 C243.35,193.01 240.25,195.62 225.00,204.21 ZM 371.47 302.90 L 367.93 306.00 L 256.72 305.92 C195.55,305.88 144.82,305.60 144.00,305.29 C138.38,303.24 136.27,296.73 140.00,293.00 C141.98,291.02 143.33,291.00 256.33,291.00 L 370.65 291.00 L 372.83 293.31 C375.92,296.60 375.53,299.33 371.47,302.90 ZM 372.08 333.08 L 369.15 336.00 L 256.83 335.97 C149.08,335.94 142.70,335.97 139.88,332.81 C139.67,332.58 139.49,332.34 139.28,332.07 C137.35,329.58 137.71,325.23 139.91,324.53 C140.96,324.20 142.07,323.27 142.38,322.46 C142.86,321.19 157.72,321.00 255.92,321.00 C349.87,321.00 369.04,321.23 369.70,322.35 C370.14,323.10 371.51,324.24 372.75,324.89 C375.83,326.50 375.57,329.58 372.08,333.08 ZM 319.30 156.99 C321.90,158.03 387.34,158.32 388.37,157.29 C389.08,156.58 316.17,83.00 314.76,83.00 C314.34,83.00 314.00,98.10 314.00,116.55 C314.00,152.68 314.30,154.97 319.30,156.99 ZM 256.00 272.00 C176.43,272.00 143.08,272.32 142.32,273.08 C141.54,273.86 140.78,273.52 139.62,271.86 C137.47,268.80 137.57,265.75 139.91,262.86 L 141.82 260.50 L 256.38 260.50 C360.93,260.50 372.90,260.16 374.33,263.86 C374.63,264.65 374.45,265.63 374.59,266.83 C375.05,270.73 371.80,275.14 369.87,273.25 C368.87,272.26 344.74,272.00 256.00,272.00 ZM 267.47 407.37 C266.59,407.71 266.19,407.91 265.80,407.90 C265.32,407.89 264.84,407.58 263.50,406.85 C257.70,403.67 257.60,398.97 263.16,389.61 C271.25,375.99 287.97,362.31 293.14,365.08 C294.71,365.92 295.89,365.91 297.74,365.07 C300.58,363.78 302.64,364.93 304.03,368.58 C304.64,370.19 305.55,370.67 307.57,370.44 C309.07,370.28 310.56,369.72 310.90,369.21 C312.25,367.12 318.19,365.00 322.70,365.01 C327.96,365.01 331.86,367.03 336.00,371.89 L 338.50 374.83 L 350.00 371.95 C368.39,367.35 368.99,367.33 372.44,370.93 C374.94,373.55 375.24,374.40 374.44,376.65 C373.02,380.64 369.29,382.82 361.00,384.49 C350.70,386.57 349.22,386.91 343.50,388.50 C340.75,389.27 336.34,390.20 333.69,390.57 C329.53,391.15 328.56,390.94 326.44,388.95 C324.80,387.40 324.00,385.56 324.00,383.33 C324.00,380.52 323.64,380.00 321.70,380.00 C319.35,380.00 313.00,385.64 313.00,387.73 C313.00,389.13 308.19,393.00 306.44,393.00 C303.58,393.00 299.17,387.96 298.49,383.91 C298.11,381.68 297.16,379.62 296.38,379.32 C292.02,377.64 283.11,385.47 274.52,398.52 C271.54,403.05 268.36,407.03 267.47,407.37 ZM 193.25 190.82 C199.99,194.67 205.56,197.86 205.64,197.91 C205.72,197.96 211.46,194.81 218.39,190.90 L 231.00 183.81 L 231.00 157.16 L 219.25 150.59 C212.79,146.97 206.82,144.01 206.00,144.01 C205.18,144.01 199.21,146.97 192.75,150.59 L 181.00 157.16 L 181.00 183.82 ZM 262.23 361.53 C260.70,362.84 252.40,363.08 200.66,363.27 C147.26,363.48 140.70,363.33 139.43,361.92 C137.14,359.39 137.69,355.39 140.63,353.07 C143.23,351.03 144.11,351.00 201.18,351.00 L 259.09 351.00 L 261.55 353.45 C264.44,356.35 264.70,359.42 262.23,361.53 ZM 478.29 348.33 C483.55,351.04 489.74,349.95 493.72,345.61 C496.53,342.54 497.00,341.30 497.00,336.91 C497.00,332.43 496.58,331.38 493.60,328.40 C490.67,325.47 489.53,325.00 485.35,325.00 C479.64,325.01 474.42,327.78 472.98,331.57 C470.55,337.93 472.98,345.59 478.29,348.33 ZM 21.42 267.11 C27.78,270.99 36.76,268.22 39.56,261.51 C41.42,257.07 41.38,254.85 39.35,250.61 C37.05,245.78 32.55,243.56 26.43,244.25 C14.60,245.59 11.24,260.91 21.42,267.11 ZM 478.83 186.37 C483.53,188.33 486.40,188.36 489.96,186.52 C494.78,184.03 497.00,180.32 497.00,174.77 C497.00,170.45 496.55,169.35 493.60,166.40 C490.62,163.42 489.57,163.00 485.06,163.00 C481.98,163.00 478.93,163.66 477.41,164.65 C469.65,169.73 470.51,182.92 478.83,186.37 ZM 478.30 267.04 C484.31,270.70 492.51,268.79 495.48,263.03 C497.45,259.23 497.43,252.05 495.44,249.22 C490.39,242.00 477.41,242.45 473.52,249.97 C470.38,256.04 472.46,263.48 478.30,267.04 ZM 24.00 349.30 C33.58,352.78 43.16,343.14 40.13,333.05 C38.55,327.78 34.32,325.01 27.83,325.00 C19.51,325.00 13.46,332.81 15.95,340.34 C17.05,343.67 21.18,348.27 24.00,349.30 ZM 22.00 185.82 C31.50,192.20 43.53,182.40 40.13,171.05 C38.55,165.78 34.32,163.01 27.83,163.00 C22.04,163.00 17.57,166.36 15.89,171.98 C14.91,175.23 15.02,176.38 16.62,179.64 C17.65,181.75 20.08,184.53 22.00,185.82 Z" fill="rgba(0,0,0,1)"/>
<path d="M 361.14 441.03 C361.39,441.02 361.64,441.01 361.90,441.00 L 375.50 440.50 L 376.76 436.62 C377.77,433.56 377.98,408.56 377.77,318.12 C377.51,207.58 377.43,203.40 375.61,200.71 C372.22,195.72 371.34,195.57 340.50,195.02 L 311.50 194.50 L 303.76 190.72 C293.26,185.59 286.06,178.43 281.23,168.32 L 277.50 160.50 L 276.92 72.00 L 298.84 72.00 L 299.17 113.25 C299.47,150.43 299.67,154.82 301.27,157.74 C304.07,162.86 308.96,167.93 313.41,170.31 C317.40,172.45 318.50,172.51 358.75,172.79 L 400.00 173.08 L 400.00 435.82 L 396.96 438.38 L 393.92 440.94 L 371.80 440.96 C367.61,440.96 364.10,440.98 361.14,441.03 ZM 333.93 448.00 C340.39,448.00 342.74,447.90 343.75,447.18 C342.75,447.91 340.44,448.00 333.93,448.00 Z" fill="rgba(5,115,206,1)"/>
<path d="M 324.00 446.67 C324.00,445.95 322.96,444.37 321.69,443.17 L 319.37 441.00 L 219.55 441.00 C120.50,441.00 119.71,440.98 116.40,438.94 C114.11,437.52 112.89,435.88 112.50,433.69 C112.18,431.94 112.06,350.79 112.21,253.36 L 112.50 76.23 L 115.00 74.15 C117.43,72.13 118.53,72.07 153.67,72.03 L 189.85 72.00 L 192.92 68.92 C194.62,67.23 196.00,65.43 196.00,64.92 C196.00,64.42 200.50,64.00 206.00,64.00 C213.94,64.00 216.00,64.29 216.00,65.41 C216.00,66.19 217.38,67.99 219.08,69.41 L 222.15 72.00 L 276.92 72.00 L 277.50 160.50 L 281.23 168.32 C286.06,178.43 293.26,185.59 303.76,190.72 L 311.50 194.50 L 340.50 195.02 C371.34,195.57 372.22,195.72 375.61,200.71 C377.43,203.40 377.51,207.58 377.77,318.12 C377.98,408.56 377.77,433.56 376.76,436.62 L 375.50 440.50 L 361.90 441.00 C347.88,441.52 345.72,442.14 344.47,446.09 C343.93,447.80 342.83,448.00 333.93,448.00 C326.35,448.00 324.00,447.69 324.00,446.67 ZM 204.00 242.50 C204.00,243.32 204.68,244.00 205.50,244.00 C206.32,244.00 207.00,243.32 207.00,242.50 C207.00,243.32 207.79,244.00 208.75,243.99 C210.98,243.98 220.22,239.69 224.34,236.76 C226.08,235.52 227.73,234.48 228.00,234.46 C229.02,234.36 237.60,229.67 240.50,227.62 C242.15,226.46 243.73,225.48 244.00,225.46 C245.02,225.36 253.60,220.67 256.50,218.62 C258.15,217.46 259.80,216.50 260.16,216.50 C260.49,216.50 261.36,215.66 262.27,214.60 C261.56,215.93 264.34,214.23 267.50,211.00 C269.65,208.80 271.14,207.00 270.82,207.00 C269.68,207.00 265.41,209.51 265.45,210.15 C265.48,210.48 264.72,211.62 263.74,212.73 C264.49,211.69 265.04,210.76 264.99,210.44 C264.94,210.09 266.38,209.01 268.20,208.03 C272.15,205.91 273.81,201.38 273.92,192.38 C274.02,184.67 271.63,181.00 266.50,181.00 C264.20,181.00 262.40,181.83 261.14,183.42 C262.11,181.92 263.31,181.00 264.57,181.00 C265.72,181.00 266.00,178.93 266.00,170.50 C266.00,163.81 265.82,161.13 265.18,160.30 C266.44,160.78 267.49,160.67 268.09,159.89 C268.47,160.42 270.07,159.58 271.50,158.00 C272.86,156.50 272.63,155.80 271.70,156.09 C273.82,155.09 274.00,154.36 273.98,148.27 C273.94,135.68 268.28,128.44 251.61,119.65 C247.82,117.65 244.22,115.62 243.61,115.13 C243.00,114.65 239.40,112.63 235.61,110.63 C231.82,108.64 228.22,106.61 227.61,106.12 C227.00,105.64 223.28,103.56 219.34,101.51 C212.94,98.18 211.92,97.90 208.94,98.86 C209.41,98.54 209.61,98.18 209.43,97.89 C208.78,96.84 204.89,96.72 202.40,97.67 C201.16,98.15 200.87,98.33 201.61,98.70 C198.92,97.97 196.02,99.58 169.50,114.47 C157.95,120.95 146.85,127.83 144.84,129.74 C138.17,136.10 137.88,137.94 138.21,172.32 C138.49,201.58 138.59,202.98 140.61,205.68 C141.77,207.23 143.21,208.50 143.81,208.50 C143.87,208.50 143.93,208.51 144.00,208.52 C143.98,208.90 143.24,208.62 142.34,207.87 C140.83,206.63 140.78,206.71 141.82,208.66 C142.45,209.84 144.21,211.74 145.73,212.87 C149.18,215.44 149.80,215.54 147.65,213.17 C147.22,212.69 146.88,212.20 146.67,211.79 C147.02,212.34 147.66,213.13 148.50,214.00 C150.08,215.65 151.73,217.00 152.16,217.00 C152.59,217.00 156.37,219.02 160.55,221.50 C164.74,223.98 168.33,226.00 168.54,226.00 C168.74,226.00 171.28,227.39 174.17,229.10 C177.06,230.80 182.14,233.69 185.46,235.50 C202.25,244.70 204.00,245.36 204.00,242.50 ZM 371.47 302.90 C375.53,299.33 375.92,296.60 372.83,293.31 L 370.65 291.00 L 256.33 291.00 C143.33,291.00 141.98,291.02 140.00,293.00 C136.27,296.73 138.38,303.24 144.00,305.29 C144.82,305.60 195.55,305.88 256.72,305.92 L 367.93 306.00 ZM 372.08 333.08 C375.57,329.58 375.83,326.50 372.75,324.89 C372.74,324.88 372.73,324.88 372.72,324.87 C372.94,324.95 373.13,325.00 373.29,325.00 C373.93,325.00 373.46,324.01 372.25,322.81 C371.04,321.60 369.80,320.87 369.48,321.19 C369.26,321.40 369.41,321.93 369.81,322.53 C369.77,322.47 369.73,322.41 369.70,322.35 C369.04,321.23 349.87,321.00 255.92,321.00 C157.72,321.00 142.86,321.19 142.38,322.46 C142.33,322.58 142.27,322.71 142.19,322.83 C142.27,322.69 142.34,322.55 142.40,322.40 C142.85,321.24 142.56,321.16 140.98,322.01 C139.89,322.59 139.00,323.49 139.00,324.00 C139.00,324.49 139.34,324.64 139.81,324.56 C137.70,325.36 137.38,329.61 139.28,332.07 C139.49,332.34 139.67,332.58 139.88,332.81 C142.70,335.97 149.08,335.94 256.83,335.97 L 369.15 336.00 ZM 256.00 272.00 C344.74,272.00 368.87,272.26 369.87,273.25 C371.80,275.14 375.05,270.73 374.59,266.83 C374.45,265.63 374.63,264.65 374.33,263.86 C372.90,260.16 360.93,260.50 256.38,260.50 L 141.82 260.50 L 139.91 262.86 C137.57,265.75 137.47,268.80 139.62,271.86 C140.78,273.52 141.54,273.86 142.32,273.08 C142.34,273.06 142.41,273.03 142.51,273.01 C142.32,273.31 142.30,273.67 142.50,273.99 C143.49,275.61 370.29,275.37 369.75,273.75 C369.42,272.76 345.78,272.45 256.92,272.24 C224.53,272.17 195.06,272.16 174.24,272.21 C192.61,272.07 219.42,272.00 256.00,272.00 ZM 267.47 407.37 C268.36,407.03 271.54,403.05 274.52,398.52 C283.11,385.47 292.02,377.64 296.38,379.32 C297.16,379.62 298.11,381.68 298.49,383.91 C299.17,387.96 303.58,393.00 306.44,393.00 C308.19,393.00 313.00,389.13 313.00,387.73 C313.00,385.64 319.35,380.00 321.70,380.00 C323.64,380.00 324.00,380.52 324.00,383.33 C324.00,385.56 324.80,387.40 326.44,388.95 C328.56,390.94 329.53,391.15 333.69,390.57 C336.34,390.20 340.75,389.27 343.50,388.50 C349.22,386.91 350.70,386.57 361.00,384.49 C369.29,382.82 373.02,380.64 374.44,376.65 C375.24,374.40 374.94,373.55 372.44,370.93 C368.99,367.33 368.39,367.35 350.00,371.95 L 338.50 374.83 L 336.00 371.89 C331.86,367.03 327.96,365.01 322.70,365.01 C318.30,365.00 312.53,367.02 311.00,369.06 C310.97,368.59 310.18,368.40 309.21,368.66 C308.20,368.92 306.61,368.23 305.56,367.06 C303.32,364.60 302.27,364.47 302.97,366.47 C301.74,364.65 300.14,364.14 298.14,364.90 C299.04,364.26 298.31,364.03 295.50,364.03 C292.55,364.03 291.89,364.29 293.00,365.00 C293.01,365.01 293.02,365.01 293.03,365.02 C287.73,362.50 271.20,376.09 263.16,389.61 C257.60,398.97 257.70,403.67 263.50,406.85 C264.84,407.58 265.32,407.89 265.80,407.90 C266.19,407.91 266.59,407.71 267.47,407.37 ZM 262.23 361.53 C264.70,359.42 264.44,356.35 261.55,353.45 L 259.09 351.00 L 201.18 351.00 C144.11,351.00 143.23,351.03 140.63,353.07 C137.69,355.39 137.14,359.39 139.43,361.92 C139.47,361.97 139.52,362.01 139.58,362.06 C139.36,362.01 139.21,361.95 139.13,361.90 C138.23,361.27 138.76,361.93 140.31,363.38 L 143.11 366.00 L 200.94 366.00 C256.99,366.00 258.85,365.94 261.14,364.03 C262.44,362.95 263.01,362.05 262.42,362.03 C261.82,362.01 261.10,362.24 260.81,362.52 C260.70,362.63 256.94,362.73 250.58,362.81 C259.07,362.57 261.48,362.18 262.23,361.53 ZM 179.50 215.47 C180.78,216.19 182.05,216.89 183.29,217.58 C170.23,210.45 156.15,202.32 154.75,200.74 C154.75,200.74 154.74,200.74 154.74,200.73 C157.15,202.55 167.57,208.77 179.50,215.47 ZM 264.51 160.00 C262.89,159.96 261.47,158.61 260.48,156.41 C260.70,156.73 260.96,157.04 261.25,157.36 C262.35,158.58 263.48,159.47 264.51,160.00 ZM 153.72 198.48 C153.09,195.48 153.00,188.69 153.00,170.01 C153.00,186.67 153.20,195.02 153.72,198.48 ZM 233.66 214.79 C221.05,222.02 207.92,229.00 206.01,229.00 C205.93,229.00 205.81,228.98 205.66,228.93 C205.77,228.96 205.85,228.97 205.92,228.98 C207.84,229.00 221.02,222.02 233.66,214.79 ZM 304.12 368.81 C304.98,370.10 305.92,370.56 307.24,370.42 C307.71,370.37 308.19,370.31 308.64,370.26 C308.29,370.34 307.93,370.40 307.57,370.44 C305.65,370.65 304.74,370.24 304.12,368.81 ZM 146.46 210.10 C146.87,210.62 146.92,211.00 146.51,211.00 C146.48,211.00 146.46,211.00 146.44,211.01 C146.45,210.93 146.47,210.86 146.52,210.81 C146.66,210.67 146.63,210.41 146.46,210.10 ZM 269.10 158.06 C269.42,157.66 269.83,157.27 270.28,156.93 C270.05,157.11 269.82,157.33 269.57,157.57 C269.41,157.74 269.25,157.90 269.10,158.06 Z" fill="rgba(81,142,215,1)"/>
<path d="M 142.50 273.99 C142.15,273.44 142.46,272.76 143.19,272.49 C143.91,272.21 195.09,272.10 256.92,272.24 C345.78,272.45 369.42,272.76 369.75,273.75 C370.29,275.37 143.49,275.61 142.50,273.99 ZM 140.31 363.38 C138.76,361.93 138.23,361.27 139.13,361.90 C140.32,362.73 157.13,363.05 200.52,363.05 C233.39,363.05 260.52,362.81 260.81,362.52 C261.10,362.24 261.82,362.01 262.42,362.03 C263.01,362.05 262.44,362.95 261.14,364.03 C258.85,365.94 256.99,366.00 200.94,366.00 L 143.11 366.00 ZM 303.57 367.83 C301.91,364.51 302.90,364.13 305.56,367.06 C306.61,368.23 308.20,368.92 309.21,368.66 C310.19,368.40 311.00,368.60 311.00,369.09 C311.00,369.59 310.66,370.04 310.25,370.08 C309.84,370.13 308.48,370.28 307.24,370.42 C305.62,370.60 304.58,369.86 303.57,367.83 ZM 202.57 99.10 C200.79,98.40 200.77,98.30 202.40,97.67 C204.89,96.72 208.78,96.84 209.43,97.89 C209.73,98.37 208.97,99.04 207.74,99.37 C205.10,100.08 205.06,100.08 202.57,99.10 ZM 263.60 212.90 C264.64,211.74 265.48,210.50 265.45,210.15 C265.41,209.51 269.68,207.00 270.82,207.00 C271.14,207.00 269.65,208.80 267.50,211.00 C263.52,215.08 260.13,216.72 263.60,212.90 ZM 145.73 212.87 C144.21,211.74 142.45,209.84 141.82,208.66 C140.78,206.71 140.83,206.63 142.34,207.87 C143.25,208.63 144.00,208.91 144.00,208.50 C144.00,208.09 144.69,208.32 145.52,209.02 C146.36,209.72 146.81,210.52 146.52,210.81 C146.23,211.10 146.74,212.16 147.65,213.17 C149.80,215.54 149.18,215.44 145.73,212.87 ZM 293.00 365.00 C291.89,364.29 292.55,364.03 295.50,364.03 C298.45,364.03 299.11,364.29 298.00,365.00 C297.17,365.53 296.05,365.97 295.50,365.97 C294.95,365.97 293.83,365.53 293.00,365.00 ZM 268.00 159.57 C268.00,159.34 268.71,158.44 269.57,157.57 C271.88,155.26 273.62,155.65 271.50,158.00 C269.86,159.82 268.00,160.65 268.00,159.57 ZM 204.00 242.50 C204.00,241.68 204.68,241.00 205.50,241.00 C206.32,241.00 207.00,241.68 207.00,242.50 C207.00,243.32 206.32,244.00 205.50,244.00 C204.68,244.00 204.00,243.32 204.00,242.50 ZM 370.52 323.38 C369.63,322.49 369.16,321.50 369.48,321.19 C369.80,320.87 371.04,321.60 372.25,322.81 C373.46,324.01 373.93,325.00 373.29,325.00 C372.66,325.00 371.41,324.27 370.52,323.38 ZM 139.00 324.00 C139.00,323.49 139.89,322.59 140.98,322.01 C142.56,321.16 142.85,321.24 142.40,322.40 C141.75,324.08 139.00,325.38 139.00,324.00 Z" fill="rgba(1,2,3,1)"/>
<path d="M 319.30 156.99 C314.30,154.97 314.00,152.68 314.00,116.55 C314.00,98.10 314.34,83.00 314.76,83.00 C316.17,83.00 389.08,156.58 388.37,157.29 C387.34,158.32 321.90,158.03 319.30,156.99 Z" fill="rgba(177,201,235,1)"/>
<path d="M 193.25 190.82 L 181.00 183.82 L 181.00 157.16 L 192.75 150.59 C199.21,146.97 205.18,144.01 206.00,144.01 C206.82,144.01 212.79,146.97 219.25,150.59 L 231.00 157.16 L 231.00 183.81 L 218.39 190.90 C211.46,194.81 205.72,197.96 205.64,197.91 C205.56,197.86 199.99,194.67 193.25,190.82 Z" fill="rgba(253,152,0,1)"/>
<path d="M 24.00 349.30 C21.18,348.27 17.05,343.67 15.95,340.34 C13.46,332.81 19.51,325.00 27.83,325.00 C34.32,325.01 38.55,327.78 40.13,333.05 C43.16,343.14 33.58,352.78 24.00,349.30 ZM 478.29 348.33 C472.98,345.59 470.55,337.93 472.98,331.57 C474.42,327.78 479.64,325.01 485.35,325.00 C489.53,325.00 490.67,325.47 493.60,328.40 C496.58,331.38 497.00,332.43 497.00,336.91 C497.00,341.30 496.53,342.54 493.72,345.61 C489.74,349.95 483.55,351.04 478.29,348.33 ZM 21.42 267.11 C11.24,260.91 14.60,245.59 26.43,244.25 C32.55,243.56 37.05,245.78 39.35,250.61 C41.38,254.85 41.42,257.07 39.56,261.51 C36.76,268.22 27.78,270.99 21.42,267.11 ZM 478.30 267.04 C472.46,263.48 470.38,256.04 473.52,249.97 C477.41,242.45 490.39,242.00 495.44,249.22 C497.43,252.05 497.45,259.23 495.48,263.03 C492.51,268.79 484.31,270.70 478.30,267.04 ZM 179.50 215.47 C166.30,208.06 154.94,201.23 154.25,200.30 C153.32,199.05 153.00,191.31 153.00,169.93 C153.00,148.18 153.30,141.00 154.25,140.25 C154.94,139.70 166.07,133.26 179.00,125.94 C196.80,115.85 203.35,112.62 206.00,112.62 C208.64,112.63 215.27,115.88 233.00,125.90 C245.93,133.20 257.06,139.89 257.75,140.78 C258.44,141.66 259.00,145.14 259.00,148.56 C259.00,155.00 261.43,160.00 264.57,160.00 C265.72,160.00 266.00,162.07 266.00,170.50 C266.00,178.93 265.72,181.00 264.57,181.00 C261.64,181.00 259.00,186.01 259.00,191.57 C259.00,194.48 258.60,197.91 258.12,199.18 C257.05,201.99 209.70,229.01 205.92,228.98 C204.59,228.96 192.70,222.88 179.50,215.47 ZM 225.00 204.21 C240.25,195.62 243.35,193.01 244.90,187.42 C246.29,182.43 246.32,158.69 244.95,153.75 C243.33,147.93 240.58,145.62 225.03,137.01 C205.82,126.38 206.16,126.38 187.03,137.02 C179.11,141.43 171.74,145.81 170.67,146.77 C166.78,150.23 166.00,154.21 166.00,170.51 C166.00,192.78 165.56,192.09 188.00,204.72 C194.88,208.59 201.40,212.00 202.50,212.29 C206.74,213.43 211.98,211.55 225.00,204.21 ZM 22.00 185.82 C20.08,184.53 17.65,181.75 16.62,179.64 C15.02,176.38 14.91,175.23 15.89,171.98 C17.57,166.36 22.04,163.00 27.83,163.00 C34.32,163.01 38.55,165.78 40.13,171.05 C43.53,182.40 31.50,192.20 22.00,185.82 ZM 478.83 186.37 C470.51,182.92 469.65,169.73 477.41,164.65 C478.93,163.66 481.98,163.00 485.06,163.00 C489.57,163.00 490.62,163.42 493.60,166.40 C496.55,169.35 497.00,170.45 497.00,174.77 C497.00,180.32 494.78,184.03 489.96,186.52 C486.40,188.36 483.53,188.33 478.83,186.37 Z" fill="rgba(254,217,106,1)"/>
</g>
</svg>