<svg xmlns="http://www.w3.org/2000/svg" width="512" height="512" viewBox="0 0 512 512">
<g>
<path d="M 219.82 427.13 C216.87,424.50 216.57,423.65 216.06,416.55 L 215.50 408.83 L 206.58 405.97 C201.67,404.39 192.79,400.75 186.86,397.89 L 176.06 392.67 L 171.12 397.29 C165.78,402.29 162.55,403.61 158.27,402.53 C155.24,401.77 114.28,361.76 110.82,356.19 C107.72,351.20 108.84,346.75 114.66,340.84 L 119.38 336.05 L 114.14 325.20 C111.26,319.23 107.61,310.33 106.03,305.42 L 103.17 296.50 L 95.45 295.94 C88.35,295.43 87.50,295.13 84.87,292.18 L 82.00 288.97 L 82.00 223.03 L 84.92 219.77 C87.62,216.74 88.38,216.46 95.50,216.00 L 103.17 215.50 L 106.04 206.58 C107.61,201.67 111.25,192.79 114.11,186.86 L 119.33 176.06 L 114.71 171.12 C109.71,165.78 108.40,162.56 109.46,158.25 C110.39,154.49 154.49,110.39 158.25,109.46 C162.56,108.40 165.78,109.71 171.12,114.71 L 176.06 119.33 L 186.86 114.11 C192.79,111.25 201.67,107.61 206.58,106.03 L 215.50 103.17 L 216.06 95.45 C216.57,88.35 216.87,87.50 219.82,84.87 L 223.03 82.00 L 288.97 82.00 L 292.18 84.87 C295.13,87.50 295.43,88.35 295.94,95.45 L 296.50 103.17 L 305.42 106.03 C310.33,107.61 319.23,111.26 325.20,114.14 L 336.05 119.38 L 340.84 114.66 C346.75,108.84 351.20,107.72 356.19,110.82 C361.76,114.28 401.77,155.24 402.53,158.27 C403.61,162.55 402.29,165.78 397.29,171.12 L 392.67 176.06 L 397.89 186.86 C400.75,192.79 404.39,201.67 405.96,206.58 L 408.83 215.50 L 416.50 216.00 C423.62,216.46 424.38,216.74 427.08,219.77 L 430.00 223.03 L 430.00 288.97 L 427.13 292.18 C424.50,295.13 423.65,295.43 416.55,295.94 L 408.83 296.50 L 405.97 305.42 C404.39,310.33 400.75,319.21 397.89,325.14 L 392.67 335.94 L 397.29 340.88 C402.29,346.22 403.60,349.44 402.54,353.75 C401.61,357.51 357.51,401.61 353.75,402.54 C349.44,403.60 346.22,402.29 340.88,397.29 L 335.94 392.67 L 325.14 397.89 C319.21,400.75 310.33,404.39 305.42,405.97 L 296.50 408.83 L 295.94 416.55 C295.43,423.65 295.13,424.50 292.18,427.13 L 288.97 430.00 L 223.03 430.00 ZM 237.00 405.00 L 237.00 410.00 L 276.00 410.00 L 276.00 405.82 C276.00,400.64 277.95,395.00 279.75,395.00 C280.49,395.00 282.92,394.12 285.14,393.04 C287.74,391.79 290.23,391.30 292.10,391.67 C294.25,392.10 295.00,391.87 295.00,390.78 C295.00,389.09 302.32,386.43 305.84,386.83 C308.31,387.12 311.30,385.30 310.50,384.00 C310.24,383.58 311.48,383.35 313.26,383.50 C316.91,383.80 321.85,381.62 323.81,378.85 C324.53,377.83 325.84,377.00 326.73,377.00 C327.62,377.00 329.05,376.36 329.92,375.58 C330.79,374.80 332.16,374.01 332.98,373.83 C333.79,373.65 335.06,372.94 335.80,372.25 C337.55,370.63 338.93,370.66 339.58,372.35 C339.89,373.15 341.05,373.52 342.41,373.26 C343.99,372.96 345.83,373.79 348.18,375.85 L 351.64 378.89 L 365.53 364.97 L 379.42 351.05 L 376.58 348.09 C374.87,346.30 373.98,344.50 374.34,343.57 C374.68,342.67 374.04,341.18 372.80,340.02 C370.79,338.15 370.76,337.92 372.33,336.19 C373.25,335.17 373.70,334.04 373.34,333.67 C372.97,333.30 373.22,333.00 373.89,333.00 C374.57,333.00 374.87,332.60 374.57,332.11 C374.27,331.63 374.69,330.67 375.51,329.99 C376.33,329.31 377.00,327.72 377.00,326.44 C377.00,325.09 377.75,323.90 378.82,323.56 C381.27,322.78 383.80,317.21 383.49,313.28 C383.35,311.52 383.52,310.11 383.87,310.16 C386.47,310.48 387.07,309.70 386.89,306.25 C386.69,302.31 389.24,295.00 390.82,295.00 C391.33,295.00 391.75,293.97 391.75,292.72 C391.75,291.47 392.56,287.72 393.55,284.39 C395.10,279.15 395.63,278.40 397.48,278.75 C398.66,278.98 400.21,278.45 400.93,277.58 C401.75,276.60 403.83,276.00 406.42,276.00 C408.72,276.00 411.14,275.46 411.80,274.80 C413.51,273.09 413.49,238.42 411.78,237.36 C411.11,236.95 408.81,236.73 406.68,236.89 C403.81,237.09 402.20,236.60 400.48,234.98 C399.20,233.78 397.70,233.07 397.15,233.41 C396.60,233.75 395.16,232.63 393.95,230.92 C392.31,228.62 391.75,226.44 391.79,222.48 C391.82,218.70 391.48,217.26 390.63,217.59 C389.14,218.16 386.64,209.81 386.94,205.25 C387.14,202.28 386.45,201.52 383.87,201.84 C383.52,201.89 383.36,200.48 383.50,198.71 C383.79,195.22 382.01,191.01 378.95,187.95 C377.88,186.88 377.00,185.38 377.00,184.62 C377.00,183.86 376.33,182.69 375.51,182.01 C374.69,181.33 374.27,180.37 374.57,179.89 C374.87,179.40 374.57,179.00 373.89,179.00 C373.22,179.00 372.95,178.72 373.29,178.38 C373.63,178.04 373.27,177.13 372.49,176.35 C371.10,174.96 371.46,172.00 373.01,172.00 C373.45,172.00 373.57,171.07 373.27,169.94 C372.89,168.49 373.73,166.84 376.08,164.42 L 379.43 160.96 L 365.98 147.48 C358.58,140.07 352.03,134.00 351.42,134.00 C350.81,134.00 349.47,134.93 348.43,136.07 C347.21,137.43 345.74,137.99 344.20,137.70 C342.68,137.41 341.17,137.97 339.94,139.29 C338.09,141.28 337.97,141.29 336.02,139.52 C334.91,138.51 334.00,138.02 334.00,138.43 C334.00,138.83 332.48,138.23 330.63,137.08 C328.78,135.94 326.56,135.00 325.70,135.00 C324.84,135.00 323.87,134.17 323.55,133.15 C322.56,130.05 312.00,126.35 312.00,129.11 C312.00,130.45 310.58,129.40 310.38,127.92 C310.31,127.41 310.19,126.55 310.12,126.00 C310.06,125.45 308.93,125.00 307.62,125.00 C306.31,125.00 303.55,124.29 301.48,123.43 C298.39,122.13 297.56,122.09 296.85,123.18 C296.21,124.17 295.85,123.94 295.38,122.25 C294.78,120.04 291.00,118.96 291.00,121.00 C291.00,122.50 288.29,122.20 287.69,120.63 C287.40,119.88 285.17,118.68 282.72,117.96 C277.69,116.47 276.00,113.52 276.00,106.18 L 276.00 102.00 L 237.00 102.00 L 237.00 105.55 C237.00,107.50 236.31,110.44 235.46,112.08 C234.61,113.72 234.15,115.43 234.43,115.89 C234.72,116.35 231.02,117.76 226.23,119.01 C221.43,120.27 217.05,121.84 216.49,122.51 C215.94,123.17 212.79,124.50 209.49,125.45 C206.20,126.41 203.13,127.83 202.69,128.62 C202.24,129.40 201.35,129.72 200.71,129.32 C199.70,128.70 197.21,128.54 194.15,128.90 C192.73,129.07 188.48,133.16 188.75,134.11 C188.89,134.60 188.13,135.00 187.06,135.00 C185.99,135.00 183.51,135.94 181.56,137.10 C179.60,138.25 178.00,138.93 178.00,138.60 C178.00,138.27 177.04,138.96 175.87,140.13 C173.80,142.20 173.70,142.21 172.70,140.38 C171.32,137.87 170.12,137.16 168.10,137.68 C167.18,137.93 165.58,137.20 164.56,136.06 C163.53,134.93 162.19,134.00 161.58,134.00 C160.97,134.00 154.42,140.06 147.03,147.47 L 133.58 160.95 L 136.42 163.91 C138.47,166.06 139.12,167.57 138.78,169.39 C138.48,170.94 138.81,172.10 139.65,172.42 C141.55,173.15 141.33,175.71 139.25,176.92 C138.29,177.48 137.88,177.95 138.35,177.97 C138.82,177.99 138.25,179.60 137.10,181.56 C135.94,183.51 135.00,185.73 135.00,186.49 C135.00,187.25 134.09,188.15 132.99,188.50 C131.88,188.86 131.23,189.56 131.54,190.07 C131.86,190.58 131.61,191.00 131.00,191.00 C130.39,191.00 130.16,191.45 130.50,192.00 C130.84,192.55 130.61,193.00 130.00,193.00 C129.39,193.00 129.16,193.45 129.50,194.00 C129.84,194.55 129.74,195.00 129.27,195.00 C128.12,195.00 128.15,199.35 129.32,200.14 C130.95,201.25 129.09,202.84 126.84,202.25 C124.89,201.74 124.75,201.98 125.32,204.85 C125.67,206.59 125.57,209.02 125.10,210.26 C124.64,211.49 123.69,214.30 122.99,216.50 C122.29,218.70 121.26,221.62 120.70,223.00 C120.13,224.38 119.61,225.73 119.55,226.00 C119.48,226.27 118.93,227.40 118.31,228.50 C117.70,229.60 117.18,230.95 117.15,231.50 C117.13,232.05 116.29,232.66 115.30,232.86 C114.31,233.05 112.69,234.07 111.71,235.11 C110.56,236.33 108.55,237.00 106.06,237.00 L 102.19 237.00 L 101.80 255.25 C101.59,265.29 101.59,274.06 101.81,274.75 C102.04,275.45 103.83,276.00 105.88,276.00 C108.33,276.00 110.13,276.67 111.29,278.03 C112.66,279.62 113.44,279.84 114.95,279.03 C117.57,277.62 118.04,277.73 117.33,279.57 C117.00,280.44 117.72,282.48 118.94,284.14 C120.70,286.51 121.02,287.91 120.51,290.93 C119.97,294.15 120.17,294.81 121.80,295.24 C123.94,295.80 125.21,300.09 125.10,306.36 C125.04,309.74 125.28,310.16 127.01,309.71 C129.21,309.13 130.89,310.83 129.17,311.89 C127.92,312.67 128.01,317.00 129.27,317.00 C129.74,317.00 129.84,317.45 129.50,318.00 C129.16,318.55 129.39,319.00 130.00,319.00 C130.61,319.00 130.84,319.45 130.50,320.00 C130.16,320.55 130.39,321.00 131.00,321.00 C131.61,321.00 131.86,321.42 131.54,321.93 C131.23,322.44 131.88,323.14 132.99,323.50 C134.09,323.85 135.00,324.84 135.00,325.70 C135.00,326.56 135.94,328.78 137.08,330.63 C138.23,332.48 138.84,334.00 138.44,334.00 C138.04,334.00 138.88,335.08 140.30,336.40 L 142.90 338.81 L 140.41 339.43 C139.04,339.78 138.19,340.50 138.52,341.03 C138.85,341.56 138.68,342.00 138.15,342.00 C137.62,342.00 137.43,342.92 137.72,344.05 C138.07,345.36 137.42,346.98 135.92,348.58 L 133.59 351.06 L 147.52 365.02 L 161.44 378.97 L 164.98 375.52 C167.45,373.10 168.93,372.34 169.92,372.95 C170.81,373.50 171.84,373.31 172.73,372.41 C174.54,370.61 175.92,370.62 176.61,372.44 C176.92,373.23 177.71,373.67 178.37,373.41 C179.03,373.16 180.55,373.86 181.74,374.98 C182.94,376.09 184.80,377.00 185.89,377.00 C186.98,377.00 188.13,377.82 188.44,378.82 C189.25,381.37 194.79,383.71 199.25,383.38 C201.31,383.24 203.00,383.44 203.00,383.85 C203.00,384.25 205.59,385.44 208.75,386.47 C211.91,387.51 215.31,389.04 216.30,389.88 C217.29,390.71 218.86,391.51 219.80,391.64 C225.10,392.41 234.83,395.49 233.85,396.09 C232.32,397.04 233.54,400.00 235.47,400.00 C236.64,400.00 237.00,401.18 237.00,405.00 ZM 271.50 306.84 C270.40,307.05 269.05,307.58 268.49,308.03 C267.93,308.48 266.67,308.39 265.68,307.84 C264.69,307.29 263.23,307.08 262.44,307.38 C261.52,307.74 261.00,307.30 261.00,306.18 C261.00,305.21 260.10,302.66 259.00,300.50 C257.11,296.78 257.00,294.60 257.00,259.26 C257.00,227.01 257.20,221.86 258.50,221.36 C259.39,221.02 260.01,219.50 260.02,217.64 C260.04,211.62 260.29,211.53 279.05,211.18 C293.60,210.91 296.36,211.10 297.34,212.41 C297.98,213.27 299.60,214.08 300.95,214.23 C302.30,214.38 304.71,215.96 306.30,217.75 C307.90,219.53 309.61,220.74 310.10,220.44 C310.60,220.13 311.43,221.00 311.95,222.36 C312.46,223.72 313.48,225.21 314.19,225.67 C316.37,227.05 320.00,234.70 320.00,237.90 C320.00,239.64 320.69,241.29 321.64,241.82 C323.48,242.85 322.66,245.00 320.44,245.00 C318.69,245.00 318.54,248.14 320.20,249.80 C320.99,250.59 321.03,251.00 320.32,251.00 C319.34,251.00 314.99,258.95 313.61,263.28 C313.30,264.25 310.98,265.94 308.46,267.02 C305.94,268.10 304.08,269.32 304.34,269.74 C304.60,270.16 303.64,270.57 302.21,270.66 C300.78,270.74 299.02,271.62 298.31,272.60 C297.59,273.58 297.00,273.85 297.00,273.19 C297.00,271.09 292.28,271.82 291.71,274.00 C291.26,275.70 290.35,276.00 285.52,276.00 C281.89,276.00 279.33,275.48 278.40,274.54 C277.60,273.74 276.28,273.34 275.47,273.65 C274.28,274.11 273.98,277.00 273.88,289.11 C273.76,303.38 273.82,305.93 272.77,306.54 C272.45,306.73 272.04,306.74 271.50,306.84 ZM 166.30 309.21 C167.13,309.73 167.15,309.97 166.37,309.98 C165.75,309.99 164.68,309.33 164.00,308.50 C163.32,307.67 162.25,307.00 161.63,307.00 C159.96,306.99 154.00,301.12 154.00,299.49 C154.00,298.71 154.84,297.27 155.87,296.29 C156.89,295.31 158.28,292.81 158.94,290.75 C159.61,288.69 160.52,287.00 160.97,287.00 C161.42,287.00 162.01,285.54 162.29,283.75 C162.89,279.87 167.80,266.75 168.93,266.02 C169.37,265.73 169.97,264.15 170.27,262.50 C170.97,258.62 175.90,245.69 176.93,245.02 C177.37,244.73 177.97,243.15 178.27,241.50 C179.07,237.09 183.98,224.55 185.07,224.17 C185.58,223.98 186.00,223.19 186.00,222.40 C186.00,218.61 188.55,213.29 190.88,212.19 C193.94,210.74 200.00,210.62 200.00,212.00 C200.00,212.55 200.63,213.00 201.39,213.00 C202.78,213.00 206.00,219.68 206.00,222.55 C206.00,223.38 206.60,224.29 207.33,224.57 C208.07,224.86 208.67,226.48 208.67,228.18 C208.67,229.94 209.40,231.82 210.35,232.51 C211.28,233.19 211.81,234.37 211.53,235.12 C211.25,235.88 211.68,237.62 212.48,239.00 C215.40,244.02 217.99,250.20 217.51,250.99 C217.23,251.43 217.68,253.08 218.50,254.65 C219.32,256.22 219.99,258.23 219.99,259.13 C220.00,260.02 220.57,261.23 221.28,261.81 C221.98,262.40 222.65,264.14 222.78,265.69 C222.90,267.23 223.58,268.95 224.29,269.50 C224.99,270.05 225.67,271.85 225.79,273.50 C225.91,275.15 226.57,276.95 227.26,277.50 C227.95,278.05 228.58,279.83 228.66,281.44 C228.74,283.06 229.42,284.86 230.16,285.44 C230.90,286.03 231.58,287.76 231.65,289.31 C231.73,290.85 232.47,292.88 233.30,293.81 C234.43,295.08 234.62,296.64 234.07,300.14 C233.68,302.69 233.45,305.44 233.57,306.25 C233.73,307.40 232.86,307.64 229.64,307.33 C227.36,307.11 224.71,306.92 223.75,306.90 C222.05,306.88 219.60,303.73 220.54,302.79 C220.80,302.53 220.11,301.50 219.01,300.51 C217.78,299.40 217.00,297.42 217.00,295.45 C217.00,293.42 216.41,291.99 215.42,291.61 C214.55,291.27 205.84,291.00 196.06,291.00 C178.98,291.00 178.20,291.09 175.84,293.27 C173.98,294.99 173.34,296.72 173.14,300.49 C173.00,303.22 172.74,305.59 172.56,305.77 C172.39,305.95 170.95,306.18 169.37,306.30 C166.13,306.53 164.50,308.07 166.30,309.21 ZM 251.50 510.85 C248.37,509.14 229.02,489.81 227.43,486.80 C223.77,479.88 228.54,472.00 236.41,472.00 C237.68,472.00 240.36,473.11 242.36,474.47 L 246.00 476.94 L 246.00 467.42 C246.00,461.14 246.48,456.96 247.43,455.15 C250.87,448.49 261.13,448.49 264.57,455.15 C265.52,456.96 266.00,461.14 266.00,467.42 L 266.00 476.94 L 269.64 474.47 C275.36,470.59 281.78,471.73 284.57,477.15 C287.78,483.34 286.66,485.57 273.64,498.82 C260.79,511.90 257.10,513.90 251.50,510.85 ZM 24.50 284.12 C19.53,281.02 1.20,261.65 0.47,258.72 C0.09,257.22 0.09,254.77 0.47,253.27 C1.23,250.24 20.91,229.66 25.20,227.41 C30.26,224.77 36.12,226.40 38.57,231.15 C40.63,235.12 40.34,238.22 37.53,242.36 L 35.06 246.00 L 44.48 246.00 C55.02,246.00 58.49,247.11 60.57,251.15 C62.38,254.63 62.38,257.37 60.57,260.85 C58.49,264.89 55.02,266.00 44.48,266.00 L 35.06 266.00 L 37.53 269.64 C41.41,275.36 40.27,281.78 34.85,284.57 C31.14,286.50 28.09,286.36 24.50,284.12 ZM 477.11 284.60 C471.75,281.63 470.63,275.30 474.47,269.64 L 476.94 266.00 L 467.52 266.00 C456.98,266.00 453.51,264.89 451.43,260.85 C448.75,255.68 450.60,249.41 455.47,247.19 C456.91,246.54 462.33,246.00 467.52,246.00 L 476.94 246.00 L 474.47 242.36 C471.66,238.22 471.37,235.12 473.43,231.15 C475.88,226.40 481.74,224.77 486.80,227.41 C491.09,229.66 510.77,250.24 511.53,253.27 C512.79,258.29 510.99,261.31 500.17,272.31 C486.55,286.17 483.18,287.97 477.11,284.60 ZM 251.11 60.60 C247.08,58.37 246.07,55.24 246.04,44.78 L 246.00 35.06 L 242.36 37.53 C238.22,40.34 235.12,40.63 231.15,38.57 C226.40,36.12 224.77,30.26 227.41,25.20 C229.66,20.91 250.24,1.23 253.27,0.47 C258.29,-0.79 261.31,1.01 272.31,11.83 C286.27,25.55 287.85,28.51 284.57,34.85 C281.78,40.27 275.36,41.41 269.64,37.53 L 266.00 35.06 L 266.00 44.48 C266.00,49.67 265.46,55.09 264.81,56.53 C262.62,61.33 255.99,63.31 251.11,60.60 ZM 395.23 120.00 C387.80,115.47 388.64,109.49 398.10,99.53 L 405.00 92.26 L 400.75 91.69 C395.40,90.98 392.00,87.36 392.00,82.38 C392.00,73.41 395.33,72.00 416.55,72.00 L 433.20 72.00 L 440.00 78.80 L 440.00 95.45 C440.00,116.67 438.59,120.00 429.62,120.00 C424.63,120.00 421.02,116.60 420.30,111.22 L 419.73 106.93 L 412.98 113.45 C406.80,119.42 402.77,122.01 399.68,122.00 C399.03,121.99 397.03,121.09 395.23,120.00 ZM 396.78 438.44 C393.35,436.58 392.00,434.09 392.00,429.62 C392.00,424.63 395.40,421.02 400.78,420.30 L 405.07 419.73 L 398.55 412.98 C394.97,409.27 391.56,404.98 390.98,403.44 C388.08,395.81 395.79,388.07 403.41,390.96 C404.96,391.56 409.27,394.97 412.98,398.55 L 419.73 405.07 L 420.30 400.78 C421.02,395.40 424.63,392.00 429.62,392.00 C438.59,392.00 440.00,395.33 440.00,416.55 L 440.00 433.20 L 433.20 440.00 L 416.35 439.96 C403.43,439.93 398.86,439.57 396.78,438.44 ZM 107.50 120.44 C105.85,119.59 101.75,116.18 98.39,112.87 L 92.28 106.84 L 91.70 111.17 C90.97,116.61 87.39,120.00 82.38,120.00 C73.41,120.00 72.00,116.67 72.00,95.45 L 72.00 78.80 L 78.80 72.00 L 95.45 72.00 C116.67,72.00 120.00,73.41 120.00,82.38 C120.00,87.36 116.60,90.98 111.25,91.69 L 107.00 92.26 L 113.90 99.53 C121.60,107.64 123.02,111.13 120.55,115.91 C119.02,118.86 114.49,122.01 111.80,121.99 C111.08,121.99 109.15,121.29 107.50,120.44 ZM 72.00 433.20 L 72.00 416.55 C72.00,395.33 73.41,392.00 82.38,392.00 C87.36,392.00 90.98,395.40 91.69,400.75 L 92.26 405.00 L 99.53 398.10 C103.83,394.01 108.02,390.93 109.82,390.54 C116.20,389.14 122.86,395.80 121.46,402.18 C121.07,403.98 117.99,408.17 113.90,412.47 L 107.00 419.74 L 111.25 420.31 C116.60,421.02 120.00,424.64 120.00,429.62 C120.00,438.59 116.67,440.00 95.45,440.00 L 78.80 440.00 L 72.00 433.20 ZM 357.60 305.10 C354.23,308.72 349.87,310.84 350.28,308.66 C350.40,308.03 349.02,307.08 347.21,306.54 C343.52,305.44 341.96,301.89 343.85,298.86 C345.49,296.24 345.40,268.65 343.75,265.86 C342.74,264.15 342.75,263.65 343.81,263.27 C345.59,262.62 350.00,258.13 350.00,256.95 C350.00,255.91 354.94,255.66 357.36,256.58 C358.19,256.90 358.64,257.77 358.36,258.50 C357.67,260.30 359.75,264.04 361.28,263.74 C362.20,263.56 362.57,267.94 362.77,281.25 C362.95,292.86 362.69,299.00 362.02,299.00 C361.46,299.00 360.99,299.56 360.97,300.25 C360.96,300.94 359.44,303.12 357.60,305.10 ZM 289.00 256.89 C289.00,259.68 293.04,257.44 298.87,251.40 C305.23,244.84 305.24,244.80 304.61,240.20 C303.97,235.52 300.02,230.00 297.31,230.00 C296.59,230.00 296.00,229.65 296.00,229.22 C296.00,228.79 294.88,228.34 293.50,228.23 C291.86,228.09 291.00,228.53 291.00,229.51 C291.00,231.58 280.46,231.60 278.40,229.54 C277.60,228.74 276.27,228.34 275.44,228.66 C274.19,229.14 273.99,231.50 274.22,242.87 L 274.50 256.50 L 281.75 256.14 C286.60,255.91 289.00,256.15 289.00,256.89 ZM 184.96 271.45 C186.42,273.21 188.00,273.49 188.00,272.00 C188.00,271.42 191.34,271.00 196.03,271.00 C202.19,271.00 204.19,270.66 204.63,269.53 C204.94,268.71 204.03,264.99 202.60,261.25 C201.17,257.52 200.00,253.41 200.00,252.13 C200.00,249.23 196.99,244.00 195.32,244.00 C193.72,244.00 191.70,247.71 192.55,249.09 C192.91,249.66 192.47,250.67 191.58,251.32 C190.69,251.97 189.72,253.84 189.42,255.47 C189.12,257.10 188.44,258.97 187.91,259.61 C187.37,260.26 187.03,261.17 187.15,261.64 C187.26,262.12 186.53,264.17 185.52,266.20 C184.00,269.25 183.90,270.18 184.96,271.45 ZM 356.25 226.17 C353.07,229.10 349.91,230.49 350.26,228.79 C350.39,228.16 349.15,227.17 347.50,226.59 C345.85,226.00 344.17,225.07 343.77,224.51 C342.69,223.03 342.84,218.00 343.95,218.00 C345.19,218.00 350.00,213.19 350.00,211.95 C350.00,210.91 354.94,210.66 357.36,211.58 C358.19,211.90 358.64,212.77 358.36,213.50 C357.63,215.41 359.87,219.17 361.30,218.45 C361.96,218.12 361.71,218.50 360.75,219.29 C359.79,220.08 359.00,221.37 359.00,222.17 C359.00,222.97 357.76,224.77 356.25,226.17 Z" fill="rgba(0,0,0,1)"/>
<path d="M 237.00 405.00 C237.00,401.18 236.64,400.00 235.47,400.00 C233.54,400.00 232.32,397.04 233.85,396.09 C234.83,395.49 225.10,392.41 219.80,391.64 C218.86,391.51 217.29,390.71 216.30,389.88 C215.31,389.04 211.91,387.51 208.75,386.47 C205.59,385.44 203.00,384.25 203.00,383.85 C203.00,383.44 201.31,383.24 199.25,383.38 C194.79,383.71 189.25,381.37 188.44,378.82 C188.13,377.82 186.98,377.00 185.89,377.00 C184.80,377.00 182.94,376.09 181.74,374.98 C180.55,373.86 179.03,373.16 178.37,373.41 C177.71,373.67 176.92,373.23 176.61,372.44 C175.92,370.62 174.54,370.61 172.73,372.41 C171.84,373.31 170.81,373.50 169.92,372.95 C168.93,372.34 167.45,373.10 164.98,375.52 L 161.44 378.97 L 147.52 365.02 L 133.59 351.06 L 135.92 348.58 C137.42,346.98 138.07,345.36 137.72,344.05 C137.43,342.92 137.62,342.00 138.15,342.00 C138.68,342.00 138.85,341.56 138.52,341.03 C138.19,340.50 139.04,339.78 140.41,339.43 L 142.90 338.81 L 140.30 336.40 C138.88,335.08 138.04,334.00 138.44,334.00 C138.84,334.00 138.23,332.48 137.08,330.63 C135.94,328.78 135.00,326.56 135.00,325.70 C135.00,324.84 134.09,323.85 132.99,323.50 C131.88,323.14 131.23,322.44 131.54,321.93 C131.86,321.42 131.61,321.00 131.00,321.00 C130.39,321.00 130.16,320.55 130.50,320.00 C130.84,319.45 130.61,319.00 130.00,319.00 C129.39,319.00 129.16,318.55 129.50,318.00 C129.84,317.45 129.74,317.00 129.27,317.00 C128.01,317.00 127.92,312.67 129.17,311.89 C130.89,310.83 129.21,309.13 127.01,309.71 C125.28,310.16 125.04,309.74 125.10,306.36 C125.21,300.09 123.94,295.80 121.80,295.24 C120.17,294.81 119.97,294.15 120.51,290.93 C121.02,287.91 120.70,286.51 118.94,284.14 C117.72,282.48 117.00,280.44 117.33,279.57 C118.04,277.73 117.57,277.62 114.95,279.03 C113.44,279.84 112.66,279.62 111.29,278.03 C110.13,276.67 108.33,276.00 105.88,276.00 C103.83,276.00 102.04,275.45 101.81,274.75 C101.59,274.06 101.59,265.29 101.80,255.25 L 102.19 237.00 L 106.06 237.00 C108.55,237.00 110.56,236.33 111.71,235.11 C112.69,234.07 114.31,233.05 115.30,232.86 C116.29,232.66 117.13,232.05 117.15,231.50 C117.18,230.95 117.70,229.60 118.31,228.50 C118.93,227.40 119.48,226.27 119.55,226.00 C119.61,225.73 120.13,224.38 120.70,223.00 C121.26,221.62 122.29,218.70 122.99,216.50 C123.69,214.30 124.64,211.49 125.10,210.26 C125.57,209.02 125.67,206.59 125.32,204.85 C124.75,201.98 124.89,201.74 126.84,202.25 C129.09,202.84 130.95,201.25 129.32,200.14 C128.15,199.35 128.12,195.00 129.27,195.00 C129.74,195.00 129.84,194.55 129.50,194.00 C129.16,193.45 129.39,193.00 130.00,193.00 C130.61,193.00 130.84,192.55 130.50,192.00 C130.16,191.45 130.39,191.00 131.00,191.00 C131.61,191.00 131.86,190.58 131.54,190.07 C131.23,189.56 131.88,188.86 132.99,188.50 C134.09,188.15 135.00,187.25 135.00,186.49 C135.00,185.73 135.94,183.51 137.10,181.56 C138.25,179.60 138.82,177.99 138.35,177.97 C137.88,177.95 138.29,177.48 139.25,176.92 C141.33,175.71 141.55,173.15 139.65,172.42 C138.81,172.10 138.48,170.94 138.78,169.39 C139.12,167.57 138.47,166.06 136.42,163.91 L 133.58 160.95 L 147.03 147.47 C154.42,140.06 160.97,134.00 161.58,134.00 C162.19,134.00 163.53,134.93 164.56,136.06 C165.58,137.20 167.18,137.93 168.10,137.68 C170.12,137.16 171.32,137.87 172.70,140.38 C173.70,142.21 173.80,142.20 175.87,140.13 C177.04,138.96 178.00,138.27 178.00,138.60 C178.00,138.93 179.60,138.25 181.56,137.10 C183.51,135.94 185.99,135.00 187.06,135.00 C188.13,135.00 188.89,134.60 188.75,134.11 C188.48,133.16 192.73,129.07 194.15,128.90 C197.21,128.54 199.70,128.70 200.71,129.32 C201.35,129.72 202.24,129.40 202.69,128.62 C203.13,127.83 206.20,126.41 209.49,125.45 C212.79,124.50 215.94,123.17 216.49,122.51 C217.05,121.84 221.43,120.27 226.23,119.01 C231.02,117.76 234.72,116.35 234.43,115.89 C234.15,115.43 234.61,113.72 235.46,112.08 C236.31,110.44 237.00,107.50 237.00,105.55 L 237.00 102.00 L 256.50 102.00 L 276.00 102.00 L 276.00 106.18 C276.00,113.52 277.69,116.47 282.72,117.96 C285.17,118.68 287.40,119.88 287.69,120.63 C288.29,122.20 291.00,122.50 291.00,121.00 C291.00,118.96 294.78,120.04 295.38,122.25 C295.85,123.94 296.21,124.17 296.85,123.18 C297.56,122.09 298.39,122.13 301.48,123.43 C303.55,124.29 306.31,125.00 307.62,125.00 C308.93,125.00 310.06,125.45 310.12,126.00 C310.19,126.55 310.31,127.41 310.38,127.92 C310.58,129.40 312.00,130.45 312.00,129.11 C312.00,126.35 322.56,130.05 323.55,133.15 C323.87,134.17 324.84,135.00 325.70,135.00 C326.56,135.00 328.78,135.94 330.63,137.08 C332.48,138.23 334.00,138.83 334.00,138.43 C334.00,138.02 334.91,138.51 336.02,139.52 C337.97,141.29 338.09,141.28 339.94,139.29 C341.17,137.97 342.68,137.41 344.20,137.70 C345.74,137.99 347.21,137.43 348.43,136.07 C349.47,134.93 350.81,134.00 351.42,134.00 C352.03,134.00 358.58,140.07 365.98,147.48 L 379.43 160.96 L 376.08 164.42 C373.73,166.84 372.89,168.49 373.27,169.94 C373.57,171.07 373.45,172.00 373.01,172.00 C371.46,172.00 371.10,174.96 372.49,176.35 C373.27,177.13 373.63,178.04 373.29,178.38 C372.95,178.72 373.22,179.00 373.89,179.00 C374.57,179.00 374.87,179.40 374.57,179.89 C374.27,180.37 374.69,181.33 375.51,182.01 C376.33,182.69 377.00,183.86 377.00,184.62 C377.00,185.38 377.88,186.88 378.95,187.95 C382.01,191.01 383.79,195.22 383.50,198.71 C383.36,200.48 383.52,201.89 383.87,201.84 C386.45,201.52 387.14,202.28 386.94,205.25 C386.64,209.81 389.14,218.16 390.63,217.59 C391.48,217.26 391.82,218.70 391.79,222.48 C391.75,226.44 392.31,228.62 393.95,230.92 C395.16,232.63 396.60,233.75 397.15,233.41 C397.70,233.07 399.20,233.78 400.48,234.98 C402.20,236.60 403.81,237.09 406.68,236.89 C408.81,236.73 411.11,236.95 411.78,237.36 C413.49,238.42 413.51,273.09 411.80,274.80 C411.14,275.46 408.72,276.00 406.42,276.00 C403.83,276.00 401.75,276.60 400.93,277.58 C400.21,278.45 398.66,278.98 397.48,278.75 C395.63,278.40 395.10,279.15 393.55,284.39 C392.56,287.72 391.75,291.47 391.75,292.72 C391.75,293.97 391.33,295.00 390.82,295.00 C389.24,295.00 386.69,302.31 386.89,306.25 C387.07,309.70 386.47,310.48 383.87,310.16 C383.52,310.11 383.35,311.52 383.49,313.28 C383.80,317.21 381.27,322.78 378.82,323.56 C377.75,323.90 377.00,325.09 377.00,326.44 C377.00,327.72 376.33,329.31 375.51,329.99 C374.69,330.67 374.27,331.63 374.57,332.11 C374.87,332.60 374.57,333.00 373.89,333.00 C373.22,333.00 372.97,333.30 373.34,333.67 C373.70,334.04 373.25,335.17 372.33,336.19 C370.76,337.92 370.79,338.15 372.80,340.02 C374.04,341.18 374.68,342.67 374.34,343.57 C373.98,344.50 374.87,346.30 376.58,348.09 L 379.42 351.05 L 365.53 364.97 L 351.64 378.89 L 348.18 375.85 C345.83,373.79 343.99,372.96 342.41,373.26 C341.05,373.52 339.89,373.15 339.58,372.35 C338.93,370.66 337.55,370.63 335.80,372.25 C335.06,372.94 333.79,373.65 332.98,373.83 C332.16,374.01 330.79,374.80 329.92,375.58 C329.05,376.36 327.62,377.00 326.73,377.00 C325.84,377.00 324.53,377.83 323.81,378.85 C321.85,381.62 316.91,383.80 313.26,383.50 C311.48,383.35 310.24,383.58 310.50,384.00 C311.30,385.30 308.31,387.12 305.84,386.83 C302.32,386.43 295.00,389.09 295.00,390.78 C295.00,391.87 294.25,392.10 292.10,391.67 C290.23,391.30 287.74,391.79 285.14,393.04 C282.92,394.12 280.49,395.00 279.75,395.00 C277.95,395.00 276.00,400.64 276.00,405.82 L 276.00 410.00 L 256.50 410.00 L 237.00 410.00 L 237.00 405.00 ZM 166.30 309.21 C164.50,308.07 166.13,306.53 169.37,306.30 C170.95,306.18 172.39,305.95 172.56,305.77 C172.74,305.59 173.00,303.22 173.14,300.49 C173.34,296.72 173.98,294.99 175.84,293.27 C178.20,291.09 178.98,291.00 196.06,291.00 C205.84,291.00 214.55,291.27 215.42,291.61 C216.41,291.99 217.00,293.42 217.00,295.45 C217.00,297.42 217.78,299.40 219.01,300.51 C220.11,301.50 220.80,302.53 220.54,302.79 C219.60,303.73 222.05,306.88 223.75,306.90 C224.71,306.92 227.36,307.11 229.64,307.33 C232.86,307.64 233.73,307.40 233.57,306.25 C233.45,305.44 233.68,302.69 234.07,300.14 C234.62,296.64 234.43,295.08 233.30,293.81 C232.47,292.88 231.73,290.85 231.65,289.31 C231.58,287.76 230.90,286.03 230.16,285.44 C229.42,284.86 228.74,283.06 228.66,281.44 C228.58,279.83 227.95,278.05 227.26,277.50 C226.57,276.95 225.91,275.15 225.79,273.50 C225.67,271.85 224.99,270.05 224.29,269.50 C223.58,268.95 222.90,267.23 222.78,265.69 C222.65,264.14 221.98,262.40 221.28,261.81 C220.57,261.23 220.00,260.02 219.99,259.13 C219.99,258.23 219.32,256.22 218.50,254.65 C217.68,253.08 217.23,251.43 217.51,250.99 C217.99,250.20 215.40,244.02 212.48,239.00 C211.68,237.62 211.25,235.88 211.53,235.12 C211.81,234.37 211.28,233.19 210.35,232.51 C209.40,231.82 208.67,229.94 208.67,228.18 C208.67,226.48 208.07,224.86 207.33,224.57 C206.60,224.29 206.00,223.38 206.00,222.55 C206.00,219.68 202.78,213.00 201.39,213.00 C200.63,213.00 200.00,212.55 200.00,212.00 C200.00,210.62 193.94,210.74 190.88,212.19 C188.55,213.29 186.00,218.61 186.00,222.40 C186.00,223.19 185.58,223.98 185.07,224.17 C183.98,224.55 179.07,237.09 178.27,241.50 C177.97,243.15 177.37,244.73 176.93,245.02 C175.90,245.69 170.97,258.62 170.27,262.50 C169.97,264.15 169.37,265.73 168.93,266.02 C167.80,266.75 162.89,279.87 162.29,283.75 C162.01,285.54 161.42,287.00 160.97,287.00 C160.52,287.00 159.61,288.69 158.94,290.75 C158.28,292.81 156.89,295.31 155.87,296.29 C154.84,297.27 154.00,298.71 154.00,299.49 C154.00,301.12 159.96,306.99 161.63,307.00 C162.25,307.00 163.32,307.67 164.00,308.50 C164.68,309.33 165.75,309.99 166.37,309.98 C167.15,309.97 167.13,309.73 166.30,309.21 ZM 357.60 305.10 C359.44,303.12 360.96,300.94 360.97,300.25 C360.99,299.56 361.46,299.00 362.02,299.00 C362.69,299.00 362.95,292.86 362.77,281.25 C362.57,267.94 362.20,263.56 361.28,263.74 C359.75,264.04 357.67,260.30 358.36,258.50 C358.64,257.77 358.19,256.90 357.36,256.58 C354.94,255.66 350.00,255.91 350.00,256.95 C350.00,258.13 345.59,262.62 343.81,263.27 C342.75,263.65 342.74,264.15 343.75,265.86 C345.40,268.65 345.49,296.24 343.85,298.86 C341.96,301.89 343.52,305.44 347.21,306.54 C349.02,307.08 350.40,308.03 350.28,308.66 C349.87,310.84 354.23,308.72 357.60,305.10 ZM 271.50 306.84 C273.88,306.40 273.72,307.61 273.88,289.11 C273.98,277.00 274.28,274.11 275.47,273.65 C276.28,273.34 277.60,273.74 278.40,274.54 C279.33,275.48 281.89,276.00 285.52,276.00 C290.35,276.00 291.26,275.70 291.71,274.00 C292.28,271.82 297.00,271.09 297.00,273.19 C297.00,273.85 297.59,273.58 298.31,272.60 C299.02,271.62 300.78,270.74 302.21,270.66 C303.64,270.57 304.60,270.16 304.34,269.74 C304.08,269.32 305.94,268.10 308.46,267.02 C310.98,265.94 313.30,264.25 313.61,263.28 C314.99,258.95 319.34,251.00 320.32,251.00 C321.03,251.00 320.99,250.59 320.20,249.80 C318.54,248.14 318.69,245.00 320.44,245.00 C322.66,245.00 323.48,242.85 321.64,241.82 C320.69,241.29 320.00,239.64 320.00,237.90 C320.00,234.70 316.37,227.05 314.19,225.67 C313.48,225.21 312.46,223.72 311.95,222.36 C311.43,221.00 310.60,220.13 310.10,220.44 C309.61,220.74 307.90,219.53 306.30,217.75 C304.71,215.96 302.30,214.38 300.95,214.23 C299.60,214.08 297.98,213.27 297.34,212.41 C296.36,211.10 293.60,210.91 279.05,211.18 C260.29,211.53 260.04,211.62 260.02,217.64 C260.01,219.50 259.39,221.02 258.50,221.36 C257.20,221.86 257.00,227.01 257.00,259.26 C257.00,294.60 257.11,296.78 259.00,300.50 C260.10,302.66 261.00,305.21 261.00,306.18 C261.00,307.30 261.52,307.74 262.44,307.38 C263.23,307.08 264.69,307.29 265.68,307.84 C266.67,308.39 267.93,308.48 268.49,308.03 C269.05,307.58 270.40,307.05 271.50,306.84 ZM 356.25 226.17 C357.76,224.77 359.00,222.97 359.00,222.17 C359.00,221.37 359.79,220.08 360.75,219.29 C361.71,218.50 361.96,218.12 361.30,218.45 C359.87,219.17 357.63,215.41 358.36,213.50 C358.64,212.77 358.19,211.90 357.36,211.58 C354.94,210.66 350.00,210.91 350.00,211.95 C350.00,213.19 345.19,218.00 343.95,218.00 C342.84,218.00 342.69,223.03 343.77,224.51 C344.17,225.07 345.85,226.00 347.50,226.59 C349.15,227.17 350.39,228.16 350.26,228.79 C349.91,230.49 353.07,229.10 356.25,226.17 ZM 184.96 271.45 C183.90,270.18 184.00,269.25 185.52,266.20 C186.53,264.17 187.26,262.12 187.15,261.64 C187.03,261.17 187.37,260.26 187.91,259.61 C188.44,258.97 189.12,257.10 189.42,255.47 C189.72,253.84 190.69,251.97 191.58,251.32 C192.47,250.67 192.91,249.66 192.55,249.09 C191.70,247.71 193.72,244.00 195.32,244.00 C196.99,244.00 200.00,249.23 200.00,252.13 C200.00,253.41 201.17,257.52 202.60,261.25 C204.03,264.99 204.94,268.71 204.63,269.53 C204.19,270.66 202.19,271.00 196.03,271.00 C191.34,271.00 188.00,271.42 188.00,272.00 C188.00,273.49 186.42,273.21 184.96,271.45 ZM 289.00 256.89 C289.00,256.15 286.60,255.91 281.75,256.14 L 274.50 256.50 L 274.22 242.87 C273.99,231.50 274.19,229.14 275.44,228.66 C276.27,228.34 277.60,228.74 278.40,229.54 C280.46,231.60 291.00,231.58 291.00,229.51 C291.00,228.53 291.86,228.09 293.50,228.23 C294.88,228.34 296.00,228.79 296.00,229.22 C296.00,229.65 296.59,230.00 297.31,230.00 C300.02,230.00 303.97,235.52 304.61,240.20 C305.24,244.80 305.23,244.84 298.87,251.40 C293.04,257.44 289.00,259.68 289.00,256.89 Z" fill="rgba(0,0,1,1)"/>
<path d="M 237.00 405.65 C237.00,403.26 236.53,399.96 235.97,398.33 C235.06,395.74 234.09,395.15 228.22,393.63 C224.52,392.67 220.73,391.78 219.80,391.64 C218.86,391.51 217.29,390.71 216.30,389.88 C215.31,389.04 211.91,387.51 208.75,386.47 C205.59,385.44 203.00,384.25 203.00,383.85 C203.00,383.44 201.31,383.24 199.25,383.38 C194.79,383.71 189.25,381.37 188.44,378.82 C188.13,377.82 186.98,377.00 185.89,377.00 C184.80,377.00 182.94,376.09 181.74,374.98 C180.55,373.86 179.03,373.16 178.37,373.41 C177.71,373.67 176.92,373.23 176.61,372.44 C175.92,370.62 174.54,370.61 172.73,372.41 C171.84,373.31 170.81,373.50 169.92,372.95 C168.93,372.34 167.45,373.10 164.98,375.52 L 161.44 378.97 L 147.52 365.02 L 133.59 351.06 L 135.92 348.58 C137.42,346.98 138.07,345.36 137.72,344.05 C137.43,342.92 137.62,342.00 138.15,342.00 C138.68,342.00 138.85,341.56 138.52,341.03 C138.19,340.50 139.04,339.78 140.41,339.43 L 142.90 338.81 L 140.30 336.40 C138.88,335.08 138.04,334.00 138.44,334.00 C138.84,334.00 138.23,332.48 137.08,330.63 C135.94,328.78 135.00,326.56 135.00,325.70 C135.00,324.84 134.09,323.85 132.99,323.50 C131.88,323.14 131.23,322.44 131.54,321.93 C131.86,321.42 131.61,321.00 131.00,321.00 C130.39,321.00 130.16,320.55 130.50,320.00 C130.84,319.45 130.61,319.00 130.00,319.00 C129.39,319.00 129.16,318.55 129.50,318.00 C129.84,317.45 129.74,317.00 129.27,317.00 C127.96,317.00 127.95,312.65 129.26,311.84 C130.11,311.31 130.02,310.64 128.92,309.31 C126.96,306.94 124.02,300.40 123.93,298.22 C123.83,295.41 120.64,286.71 118.64,283.76 C117.62,282.25 117.06,280.29 117.40,279.40 C117.84,278.25 117.59,277.94 116.54,278.35 C115.73,278.66 113.81,278.26 112.28,277.46 C110.75,276.67 107.86,276.01 105.86,276.01 C103.83,276.00 102.04,275.45 101.81,274.75 C101.59,274.06 101.59,265.29 101.80,255.25 L 102.19 237.00 L 106.06 237.00 C108.55,237.00 110.56,236.33 111.71,235.11 C112.69,234.07 114.31,233.05 115.30,232.86 C116.29,232.66 117.13,232.05 117.15,231.50 C117.18,230.95 117.70,229.60 118.31,228.50 C118.93,227.40 119.48,226.27 119.55,226.00 C119.61,225.73 120.13,224.38 120.70,223.00 C121.26,221.62 122.30,218.70 122.99,216.50 C125.21,209.51 127.33,204.56 128.90,202.69 C129.88,201.52 130.06,200.63 129.40,200.19 C128.17,199.36 128.07,195.00 129.27,195.00 C129.74,195.00 129.84,194.55 129.50,194.00 C129.16,193.45 129.39,193.00 130.00,193.00 C130.61,193.00 130.84,192.55 130.50,192.00 C130.16,191.45 130.39,191.00 131.00,191.00 C131.61,191.00 131.86,190.58 131.54,190.07 C131.23,189.56 131.88,188.86 132.99,188.50 C134.09,188.15 135.00,187.25 135.00,186.49 C135.00,185.73 135.94,183.51 137.10,181.56 C138.25,179.60 138.82,177.99 138.35,177.97 C137.88,177.95 138.29,177.48 139.25,176.92 C141.33,175.71 141.55,173.15 139.65,172.42 C138.81,172.10 138.48,170.94 138.78,169.39 C139.12,167.57 138.47,166.06 136.42,163.91 L 133.58 160.95 L 147.03 147.47 C154.42,140.06 160.97,134.00 161.58,134.00 C162.19,134.00 163.53,134.93 164.56,136.06 C165.58,137.20 167.18,137.93 168.10,137.68 C170.12,137.16 171.32,137.87 172.70,140.38 C173.70,142.21 173.80,142.20 175.87,140.13 C177.04,138.96 178.00,138.27 178.00,138.60 C178.00,138.93 179.60,138.25 181.56,137.10 C183.51,135.94 185.99,135.00 187.06,135.00 C188.13,135.00 188.89,134.60 188.75,134.11 C188.48,133.16 192.73,129.07 194.15,128.90 C197.21,128.54 199.70,128.70 200.71,129.32 C201.35,129.72 202.24,129.40 202.69,128.62 C203.13,127.83 206.20,126.41 209.49,125.45 C212.79,124.50 215.94,123.17 216.49,122.51 C217.05,121.84 221.43,120.27 226.23,119.01 C231.02,117.76 234.72,116.35 234.43,115.89 C234.15,115.43 234.61,113.72 235.46,112.08 C236.31,110.44 237.00,107.50 237.00,105.55 L 237.00 102.00 L 256.50 102.00 L 276.00 102.00 L 276.00 106.18 C276.00,113.48 277.69,116.47 282.65,117.94 C285.06,118.65 287.36,119.78 287.76,120.45 C288.71,122.02 297.00,124.15 297.00,122.83 C297.00,121.17 310.71,126.65 310.79,128.33 C310.86,129.71 312.00,130.43 312.00,129.11 C312.00,126.35 322.56,130.05 323.55,133.15 C323.87,134.17 324.84,135.00 325.70,135.00 C326.56,135.00 328.78,135.94 330.63,137.08 C332.48,138.23 334.00,138.83 334.00,138.43 C334.00,138.02 334.91,138.51 336.02,139.52 C337.97,141.29 338.09,141.28 339.94,139.29 C341.17,137.97 342.68,137.41 344.20,137.70 C345.74,137.99 347.21,137.43 348.43,136.07 C349.47,134.93 350.81,134.00 351.42,134.00 C352.03,134.00 358.58,140.07 365.98,147.48 L 379.43 160.96 L 376.08 164.42 C373.73,166.84 372.89,168.49 373.27,169.94 C373.57,171.07 373.45,172.00 373.01,172.00 C371.46,172.00 371.10,174.96 372.49,176.35 C373.27,177.13 373.63,178.04 373.29,178.38 C372.95,178.72 373.22,179.00 373.89,179.00 C374.57,179.00 374.87,179.40 374.57,179.89 C374.27,180.37 374.69,181.33 375.51,182.01 C376.33,182.69 377.00,183.86 377.00,184.62 C377.00,185.38 377.88,186.88 378.95,187.95 C382.01,191.01 383.79,195.22 383.50,198.74 C383.35,200.52 383.58,201.76 384.00,201.50 C384.79,201.01 386.06,203.93 386.61,207.50 C386.78,208.60 387.67,211.98 388.57,215.00 C389.48,218.02 390.74,222.32 391.36,224.55 C392.80,229.67 395.77,234.26 397.12,233.43 C397.68,233.08 399.20,233.78 400.48,234.98 C402.20,236.60 403.81,237.09 406.68,236.89 C408.81,236.73 411.11,236.95 411.78,237.36 C413.49,238.42 413.51,273.09 411.80,274.80 C411.14,275.46 408.72,276.00 406.42,276.00 C403.83,276.00 401.75,276.60 400.93,277.58 C400.21,278.45 398.66,278.98 397.48,278.75 C395.63,278.40 395.10,279.15 393.55,284.39 C392.56,287.72 391.75,291.47 391.75,292.72 C391.75,293.97 391.33,295.00 390.82,295.00 C389.77,295.00 386.84,301.48 386.52,304.50 C386.17,307.80 384.82,311.01 384.00,310.50 C383.58,310.24 383.35,311.48 383.49,313.25 C383.80,317.21 381.28,322.78 378.82,323.56 C377.75,323.90 377.00,325.09 377.00,326.44 C377.00,327.72 376.33,329.31 375.51,329.99 C374.69,330.67 374.27,331.63 374.57,332.11 C374.87,332.60 374.57,333.00 373.89,333.00 C373.22,333.00 372.97,333.30 373.34,333.67 C373.70,334.04 373.25,335.17 372.33,336.19 C370.76,337.92 370.79,338.15 372.80,340.02 C374.04,341.18 374.68,342.67 374.34,343.57 C373.98,344.50 374.87,346.30 376.58,348.09 L 379.42 351.05 L 365.53 364.97 L 351.64 378.89 L 348.18 375.85 C345.83,373.79 343.99,372.96 342.41,373.26 C341.05,373.52 339.89,373.15 339.58,372.35 C338.93,370.66 337.55,370.63 335.80,372.25 C335.06,372.94 333.79,373.65 332.98,373.83 C332.16,374.01 330.79,374.80 329.92,375.58 C329.05,376.36 327.62,377.00 326.73,377.00 C325.84,377.00 324.53,377.83 323.81,378.85 C321.85,381.62 316.91,383.80 313.26,383.50 C311.48,383.35 310.24,383.58 310.50,384.00 C311.33,385.34 308.48,386.95 305.43,386.88 C301.68,386.80 293.84,389.10 286.61,392.41 C283.49,393.83 280.37,395.00 279.67,395.00 C277.94,395.00 276.00,400.73 276.00,405.82 L 276.00 410.00 L 256.50 410.00 L 237.00 410.00 L 237.00 405.65 ZM 166.30 309.21 C164.50,308.07 166.13,306.53 169.37,306.30 C170.95,306.18 172.39,305.95 172.56,305.77 C172.74,305.59 173.00,303.22 173.14,300.49 C173.34,296.72 173.98,294.99 175.84,293.27 C178.20,291.09 178.98,291.00 196.06,291.00 C205.84,291.00 214.55,291.27 215.42,291.61 C216.41,291.99 217.00,293.42 217.00,295.45 C217.00,297.41 217.78,299.40 218.98,300.48 C220.06,301.46 220.71,302.66 220.42,303.13 C219.76,304.19 224.81,309.00 226.59,309.00 C227.30,309.00 228.18,308.51 228.55,307.92 C228.92,307.32 230.25,307.10 231.52,307.42 C233.26,307.85 233.76,307.60 233.59,306.39 C233.46,305.50 233.68,302.69 234.07,300.14 C234.62,296.64 234.43,295.08 233.30,293.81 C232.47,292.88 231.73,290.85 231.65,289.31 C231.58,287.76 230.90,286.03 230.16,285.44 C229.42,284.86 228.74,283.06 228.66,281.44 C228.58,279.83 227.95,278.05 227.26,277.50 C226.57,276.95 225.91,275.15 225.79,273.50 C225.67,271.85 224.99,270.05 224.29,269.50 C223.58,268.95 222.90,267.23 222.78,265.69 C222.65,264.14 221.98,262.40 221.28,261.81 C220.57,261.23 220.00,260.02 219.99,259.13 C219.99,258.23 219.32,256.22 218.50,254.65 C217.68,253.08 217.23,251.43 217.51,250.99 C217.99,250.20 215.40,244.02 212.48,239.00 C211.68,237.62 211.25,235.88 211.53,235.12 C211.81,234.37 211.28,233.19 210.35,232.51 C209.40,231.82 208.67,229.94 208.67,228.18 C208.67,226.48 208.07,224.86 207.33,224.57 C206.60,224.29 206.00,223.38 206.00,222.55 C206.00,219.68 202.78,213.00 201.39,213.00 C200.63,213.00 200.00,212.55 200.00,212.00 C200.00,210.62 193.94,210.74 190.88,212.19 C188.55,213.29 186.00,218.61 186.00,222.40 C186.00,223.19 185.58,223.98 185.07,224.17 C183.98,224.55 179.07,237.09 178.27,241.50 C177.97,243.15 177.37,244.73 176.93,245.02 C175.90,245.69 170.97,258.62 170.27,262.50 C169.97,264.15 169.37,265.73 168.93,266.02 C167.80,266.75 162.89,279.87 162.29,283.75 C162.01,285.54 161.42,287.00 160.97,287.00 C160.52,287.00 159.61,288.69 158.94,290.75 C158.28,292.81 156.89,295.31 155.87,296.29 C154.84,297.27 154.00,298.66 154.00,299.38 C154.00,301.08 161.51,308.72 163.76,309.31 C166.61,310.06 167.58,310.02 166.30,309.21 ZM 357.60 305.10 C359.44,303.12 360.96,300.94 360.97,300.25 C360.99,299.56 361.46,299.00 362.02,299.00 C362.69,299.00 362.95,292.86 362.77,281.25 C362.57,267.94 362.20,263.56 361.28,263.74 C359.75,264.04 357.67,260.30 358.36,258.50 C358.64,257.77 358.19,256.90 357.36,256.58 C354.94,255.66 350.00,255.91 350.00,256.95 C350.00,258.19 345.19,263.00 343.95,263.00 C342.83,263.00 342.65,302.97 343.77,304.51 C344.17,305.07 345.85,306.00 347.50,306.59 C349.15,307.17 350.40,308.13 350.28,308.72 C349.86,310.85 354.29,308.65 357.60,305.10 ZM 271.50 306.84 C273.88,306.40 273.72,307.61 273.88,289.11 C273.98,277.00 274.28,274.11 275.47,273.65 C276.28,273.34 277.60,273.74 278.40,274.54 C281.19,277.34 295.94,275.62 298.56,272.20 C299.14,271.44 300.78,270.74 302.21,270.66 C303.64,270.57 304.60,270.16 304.34,269.74 C304.08,269.32 305.94,268.10 308.46,267.02 C310.98,265.94 313.30,264.25 313.61,263.28 C314.71,259.84 319.25,251.00 319.91,251.00 C320.28,251.00 321.10,249.09 321.72,246.75 C322.65,243.25 322.60,242.36 321.43,241.70 C320.64,241.26 320.00,239.55 320.00,237.90 C320.00,234.70 316.37,227.05 314.19,225.67 C313.48,225.21 312.46,223.72 311.95,222.36 C311.43,221.00 310.60,220.13 310.10,220.44 C309.61,220.74 307.90,219.53 306.30,217.75 C304.71,215.96 302.30,214.38 300.95,214.23 C299.60,214.08 297.98,213.27 297.34,212.41 C296.36,211.10 293.60,210.91 279.05,211.18 C260.29,211.53 260.04,211.62 260.02,217.64 C260.01,219.50 259.39,221.02 258.50,221.36 C257.20,221.86 257.00,227.01 257.00,259.26 C257.00,294.60 257.11,296.78 259.00,300.50 C260.10,302.66 261.00,305.21 261.00,306.18 C261.00,307.30 261.52,307.74 262.44,307.38 C263.23,307.08 264.69,307.29 265.68,307.84 C266.67,308.39 267.93,308.48 268.49,308.03 C269.05,307.58 270.40,307.05 271.50,306.84 ZM 357.19 225.42 C360.22,222.75 363.32,217.07 360.96,218.53 C359.81,219.24 357.71,215.19 358.36,213.50 C358.64,212.77 358.19,211.90 357.36,211.58 C354.94,210.66 350.00,210.91 350.00,211.95 C350.00,213.19 345.19,218.00 343.95,218.00 C342.84,218.00 342.69,223.03 343.77,224.51 C344.17,225.07 345.85,226.00 347.50,226.59 C349.15,227.17 350.39,228.16 350.26,228.79 C349.90,230.54 353.24,228.92 357.19,225.42 ZM 184.52 270.03 C184.19,269.50 184.70,267.58 185.66,265.78 C186.63,263.98 187.30,262.12 187.17,261.64 C187.04,261.17 187.37,260.26 187.91,259.61 C188.44,258.97 189.12,257.10 189.42,255.47 C189.72,253.84 190.69,251.97 191.58,251.32 C192.47,250.67 192.91,249.66 192.55,249.09 C191.70,247.71 193.72,244.00 195.32,244.00 C196.99,244.00 200.00,249.23 200.00,252.13 C200.00,253.41 201.17,257.52 202.60,261.25 C204.03,264.99 204.94,268.71 204.63,269.53 C204.19,270.68 202.01,271.00 194.59,271.00 C189.38,271.00 184.85,270.56 184.52,270.03 ZM 289.00 256.89 C289.00,256.15 286.60,255.91 281.75,256.14 L 274.50 256.50 L 274.22 242.87 C273.99,231.50 274.19,229.14 275.44,228.66 C276.27,228.34 277.66,228.81 278.54,229.69 C279.87,231.01 281.74,231.19 289.47,230.73 C298.62,230.18 298.84,230.22 301.39,232.88 C303.07,234.64 304.20,237.22 304.61,240.20 C305.24,244.80 305.23,244.84 298.87,251.40 C293.04,257.44 289.00,259.68 289.00,256.89 Z" fill="rgba(0,1,1,1)"/>
<path d="M 236.81 403.99 C236.16,395.09 234.16,392.93 224.41,390.63 C214.26,388.23 203.64,384.94 203.00,384.00 C202.73,383.59 199.57,381.80 196.00,380.02 C192.43,378.24 186.97,375.25 183.87,373.39 C175.82,368.54 172.24,368.76 166.15,374.46 L 161.39 378.91 L 147.51 365.01 L 133.64 351.11 L 137.71 346.70 C144.31,339.54 144.23,337.99 136.49,323.76 C132.82,317.02 129.42,310.83 128.93,310.00 C125.57,304.39 122.56,295.02 121.09,285.58 C119.96,278.41 116.81,276.00 108.55,276.00 C104.36,276.00 102.08,275.58 101.81,274.75 C101.59,274.06 101.59,265.35 101.80,255.38 L 102.19 237.27 L 108.28 236.63 C111.62,236.28 115.44,235.28 116.76,234.42 C119.63,232.54 122.33,226.60 121.50,224.00 C121.18,222.98 121.61,220.48 122.46,218.45 C123.31,216.42 124.03,214.02 124.06,213.13 C124.09,212.23 125.19,209.48 126.49,207.00 C127.79,204.52 129.59,200.93 130.48,199.00 C131.36,197.07 134.55,191.20 137.55,185.94 C140.55,180.67 143.00,175.40 143.00,174.22 C143.00,173.04 140.92,169.53 138.39,166.41 L 133.78 160.75 L 147.12 147.38 C154.47,140.02 160.95,134.00 161.54,134.00 C162.13,134.00 164.13,135.57 165.98,137.48 C167.84,139.40 170.82,141.45 172.62,142.04 C176.10,143.19 179.02,142.19 185.50,137.62 C187.15,136.45 188.73,135.46 189.00,135.42 C190.80,135.11 203.00,128.66 203.00,128.02 C203.00,127.23 208.72,125.60 222.80,122.38 C230.01,120.72 235.54,117.68 234.47,115.95 C234.17,115.46 234.61,113.72 235.46,112.08 C236.31,110.44 237.00,107.50 237.00,105.55 L 237.00 102.00 L 256.50 102.00 L 276.00 102.00 L 276.00 106.38 C276.00,111.85 278.30,117.49 281.33,119.48 C282.61,120.32 286.19,121.47 289.29,122.05 C297.45,123.55 315.52,130.94 326.80,137.38 C335.81,142.53 336.83,142.89 340.07,141.99 C342.01,141.46 345.12,139.44 346.99,137.51 C348.86,135.58 350.87,134.00 351.46,134.00 C352.05,134.00 358.57,140.05 365.95,147.45 L 379.37 160.90 L 374.68 165.91 C368.82,172.18 368.64,174.99 373.56,183.10 C378.16,190.67 387.71,210.93 388.96,215.75 C393.66,233.96 396.19,236.98 406.75,236.99 L 410.00 237.00 L 410.00 256.50 L 410.00 276.00 L 404.08 276.00 C395.91,276.00 392.84,278.61 390.63,287.44 C389.73,291.00 389.00,294.72 389.00,295.71 C389.00,298.13 379.04,319.64 373.93,328.24 C368.85,336.78 369.08,339.96 375.25,346.65 L 379.37 351.12 L 365.43 365.03 L 351.50 378.93 L 346.60 374.47 C340.03,368.48 337.38,368.53 326.68,374.79 C317.90,379.94 299.41,388.35 294.50,389.44 C292.85,389.80 289.32,390.51 286.66,391.00 C283.99,391.50 281.16,392.46 280.35,393.12 C278.02,395.06 276.00,400.87 276.00,405.62 L 276.00 410.00 L 256.62 410.00 L 237.24 410.00 L 236.81 403.99 ZM 170.00 308.07 C171.45,307.04 172.64,305.09 172.84,303.40 C173.03,301.81 173.62,300.24 174.16,299.90 C174.69,299.57 175.74,297.55 176.47,295.40 L 177.81 291.50 L 195.66 291.23 L 213.50 290.96 L 215.50 297.23 C217.71,304.19 221.72,309.46 225.52,310.42 C228.49,311.16 233.22,308.95 235.44,305.78 C237.19,303.29 237.54,297.45 236.00,296.50 C235.45,296.16 235.00,294.90 234.99,293.69 C234.99,292.49 234.36,290.29 233.59,288.82 C232.82,287.34 231.89,284.76 231.52,283.08 C231.15,281.40 230.43,279.77 229.92,279.45 C229.42,279.14 229.00,278.19 229.00,277.34 C229.00,276.50 228.37,274.38 227.59,272.65 C226.81,270.92 224.70,265.45 222.89,260.50 C221.09,255.55 218.80,250.38 217.82,249.00 C216.83,247.62 215.56,244.04 215.00,241.04 C214.43,238.03 213.53,235.13 212.99,234.59 C212.44,234.04 212.00,232.97 212.00,232.20 C212.00,231.43 211.38,229.38 210.62,227.65 C209.86,225.92 208.45,222.30 207.49,219.61 C206.17,215.95 205.01,214.45 202.86,213.64 C201.29,213.05 200.00,212.21 200.00,211.78 C200.00,210.41 193.42,210.94 190.14,212.58 C188.39,213.45 186.35,215.36 185.59,216.83 C184.30,219.33 158.41,286.89 155.47,295.42 C153.28,301.77 155.03,306.58 160.59,309.47 C163.78,311.12 166.19,310.76 170.00,308.07 ZM 275.01 306.27 C276.78,304.01 277.00,302.20 277.00,289.87 L 277.00 276.00 L 282.99 276.00 C288.52,276.00 292.21,275.40 302.36,272.83 C307.63,271.50 318.50,260.61 319.85,255.31 C322.80,243.76 323.01,241.54 321.65,235.85 C319.21,225.58 313.82,218.58 304.62,213.74 C301.00,211.83 298.53,211.52 284.21,211.18 C264.12,210.70 262.17,211.03 259.20,215.38 L 256.91 218.76 L 257.20 261.31 L 257.50 303.87 L 260.39 306.88 C261.98,308.54 264.23,310.05 265.39,310.24 C268.66,310.77 272.81,309.05 275.01,306.27 ZM 359.50 306.88 L 362.50 303.97 L 362.83 285.83 C363.21,265.11 362.80,261.71 359.48,258.39 C356.01,254.92 349.23,255.04 345.64,258.64 L 343.00 261.27 L 343.00 282.41 C343.00,305.77 343.27,306.91 349.38,309.55 C353.27,311.24 355.67,310.60 359.50,306.88 ZM 359.15 227.30 C362.43,224.23 363.23,220.48 361.49,216.33 C359.87,212.45 357.35,211.00 352.20,211.00 C341.58,211.00 339.42,225.24 349.38,229.55 C353.13,231.18 355.61,230.60 359.15,227.30 ZM 187.00 269.59 C187.00,266.66 194.78,246.98 195.92,247.02 C197.51,247.08 205.40,267.51 204.62,269.55 C203.82,271.63 187.00,271.67 187.00,269.59 ZM 277.67 255.33 C277.30,254.97 277.00,249.34 277.00,242.83 L 277.00 231.00 L 285.60 231.00 C295.83,231.00 299.20,232.54 301.49,238.27 C304.32,245.35 300.48,252.85 292.92,255.02 C289.05,256.13 278.68,256.34 277.67,255.33 Z" fill="rgba(120,177,254,1)"/>
</g>
</svg>