<svg xmlns="http://www.w3.org/2000/svg" width="512" height="512" viewBox="0 0 512 512">
<g>
<path d="M 24.00 502.69 C19.09,501.15 10.72,492.48 9.22,487.38 C7.45,481.40 7.45,30.60 9.22,24.62 C10.84,19.12 19.12,10.84 24.62,9.22 C27.73,8.30 53.02,8.00 128.19,8.00 C222.73,8.00 232.88,7.64 238.19,12.53 C239.22,13.47 240.06,14.61 241.30,15.99 C243.68,18.63 246.16,22.58 246.81,24.76 C248.56,30.59 248.53,481.48 246.78,487.38 C245.16,492.88 236.88,501.16 231.38,502.78 C225.79,504.44 29.26,504.35 24.00,502.69 ZM 280.00 502.69 C275.09,501.15 266.72,492.48 265.22,487.38 C263.45,481.40 263.45,30.60 265.22,24.62 C266.84,19.12 275.12,10.84 280.62,9.22 C283.73,8.30 309.02,8.00 384.19,8.00 C478.73,8.00 488.88,7.64 494.19,12.53 C495.22,13.47 496.06,14.61 497.30,15.99 C499.68,18.63 502.16,22.58 502.81,24.76 C504.56,30.59 504.53,481.48 502.78,487.38 C501.16,492.88 492.88,501.16 487.38,502.78 C481.79,504.44 285.26,504.35 280.00,502.69 ZM 282.10 486.10 C283.94,487.94 286.99,488.00 383.69,488.00 L 483.37 488.00 L 488.00 483.65 L 488.00 255.83 C488.00,30.99 487.97,27.97 486.04,26.04 C484.17,24.17 482.41,24.08 443.61,24.02 C415.91,23.98 402.93,24.30 402.48,25.03 C402.02,25.78 401.43,25.77 400.49,24.99 C398.41,23.27 283.55,24.05 281.80,25.80 C279.98,27.62 279.32,425.31 281.12,428.72 C282.03,430.42 282.03,431.26 281.11,432.37 C280.24,433.41 279.95,440.77 280.05,459.00 C280.18,482.33 280.33,484.33 282.10,486.10 ZM 26.10 486.10 C27.94,487.94 30.99,488.00 127.69,488.00 L 227.37 488.00 L 232.00 483.65 L 232.00 255.83 C232.00,30.99 231.97,27.97 230.04,26.04 C228.17,24.17 226.41,24.08 187.61,24.02 C159.91,23.98 146.93,24.30 146.48,25.03 C146.02,25.78 145.43,25.77 144.49,24.99 C142.41,23.27 27.55,24.05 25.80,25.80 C23.98,27.62 23.32,425.31 25.12,428.72 C26.03,430.42 26.03,431.26 25.11,432.37 C24.24,433.41 23.95,440.77 24.05,459.00 C24.18,482.33 24.33,484.33 26.10,486.10 ZM 148.22 392.04 C113.17,392.34 83.49,392.95 82.25,393.41 C80.86,393.92 80.00,393.85 80.00,393.23 C80.00,392.61 73.20,392.08 62.14,391.85 C48.92,391.58 43.86,391.13 42.63,390.11 C41.35,389.04 41.24,388.42 42.13,387.34 C43.02,386.27 42.89,385.21 41.56,382.72 C40.03,379.86 39.89,377.04 40.34,357.50 C40.62,345.40 40.90,334.54 40.95,333.36 C41.15,328.59 41.66,328.53 86.10,328.00 C117.40,327.63 128.21,327.19 129.14,326.26 C130.12,325.28 130.70,325.33 131.98,326.48 C133.30,327.68 140.01,327.99 170.54,328.28 C208.38,328.64 212.27,328.87 214.32,330.92 C215.17,331.77 215.50,339.90 215.50,360.01 C215.50,385.47 215.34,388.09 213.72,389.71 C212.05,391.38 207.63,391.54 148.22,392.04 ZM 404.22 392.04 C369.17,392.34 339.49,392.95 338.25,393.41 C336.86,393.92 336.00,393.85 336.00,393.23 C336.00,392.61 329.20,392.08 318.14,391.85 C304.92,391.58 299.86,391.13 298.63,390.11 C297.35,389.04 297.24,388.42 298.13,387.34 C299.02,386.27 298.89,385.21 297.56,382.72 C296.03,379.86 295.89,377.04 296.34,357.50 C296.62,345.40 296.90,334.54 296.95,333.36 C297.15,328.59 297.66,328.53 342.10,328.00 C373.40,327.63 384.21,327.19 385.14,326.26 C386.12,325.28 386.70,325.33 387.98,326.48 C389.30,327.68 396.01,327.99 426.54,328.28 C464.38,328.64 468.27,328.87 470.32,330.92 C471.17,331.77 471.50,339.90 471.50,360.01 C471.50,385.47 471.34,388.09 469.72,389.71 C468.05,391.38 463.63,391.54 404.22,392.04 ZM 431.72 312.06 C411.80,312.37 394.60,312.96 393.50,313.36 C392.40,313.77 391.05,313.65 390.50,313.11 C389.88,312.48 372.74,312.00 344.90,311.81 C308.75,311.56 299.99,311.24 298.64,310.12 C297.35,309.05 297.24,308.42 298.13,307.34 C299.02,306.27 298.89,305.21 297.56,302.72 C296.03,299.86 295.89,297.04 296.34,277.50 C296.62,265.40 296.90,254.54 296.95,253.36 C296.98,252.58 296.99,251.93 297.24,251.38 C298.53,248.48 306.25,248.45 357.40,248.00 C411.81,247.52 460.24,248.06 466.32,249.21 C467.87,249.50 469.67,250.27 470.32,250.92 C471.17,251.77 471.50,259.90 471.50,280.01 C471.50,305.47 471.34,308.09 469.72,309.71 C468.09,311.34 464.70,311.55 431.72,312.06 ZM 175.72 312.06 C155.80,312.37 138.60,312.96 137.50,313.36 C136.40,313.77 135.05,313.65 134.50,313.11 C133.88,312.48 116.74,312.00 88.90,311.81 C52.75,311.56 43.99,311.24 42.64,310.12 C41.35,309.05 41.24,308.42 42.13,307.34 C43.02,306.27 42.89,305.21 41.56,302.72 C40.03,299.86 39.89,297.04 40.34,277.50 C40.62,265.40 40.90,254.54 40.95,253.36 C40.98,252.58 40.99,251.93 41.24,251.38 C42.53,248.48 50.25,248.45 101.40,248.00 C155.81,247.52 204.24,248.06 210.32,249.21 C211.87,249.50 213.67,250.27 214.32,250.92 C215.17,251.77 215.50,259.90 215.50,280.01 C215.50,305.47 215.34,308.09 213.72,309.71 C212.09,311.34 208.70,311.55 175.72,312.06 ZM 213.71 469.71 C212.03,471.40 207.26,471.51 130.71,471.62 C86.05,471.68 48.30,471.54 46.82,471.31 C43.78,470.82 41.64,468.66 41.19,465.60 C40.28,459.46 39.62,423.92 40.35,420.50 C40.82,418.30 41.19,415.29 41.17,413.82 C41.15,412.34 41.71,410.66 42.40,410.08 C43.10,409.50 48.35,408.74 54.08,408.38 C59.81,408.02 65.22,407.36 66.10,406.91 C66.98,406.46 68.11,406.51 68.63,407.03 C69.18,407.58 97.66,408.09 138.53,408.28 C176.46,408.45 208.77,408.86 210.32,409.17 C211.87,409.48 213.67,410.27 214.32,410.92 C215.17,411.77 215.50,419.90 215.50,440.01 C215.50,465.48 215.34,468.09 213.71,469.71 ZM 469.71 469.71 C468.03,471.40 463.26,471.51 386.71,471.62 C342.05,471.68 304.30,471.54 302.82,471.31 C299.78,470.82 297.64,468.66 297.19,465.60 C296.28,459.46 295.62,423.92 296.35,420.50 C296.82,418.30 297.19,415.29 297.17,413.82 C297.15,412.34 297.71,410.66 298.40,410.08 C299.10,409.50 304.35,408.74 310.08,408.38 C315.81,408.02 321.22,407.36 322.10,406.91 C322.98,406.46 324.11,406.51 324.63,407.03 C325.18,407.58 353.66,408.09 394.53,408.28 C432.46,408.45 464.77,408.86 466.32,409.17 C467.87,409.48 469.67,410.27 470.32,410.92 C471.17,411.77 471.50,419.90 471.50,440.01 C471.50,465.48 471.34,468.09 469.71,469.71 ZM 196.26 231.73 C187.59,231.91 176.00,232.15 170.50,232.28 C165.00,232.40 134.36,232.27 102.40,232.00 C54.97,231.59 44.00,231.25 42.64,230.12 C41.35,229.05 41.24,228.42 42.13,227.34 C43.02,226.27 42.89,225.21 41.56,222.72 C40.03,219.86 39.89,217.04 40.34,197.50 C40.62,185.40 40.90,174.54 40.95,173.36 C40.98,172.61 40.95,171.98 41.16,171.45 C42.38,168.39 51.52,168.50 125.40,168.50 C170.01,168.50 208.00,168.78 209.83,169.13 C211.66,169.47 213.68,170.28 214.33,170.93 C215.17,171.77 215.50,180.01 215.50,200.01 C215.50,225.21 215.33,228.10 213.76,229.67 C212.28,231.15 209.62,231.46 196.26,231.73 ZM 452.26 231.73 C443.59,231.91 432.00,232.15 426.50,232.28 C421.00,232.40 390.36,232.27 358.40,232.00 C310.97,231.59 300.00,231.25 298.64,230.12 C297.35,229.05 297.24,228.42 298.13,227.34 C299.02,226.27 298.89,225.21 297.56,222.72 C296.03,219.86 295.89,217.04 296.34,197.50 C296.62,185.40 296.90,174.54 296.95,173.36 C296.98,172.61 296.95,171.98 297.16,171.45 C298.38,168.39 307.52,168.50 381.40,168.50 C426.01,168.50 464.00,168.78 465.83,169.13 C467.66,169.47 469.68,170.28 470.33,170.93 C471.17,171.77 471.50,180.01 471.50,200.01 C471.50,225.21 471.33,228.10 469.76,229.67 C468.28,231.15 465.62,231.46 452.26,231.73 ZM 56.00 184.00 L 56.00 216.00 L 200.00 216.00 L 200.00 184.00 L 56.00 184.00 ZM 312.00 184.00 L 312.00 216.00 L 456.00 216.00 L 456.00 184.00 L 312.00 184.00 ZM 56.00 264.00 L 56.00 296.00 L 200.00 296.00 L 200.00 264.00 L 56.00 264.00 ZM 312.00 264.00 L 312.00 296.00 L 456.00 296.00 L 456.00 264.00 L 312.00 264.00 ZM 56.00 344.00 L 56.00 376.00 L 200.00 376.00 L 200.00 344.00 L 56.00 344.00 ZM 312.00 344.00 L 312.00 376.00 L 456.00 376.00 L 456.00 344.00 L 312.00 344.00 ZM 56.00 424.00 L 56.00 456.00 L 200.00 456.00 L 200.00 424.00 L 56.00 424.00 ZM 312.00 424.00 L 312.00 456.00 L 456.00 456.00 L 456.00 424.00 L 312.00 424.00 ZM 216.00 104.00 L 216.00 119.93 L 190.75 120.22 C176.86,120.37 137.26,120.38 102.75,120.24 L 40.00 119.99 L 40.00 104.00 L 216.00 104.00 ZM 472.00 104.00 L 472.00 119.93 L 446.75 120.22 C432.86,120.37 393.26,120.38 358.75,120.24 L 296.00 119.99 L 296.00 104.00 L 472.00 104.00 ZM 216.00 72.00 L 216.00 88.00 L 40.00 88.00 L 40.00 72.00 L 216.00 72.00 ZM 472.00 72.00 L 472.00 88.00 L 296.00 88.00 L 296.00 72.00 L 472.00 72.00 ZM 424.00 40.00 L 424.00 55.84 L 416.98 56.17 C413.12,56.35 405.92,56.37 400.98,56.21 L 392.00 55.92 L 392.00 40.00 L 397.80 40.00 C400.99,40.00 404.14,39.46 404.80,38.80 C405.73,37.87 406.27,37.87 407.20,38.80 C407.93,39.53 411.47,40.00 416.20,40.00 L 424.00 40.00 ZM 168.00 40.00 L 168.00 55.84 L 160.98 56.17 C157.12,56.35 149.92,56.37 144.98,56.21 L 136.00 55.92 L 136.00 40.00 L 141.80 40.00 C144.99,40.00 148.14,39.46 148.80,38.80 C149.73,37.87 150.27,37.87 151.20,38.80 C151.93,39.53 155.47,40.00 160.20,40.00 L 168.00 40.00 ZM 72.00 40.00 L 72.00 56.00 L 40.00 56.00 L 40.00 40.00 L 72.00 40.00 ZM 120.00 40.00 L 120.00 56.00 L 88.00 56.00 L 88.00 40.00 L 120.00 40.00 ZM 328.00 40.00 L 328.00 56.00 L 296.00 56.00 L 296.00 40.00 L 328.00 40.00 ZM 376.00 40.00 L 376.00 56.00 L 344.00 56.00 L 344.00 40.00 L 376.00 40.00 ZM 200.00 40.00 L 200.00 56.00 L 184.00 56.00 L 184.00 40.00 L 200.00 40.00 ZM 456.00 40.00 L 456.00 56.00 L 440.00 56.00 L 440.00 40.00 L 456.00 40.00 Z" fill="rgba(0,0,0,1)"/>
<path d="M 41.56 228.68 C41.01,227.49 40.75,225.34 40.63,220.18 C40.85,221.23 41.16,221.97 41.56,222.72 C42.89,225.21 43.02,226.27 42.13,227.34 C41.70,227.86 41.51,228.27 41.56,228.68 ZM 297.56 308.68 C297.01,307.49 296.75,305.34 296.63,300.18 C296.85,301.23 297.16,301.97 297.56,302.72 C298.89,305.21 299.02,306.27 298.13,307.34 C297.70,307.86 297.51,308.27 297.56,308.68 ZM 297.56 228.68 C297.01,227.49 296.75,225.34 296.63,220.18 C296.85,221.23 297.16,221.97 297.56,222.72 C298.89,225.21 299.02,226.27 298.13,227.34 C297.70,227.86 297.51,228.27 297.56,228.68 ZM 41.56 308.68 C41.01,307.49 40.75,305.34 40.63,300.18 C40.85,301.23 41.16,301.97 41.56,302.72 C42.89,305.21 43.02,306.27 42.13,307.34 C41.70,307.86 41.51,308.27 41.56,308.68 ZM 41.56 388.68 C41.01,387.48 40.75,385.33 40.63,380.19 C40.86,381.23 41.16,381.98 41.56,382.72 C42.89,385.21 43.02,386.27 42.13,387.34 C41.70,387.86 41.51,388.27 41.56,388.68 ZM 297.56 388.68 C297.01,387.48 296.75,385.33 296.63,380.19 C296.86,381.23 297.16,381.98 297.56,382.72 C298.89,385.21 299.02,386.27 298.13,387.34 C297.70,387.86 297.51,388.27 297.56,388.68 ZM 83.98 248.16 C131.02,247.48 202.47,247.73 210.32,249.21 C204.24,248.06 155.81,247.52 101.40,248.00 C94.92,248.06 89.14,248.11 83.98,248.16 ZM 339.98 248.16 C387.02,247.48 458.47,247.73 466.32,249.21 C460.24,248.06 411.81,247.52 357.40,248.00 C350.92,248.06 345.14,248.11 339.98,248.16 ZM 298.13 170.43 C298.31,170.18 298.52,169.98 298.75,169.79 C299.28,169.35 302.62,169.05 311.29,168.85 C303.12,169.12 299.63,169.60 298.13,170.43 ZM 42.13 170.43 C42.31,170.18 42.52,169.98 42.75,169.79 C43.28,169.35 46.62,169.05 55.29,168.85 C47.12,169.12 43.63,169.60 42.13,170.43 ZM 154.96 232.31 C141.81,232.28 122.31,232.17 102.28,232.00 C60.77,231.64 48.62,231.47 44.46,230.66 C49.12,231.37 63.50,231.67 102.40,232.00 C122.37,232.17 141.83,232.28 154.96,232.31 ZM 410.96 232.31 C397.81,232.28 378.31,232.17 358.28,232.00 C316.77,231.64 304.62,231.47 300.46,230.66 C305.12,231.37 319.50,231.67 358.40,232.00 C378.37,232.17 397.83,232.28 410.96,232.31 ZM 133.34 312.86 C129.01,312.36 112.91,311.97 88.78,311.81 C57.13,311.59 47.66,311.45 44.21,310.65 C48.05,311.35 59.28,311.60 88.90,311.81 C112.95,311.97 129.02,312.36 133.34,312.86 ZM 389.33 312.86 C384.97,312.36 368.88,311.97 344.78,311.81 C313.13,311.59 303.66,311.45 300.21,310.65 C304.05,311.35 315.28,311.60 344.90,311.81 C368.92,311.97 384.98,312.36 389.33,312.86 ZM 42.24 330.29 C42.40,330.10 42.57,329.94 42.75,329.79 C43.28,329.35 45.55,329.03 50.69,328.77 C45.86,329.07 43.46,329.53 42.24,330.29 ZM 298.24 330.29 C298.40,330.10 298.57,329.94 298.75,329.79 C299.28,329.35 301.55,329.03 306.69,328.77 C301.86,329.07 299.46,329.53 298.24,330.29 ZM 298.18 250.37 C298.35,250.15 298.54,249.97 298.75,249.79 C298.98,249.60 300.29,249.42 302.49,249.25 C300.28,249.54 298.96,249.90 298.18,250.37 ZM 42.18 250.37 C42.35,250.15 42.54,249.97 42.75,249.79 C42.98,249.60 44.29,249.42 46.49,249.25 C44.28,249.54 42.96,249.90 42.18,250.37 ZM 62.02 391.85 C50.39,391.61 45.97,391.39 43.84,390.65 C46.17,391.29 51.49,391.63 62.02,391.85 ZM 318.01 391.85 C306.39,391.61 301.97,391.39 299.84,390.65 C302.17,391.29 307.49,391.63 318.01,391.85 ZM 296.65 344.61 C296.69,341.96 296.74,339.82 296.81,338.08 C296.77,339.88 296.71,342.10 296.65,344.61 ZM 296.65 264.61 C296.69,261.96 296.74,259.82 296.81,258.08 C296.77,259.88 296.71,262.10 296.65,264.61 ZM 296.65 184.61 C296.69,181.96 296.74,179.82 296.81,178.08 C296.77,179.88 296.71,182.10 296.65,184.61 ZM 40.65 344.60 C40.69,341.96 40.74,339.82 40.81,338.08 C40.77,339.88 40.71,342.10 40.65,344.60 ZM 40.65 264.60 C40.69,261.96 40.74,259.82 40.81,258.08 C40.77,259.88 40.71,262.10 40.65,264.60 ZM 40.65 184.60 C40.69,181.96 40.74,179.82 40.81,178.08 C40.77,179.88 40.71,182.10 40.65,184.60 Z" fill="rgba(1,1,1,1)"/>
<path d="M 282.10 486.10 C280.33,484.33 280.18,482.33 280.05,459.00 C279.95,440.77 280.24,433.41 281.11,432.37 C282.03,431.26 282.03,430.42 281.12,428.72 C281.11,428.69 281.10,428.66 281.09,428.60 C281.09,428.61 281.10,428.62 281.10,428.62 C282.67,430.51 283.24,430.41 289.91,427.05 C295.53,424.21 295.79,423.90 296.55,419.30 C296.98,416.66 297.24,413.78 297.13,412.90 C297.01,411.93 297.23,411.18 297.98,410.58 C297.50,411.36 297.16,412.65 297.17,413.82 C297.19,415.29 296.82,418.30 296.35,420.50 C295.62,423.92 296.28,459.46 297.19,465.60 C297.64,468.66 299.78,470.82 302.82,471.31 C304.30,471.54 342.05,471.68 386.71,471.62 C463.26,471.51 468.03,471.40 469.71,469.71 C471.34,468.09 471.50,465.48 471.50,440.01 C471.50,419.90 471.17,411.77 470.32,410.92 C469.67,410.27 467.87,409.48 466.32,409.17 C464.77,408.86 432.46,408.45 394.53,408.28 C353.66,408.09 325.18,407.58 324.63,407.03 C324.11,406.51 322.98,406.46 322.10,406.91 C322.02,406.95 321.92,406.99 321.78,407.03 C326.04,404.92 336.49,395.56 336.42,393.71 C336.81,393.81 337.44,393.71 338.25,393.41 C339.49,392.95 369.17,392.34 404.22,392.04 C463.63,391.54 468.05,391.38 469.72,389.71 C471.34,388.09 471.50,385.47 471.50,360.01 C471.50,339.90 471.17,331.77 470.32,330.92 C468.27,328.87 464.38,328.64 426.54,328.28 C396.01,327.99 389.30,327.68 387.98,326.48 C386.70,325.33 386.12,325.28 385.14,326.26 C385.04,326.36 384.83,326.46 384.48,326.55 C384.62,326.49 384.73,326.42 384.83,326.36 C387.94,324.34 392.25,315.09 390.89,313.37 C391.55,313.68 392.61,313.69 393.50,313.36 C394.60,312.96 411.80,312.37 431.72,312.06 C464.70,311.55 468.09,311.34 469.72,309.71 C471.34,308.09 471.50,305.47 471.50,280.01 C471.50,259.90 471.17,251.77 470.32,250.92 C469.67,250.27 467.87,249.50 466.32,249.21 C462.39,248.47 442.51,248.03 417.74,247.87 L 418.31 243.22 C418.63,240.62 419.20,237.05 419.57,235.28 L 420.18 232.32 C423.20,232.32 425.38,232.30 426.50,232.28 C432.00,232.15 443.59,231.91 452.26,231.73 C465.62,231.46 468.28,231.15 469.76,229.67 C471.33,228.10 471.50,225.21 471.50,200.01 C471.50,180.01 471.17,171.77 470.33,170.93 C469.68,170.28 467.66,169.47 465.83,169.13 C464.00,168.78 426.01,168.50 381.40,168.50 C316.67,168.50 299.99,168.76 298.75,169.79 C296.75,171.45 296.61,173.64 296.55,203.10 C296.61,173.66 296.75,171.45 298.75,169.79 C299.98,168.77 313.80,168.44 363.81,168.19 L 427.31 167.89 L 426.65 148.19 C425.99,128.72 425.40,121.62 424.16,120.33 C433.95,120.31 441.91,120.27 446.75,120.22 L 472.00 119.93 L 472.00 104.00 L 423.22 104.00 L 422.68 101.75 C422.39,100.51 421.84,96.91 421.46,93.75 L 420.77 88.00 L 472.00 88.00 L 472.00 72.00 L 356.50 72.00 C389.76,72.00 416.96,71.89 416.96,71.75 C415.86,65.22 412.98,56.47 411.90,56.37 C411.73,56.35 411.35,56.33 410.81,56.31 C413.18,56.29 415.37,56.24 416.98,56.17 L 424.00 55.84 L 424.00 40.00 L 416.20 40.00 C411.47,40.00 407.93,39.53 407.20,38.80 C406.27,37.87 405.73,37.87 404.80,38.80 C404.66,38.94 404.40,39.08 404.04,39.21 C404.34,39.02 404.52,38.80 404.62,38.54 C405.23,36.96 402.40,27.33 400.70,25.19 C400.09,24.43 381.20,24.06 358.65,24.03 C380.97,24.01 399.66,24.30 400.49,24.99 C401.43,25.77 402.02,25.78 402.48,25.03 C402.93,24.30 415.91,23.98 443.61,24.02 C482.41,24.08 484.17,24.17 486.04,26.04 C487.97,27.97 488.00,30.99 488.00,255.83 L 488.00 483.65 L 483.37 488.00 L 383.69 488.00 C286.99,488.00 283.94,487.94 282.10,486.10 ZM 26.10 486.10 C24.33,484.33 24.18,482.33 24.05,459.00 C23.95,440.77 24.24,433.41 25.11,432.37 C26.03,431.26 26.03,430.42 25.12,428.72 C25.11,428.69 25.10,428.66 25.09,428.60 C25.09,428.61 25.10,428.62 25.10,428.62 C26.67,430.51 27.24,430.41 33.91,427.05 C39.53,424.21 39.79,423.90 40.55,419.30 C40.98,416.66 41.24,413.78 41.13,412.90 C41.01,411.93 41.23,411.18 41.98,410.58 C41.50,411.36 41.16,412.65 41.17,413.82 C41.19,415.29 40.82,418.30 40.35,420.50 C39.62,423.92 40.28,459.46 41.19,465.60 C41.64,468.66 43.78,470.82 46.82,471.31 C48.30,471.54 86.05,471.68 130.71,471.62 C207.26,471.51 212.03,471.40 213.71,469.71 C215.34,468.09 215.50,465.48 215.50,440.01 C215.50,419.90 215.17,411.77 214.32,410.92 C213.67,410.27 211.87,409.48 210.32,409.17 C208.77,408.86 176.46,408.45 138.53,408.28 C97.66,408.09 69.18,407.58 68.63,407.03 C68.11,406.51 66.98,406.46 66.10,406.91 C66.02,406.95 65.92,406.99 65.78,407.03 C70.04,404.92 80.49,395.56 80.42,393.71 C80.81,393.81 81.44,393.71 82.25,393.41 C83.49,392.95 113.17,392.34 148.22,392.04 C207.63,391.54 212.05,391.38 213.72,389.71 C215.34,388.09 215.50,385.47 215.50,360.01 C215.50,339.90 215.17,331.77 214.32,330.92 C212.27,328.87 208.38,328.64 170.54,328.28 C140.01,327.99 133.30,327.68 131.98,326.48 C130.70,325.33 130.12,325.28 129.14,326.26 C129.04,326.36 128.83,326.46 128.48,326.55 C128.62,326.49 128.73,326.42 128.83,326.36 C131.94,324.34 136.25,315.09 134.89,313.37 C135.55,313.68 136.61,313.69 137.50,313.36 C138.60,312.96 155.80,312.37 175.72,312.06 C208.70,311.55 212.09,311.34 213.72,309.71 C215.34,308.09 215.50,305.47 215.50,280.01 C215.50,259.90 215.17,251.77 214.32,250.92 C213.67,250.27 211.87,249.50 210.32,249.21 C206.39,248.47 186.51,248.03 161.74,247.87 L 162.31 243.22 C162.63,240.62 163.20,237.05 163.57,235.28 L 164.18 232.32 C167.20,232.32 169.38,232.30 170.50,232.28 C176.00,232.15 187.59,231.91 196.26,231.73 C209.62,231.46 212.28,231.15 213.76,229.67 C215.33,228.10 215.50,225.21 215.50,200.01 C215.50,180.01 215.17,171.77 214.33,170.93 C213.68,170.28 211.66,169.47 209.83,169.13 C208.00,168.78 170.01,168.50 125.40,168.50 C60.67,168.50 43.99,168.76 42.75,169.79 C40.75,171.45 40.61,173.65 40.55,203.22 C40.55,203.52 40.55,203.82 40.55,204.11 C40.55,203.78 40.55,203.44 40.55,203.10 C40.61,173.66 40.75,171.45 42.75,169.79 C43.98,168.77 57.80,168.44 107.81,168.19 L 171.31 167.89 L 170.65 148.19 C169.99,128.72 169.40,121.62 168.16,120.33 C177.95,120.31 185.91,120.27 190.75,120.22 L 216.00 119.93 L 216.00 104.00 L 167.22 104.00 L 166.68 101.75 C166.39,100.51 165.84,96.91 165.46,93.75 L 164.77 88.00 L 216.00 88.00 L 216.00 72.00 L 100.50 72.00 C133.76,72.00 160.96,71.89 160.96,71.75 C159.86,65.22 156.98,56.47 155.90,56.37 C155.73,56.35 155.35,56.33 154.81,56.31 C157.18,56.29 159.37,56.24 160.98,56.17 L 168.00 55.84 L 168.00 40.00 L 160.20 40.00 C155.47,40.00 151.93,39.53 151.20,38.80 C150.27,37.87 149.73,37.87 148.80,38.80 C148.66,38.94 148.40,39.08 148.04,39.21 C148.34,39.02 148.52,38.80 148.62,38.54 C149.23,36.96 146.40,27.33 144.70,25.19 C144.09,24.43 125.20,24.06 102.65,24.03 C124.97,24.01 143.66,24.30 144.49,24.99 C145.43,25.77 146.02,25.78 146.48,25.03 C146.93,24.30 159.91,23.98 187.61,24.02 C226.41,24.08 228.17,24.17 230.04,26.04 C231.97,27.97 232.00,30.99 232.00,255.83 L 232.00 483.65 L 227.37 488.00 L 127.69 488.00 C30.99,488.00 27.94,487.94 26.10,486.10 ZM 200.00 40.00 L 184.00 40.00 L 184.00 56.00 L 200.00 56.00 L 200.00 40.00 ZM 456.00 40.00 L 440.00 40.00 L 440.00 56.00 L 456.00 56.00 L 456.00 40.00 ZM 299.87 249.51 C304.01,248.40 316.27,248.08 352.96,248.00 C326.76,248.26 305.00,248.78 299.87,249.51 ZM 43.87 249.51 C48.01,248.40 60.27,248.08 96.96,248.00 C70.76,248.26 49.00,248.78 43.87,249.51 ZM 103.56 232.01 C74.64,231.96 49.90,231.67 47.54,231.35 C46.53,231.21 45.51,230.97 44.60,230.68 C48.89,231.47 61.22,231.65 102.28,232.00 C102.71,232.00 103.13,232.01 103.56,232.01 ZM 359.56 232.01 C330.64,231.96 305.90,231.67 303.54,231.35 C302.53,231.21 301.51,230.97 300.60,230.68 C304.89,231.47 317.22,231.65 358.28,232.00 C358.71,232.00 359.13,232.01 359.56,232.01 ZM 24.15 349.42 C23.78,232.42 24.49,27.11 25.80,25.80 C24.52,27.08 23.80,232.45 24.15,349.42 ZM 280.15 349.40 C279.78,232.39 280.49,27.11 281.80,25.80 C280.52,27.08 279.80,232.42 280.15,349.40 ZM 40.72 261.01 C40.92,252.68 41.34,251.00 42.31,250.20 C41.33,251.29 40.91,253.24 40.72,261.01 ZM 296.72 261.00 C296.92,252.68 297.34,251.00 298.31,250.20 C297.33,251.29 296.91,253.24 296.72,261.00 ZM 139.84 56.05 L 136.00 56.00 L 136.00 55.92 L 139.84 56.05 ZM 395.84 56.05 L 392.00 56.00 L 392.00 55.92 L 395.84 56.05 ZM 42.12 229.54 C41.97,229.43 41.85,229.32 41.76,229.21 C41.58,229.00 41.42,228.58 41.29,227.93 C41.50,228.69 41.77,229.15 42.12,229.54 ZM 298.12 229.54 C297.97,229.43 297.85,229.32 297.76,229.21 C297.58,229.00 297.42,228.58 297.29,227.93 C297.50,228.69 297.77,229.15 298.12,229.54 ZM 134.57 313.17 C134.18,313.02 133.48,312.89 132.39,312.77 C133.66,312.87 134.38,312.99 134.50,313.11 C134.52,313.13 134.54,313.15 134.57,313.17 ZM 390.57 313.17 C390.18,313.02 389.48,312.89 388.39,312.77 C389.66,312.87 390.38,312.99 390.50,313.11 C390.52,313.13 390.54,313.15 390.57,313.17 ZM 46.69 120.01 L 40.00 120.00 L 40.00 119.99 L 46.69 120.01 ZM 302.69 120.01 L 296.00 120.00 L 296.00 119.99 L 302.69 120.01 ZM 335.98 393.18 C335.76,393.05 335.45,392.94 335.02,392.83 C335.58,392.94 335.91,393.06 335.98,393.18 ZM 79.98 393.18 C79.76,393.05 79.45,392.94 79.02,392.83 C79.58,392.94 79.91,393.06 79.98,393.18 ZM 46.58 409.12 C47.23,409.02 47.96,408.92 48.77,408.84 C47.99,408.93 47.25,409.02 46.58,409.12 ZM 302.58 409.12 C303.23,409.02 303.96,408.92 304.77,408.84 C303.99,408.93 303.25,409.02 302.58,409.12 ZM 42.75 329.79 C43.05,329.54 43.88,329.33 45.46,329.15 C43.88,329.34 43.05,329.55 42.75,329.79 ZM 298.75 329.79 C299.05,329.54 299.88,329.33 301.46,329.15 C299.88,329.34 299.05,329.55 298.75,329.79 Z" fill="rgba(160,204,250,1)"/>
<path d="M 167.49 148.75 C168.10,163.29 168.46,167.26 169.46,167.90 L 107.81 168.19 C57.80,168.44 43.98,168.77 42.75,169.79 C43.97,168.78 57.20,168.43 104.55,168.19 L 164.79 167.89 L 165.28 164.69 C165.86,160.97 164.20,122.14 163.41,120.86 C163.24,120.57 152.89,120.32 137.23,120.16 C155.09,120.17 167.22,120.15 167.62,120.11 C168.06,120.05 168.43,120.47 168.75,121.56 C168.43,120.50 168.06,120.15 167.61,120.30 C166.36,120.73 166.36,121.91 167.49,148.75 ZM 423.49 148.75 C424.10,163.29 424.46,167.26 425.46,167.90 L 363.81 168.19 C313.80,168.44 299.98,168.77 298.75,169.79 C299.97,168.78 313.20,168.43 360.55,168.19 L 420.79 167.89 L 421.28 164.69 C421.86,160.97 420.20,122.14 419.41,120.86 C419.24,120.57 408.89,120.32 393.23,120.16 C411.09,120.17 423.22,120.15 423.62,120.11 C424.06,120.05 424.43,120.47 424.75,121.56 C424.43,120.50 424.06,120.15 423.61,120.30 C422.36,120.73 422.36,121.91 423.49,148.75 ZM 77.98 392.63 C79.55,392.87 80.24,393.18 80.40,393.60 C81.04,395.26 68.03,406.75 64.75,407.42 C63.51,407.67 58.24,408.15 53.04,408.49 C46.81,408.89 43.51,409.44 42.05,410.53 C42.10,410.46 42.14,410.39 42.18,410.34 C42.69,409.70 46.99,408.85 51.75,408.45 L 60.40 407.73 L 69.26 400.12 L 77.98 392.63 ZM 333.98 392.63 C335.55,392.87 336.24,393.18 336.40,393.60 C337.04,395.26 324.03,406.75 320.74,407.42 C319.51,407.67 314.24,408.15 309.04,408.49 C302.81,408.89 299.51,409.44 298.05,410.53 C298.10,410.46 298.14,410.39 298.18,410.34 C298.69,409.70 302.99,408.85 307.75,408.45 L 316.40 407.73 L 325.26 400.12 L 333.98 392.63 ZM 25.10 428.62 C25.04,428.55 24.98,427.97 24.92,426.93 C27.56,426.21 39.83,420.08 40.43,419.12 C40.51,418.99 40.58,418.80 40.66,418.58 C40.62,418.82 40.58,419.06 40.55,419.30 C39.79,423.90 39.53,424.21 33.91,427.05 C27.24,430.41 26.67,430.51 25.10,428.62 ZM 281.10 428.62 C281.04,428.55 280.98,427.97 280.92,426.93 C283.56,426.21 295.83,420.08 296.43,419.12 C296.51,418.99 296.58,418.80 296.66,418.58 C296.62,418.82 296.58,419.06 296.55,419.30 C295.79,423.90 295.53,424.21 289.91,427.05 C283.24,430.41 282.67,430.51 281.10,428.62 ZM 158.80 247.46 C159.02,247.68 159.23,247.84 159.43,247.94 L 108.16 247.98 C105.60,247.99 103.14,247.99 100.77,247.99 L 155.49 247.50 L 156.65 242.50 C157.29,239.75 157.85,236.28 157.90,234.80 L 158.00 232.09 L 150.24 232.05 L 162.66 232.06 C162.47,232.17 162.26,232.34 162.02,232.58 C160.86,233.74 158.05,246.71 158.80,247.46 ZM 414.80 247.46 C415.02,247.68 415.23,247.84 415.43,247.94 L 364.16 247.98 C361.60,247.99 359.14,247.99 356.77,247.99 L 411.49 247.50 L 412.65 242.50 C413.29,239.75 413.85,236.28 413.90,234.80 L 414.00 232.09 L 406.24 232.05 L 418.66 232.06 C418.47,232.17 418.26,232.34 418.02,232.58 C416.86,233.74 414.05,246.71 414.80,247.46 ZM 396.87 24.68 C399.18,24.83 400.54,25.00 400.70,25.19 C402.40,27.33 405.23,36.96 404.62,38.54 C404.22,39.60 402.40,40.00 398.03,40.00 L 397.11 40.00 C400.76,40.00 402.09,39.64 401.77,38.75 C401.53,38.06 400.26,34.44 398.96,30.69 L 396.87 24.68 ZM 140.87 24.68 C143.18,24.83 144.54,25.00 144.70,25.19 C146.40,27.33 149.23,36.96 148.62,38.54 C148.22,39.60 146.40,40.00 142.03,40.00 L 141.11 40.00 C144.76,40.00 146.09,39.64 145.77,38.75 C145.53,38.06 144.26,34.44 142.96,30.69 L 140.87 24.68 ZM 419.64 101.71 C419.96,102.97 420.89,104.00 421.72,104.00 C422.76,104.00 423.06,103.32 422.68,101.75 L 423.22 104.00 L 421.72 104.00 L 359.61 104.00 C412.50,103.99 417.00,103.84 417.00,102.33 C417.00,101.41 416.50,97.81 415.90,94.33 L 414.79 88.00 L 420.77 88.00 L 421.46 93.75 C420.96,89.57 420.35,88.00 419.25,88.00 C417.98,88.00 417.84,88.97 418.40,93.71 C418.76,96.85 419.33,100.45 419.64,101.71 ZM 163.64 101.71 C163.96,102.97 164.89,104.00 165.72,104.00 C166.76,104.00 167.06,103.32 166.68,101.75 L 167.22 104.00 L 165.72 104.00 L 103.61 104.00 C156.50,103.99 161.00,103.84 161.00,102.33 C161.00,101.41 160.50,97.81 159.90,94.33 L 158.79 88.00 L 164.77 88.00 L 165.46 93.75 C164.96,89.57 164.35,88.00 163.25,88.00 C161.98,88.00 161.84,88.97 162.40,93.71 C162.76,96.85 163.33,100.45 163.64,101.71 ZM 157.56 70.75 C157.70,71.20 158.13,71.60 158.67,71.82 C151.47,71.92 128.07,72.00 100.50,72.00 L 97.50 72.00 C142.84,72.00 155.00,71.74 155.00,70.75 C154.99,70.06 154.17,66.57 153.16,63.00 L 151.32 56.50 L 143.66 56.21 L 139.28 56.04 L 145.25 56.12 C149.56,56.17 153.66,56.26 155.28,56.33 C155.25,56.34 155.22,56.36 155.20,56.38 C154.37,56.89 155.56,64.13 157.56,70.75 ZM 413.56 70.75 C413.70,71.20 414.13,71.60 414.67,71.82 C407.47,71.92 384.07,72.00 356.50,72.00 C399.37,71.99 411.00,71.71 411.00,70.75 C410.99,70.06 410.17,66.57 409.16,63.00 L 407.32 56.50 L 399.66 56.21 L 395.28 56.04 L 401.25 56.12 C405.56,56.17 409.66,56.26 411.28,56.33 C411.25,56.34 411.22,56.36 411.20,56.38 C410.37,56.89 411.56,64.13 413.56,70.75 ZM 280.23 227.05 C280.16,279.89 280.16,328.11 280.21,363.96 C279.96,303.47 280.05,211.82 280.39,139.18 C280.33,163.36 280.28,192.36 280.23,227.05 ZM 24.23 227.05 C24.16,279.89 24.16,328.11 24.21,363.95 C23.96,303.47 24.05,211.82 24.39,139.18 C24.33,163.36 24.28,192.36 24.23,227.05 ZM 309.37 24.43 C326.18,24.10 347.82,23.96 365.82,24.05 L 339.84 24.19 C327.27,24.26 317.27,24.33 309.37,24.43 ZM 53.37 24.43 C70.18,24.10 91.82,23.96 109.82,24.05 L 83.84 24.19 C71.27,24.26 61.27,24.33 53.37,24.43 ZM 49.13 391.42 C51.96,391.61 56.01,391.72 61.96,391.85 C69.15,392.00 73.70,392.17 76.49,392.45 L 61.06 391.96 C55.63,391.79 51.83,391.63 49.13,391.42 ZM 305.13 391.42 C307.96,391.61 312.01,391.72 317.96,391.85 C325.15,392.00 329.70,392.17 332.49,392.45 L 317.06 391.96 C311.63,391.79 307.83,391.63 305.13,391.42 ZM 170.65 148.25 L 171.31 167.89 L 170.19 167.90 C171.14,167.28 171.17,163.61 170.65,148.25 ZM 426.65 148.25 L 427.31 167.89 L 426.19 167.90 C427.14,167.28 427.17,163.61 426.65,148.25 ZM 162.44 242.25 C162.39,242.58 162.35,242.91 162.31,243.22 L 161.73 247.94 L 160.29 247.94 C161.11,247.49 161.80,245.65 162.44,242.25 ZM 418.44 242.25 C418.39,242.58 418.35,242.91 418.31,243.22 L 417.73 247.94 L 416.29 247.94 C417.11,247.49 417.80,245.65 418.44,242.25 ZM 419.25 232.06 L 420.24 232.06 L 419.57 235.28 C419.48,235.68 419.39,236.18 419.29,236.73 C419.64,233.92 419.64,232.45 419.25,232.06 ZM 163.25 232.06 L 164.24 232.06 L 163.57 235.28 C163.48,235.68 163.39,236.18 163.29,236.73 C163.64,233.92 163.64,232.45 163.25,232.06 ZM 158.88 63.10 C159.71,65.83 160.49,68.99 160.96,71.75 C160.96,71.76 160.77,71.77 160.41,71.78 C160.76,71.56 160.90,71.18 160.73,70.75 C160.47,70.06 159.68,66.80 158.97,63.50 C158.94,63.36 158.91,63.23 158.88,63.10 ZM 414.88 63.10 C415.71,65.83 416.49,68.99 416.96,71.75 C416.96,71.76 416.77,71.77 416.41,71.78 C416.76,71.56 416.90,71.18 416.73,70.75 C416.47,70.06 415.68,66.80 414.97,63.50 C414.94,63.36 414.91,63.23 414.88,63.10 ZM 296.55 204.11 C296.53,218.30 296.73,225.20 297.29,227.93 C296.61,225.48 296.52,219.97 296.55,204.11 ZM 40.55 204.11 C40.53,218.30 40.73,225.20 41.29,227.93 C40.61,225.48 40.52,219.97 40.55,204.11 ZM 42.12 229.54 C42.66,229.94 43.57,230.35 44.64,230.69 C43.25,230.44 42.69,230.13 42.28,229.72 C42.23,229.66 42.17,229.60 42.12,229.54 ZM 298.12 229.54 C298.66,229.94 299.57,230.35 300.64,230.69 C299.25,230.44 298.69,230.13 298.28,229.72 C298.23,229.66 298.17,229.60 298.12,229.54 ZM 45.20 249.23 C43.68,249.49 42.83,249.80 42.35,250.18 C42.34,250.19 42.33,250.19 42.31,250.20 C42.45,250.05 42.60,249.92 42.75,249.79 C43.01,249.58 43.76,249.39 45.20,249.23 ZM 301.20 249.23 C299.68,249.49 298.83,249.80 298.35,250.18 C298.34,250.19 298.33,250.19 298.31,250.20 C298.45,250.05 298.60,249.92 298.75,249.79 C299.01,249.58 299.76,249.39 301.20,249.23 ZM 296.72 261.00 C296.61,265.82 296.57,272.85 296.55,283.22 C296.57,272.81 296.60,265.80 296.72,261.00 ZM 40.72 261.01 C40.61,265.82 40.57,272.85 40.55,283.22 C40.57,272.82 40.60,265.80 40.72,261.01 Z" fill="rgba(197,224,251,1)"/>
<path d="M 423.49 148.75 C422.36,121.91 422.36,120.73 423.61,120.30 C425.23,119.75 425.90,125.89 426.65,148.25 C427.23,165.49 427.12,168.00 425.81,168.00 C424.54,168.00 424.17,164.89 423.49,148.75 ZM 167.49 148.75 C166.36,121.91 166.36,120.73 167.61,120.30 C169.23,119.75 169.90,125.89 170.65,148.25 C171.23,165.49 171.12,168.00 169.81,168.00 C168.54,168.00 168.17,164.89 167.49,148.75 ZM 413.56 70.75 C411.56,64.13 410.37,56.89 411.20,56.38 C412.73,55.43 413.58,57.04 414.97,63.50 C415.68,66.80 416.47,70.06 416.73,70.75 C417.00,71.44 416.48,72.00 415.58,72.00 C414.67,72.00 413.77,71.44 413.56,70.75 ZM 157.56 70.75 C155.56,64.13 154.37,56.89 155.20,56.38 C156.73,55.43 157.58,57.04 158.97,63.50 C159.68,66.80 160.47,70.06 160.73,70.75 C161.00,71.44 160.48,72.00 159.58,72.00 C158.67,72.00 157.77,71.44 157.56,70.75 ZM 163.64 101.71 C163.33,100.45 162.76,96.85 162.40,93.71 C161.84,88.97 161.98,88.00 163.25,88.00 C164.35,88.00 164.96,89.57 165.46,93.75 C165.84,96.91 166.39,100.51 166.68,101.75 C167.06,103.32 166.76,104.00 165.72,104.00 C164.89,104.00 163.96,102.97 163.64,101.71 ZM 419.64 101.71 C419.33,100.45 418.76,96.85 418.40,93.71 C417.84,88.97 417.98,88.00 419.25,88.00 C420.35,88.00 420.96,89.57 421.46,93.75 C421.84,96.91 422.39,100.51 422.68,101.75 C423.06,103.32 422.76,104.00 421.72,104.00 C420.89,104.00 419.96,102.97 419.64,101.71 ZM 158.80 247.46 C158.05,246.71 160.86,233.74 162.02,232.58 C163.81,230.79 163.99,232.67 162.77,240.33 C161.69,247.13 160.53,249.20 158.80,247.46 ZM 414.80 247.46 C414.05,246.71 416.86,233.74 418.02,232.58 C419.81,230.79 419.99,232.67 418.77,240.33 C417.69,247.13 416.53,249.20 414.80,247.46 Z" fill="rgba(166,207,251,1)"/>
<path d="M 280.23 227.05 C280.45,64.66 280.74,26.86 281.80,25.80 C282.83,24.77 294.95,24.44 339.84,24.19 L 396.59 23.88 L 398.96 30.69 C400.26,34.44 401.53,38.06 401.77,38.75 C402.09,39.64 400.76,40.00 397.11,40.00 L 392.00 40.00 L 392.00 55.92 L 399.66 56.21 L 407.32 56.50 L 409.16 63.00 C410.17,66.57 410.99,70.06 411.00,70.75 C411.00,71.74 398.84,72.00 353.50,72.00 L 296.00 72.00 L 296.00 88.00 L 414.79 88.00 L 415.90 94.33 C416.50,97.81 417.00,101.41 417.00,102.33 C417.00,103.87 412.32,104.00 356.50,104.00 L 296.00 104.00 L 296.00 120.00 L 357.44 120.00 C391.23,120.00 419.12,120.39 419.41,120.86 C420.20,122.14 421.86,160.97 421.28,164.69 L 420.79 167.89 L 360.55 168.19 C313.20,168.43 299.97,168.78 298.75,169.79 C296.75,171.45 296.61,173.65 296.55,203.22 C296.50,225.64 296.67,228.10 298.28,229.72 C299.95,231.38 303.93,231.52 357.03,231.80 L 414.00 232.09 L 413.90 234.80 C413.85,236.28 413.29,239.75 412.65,242.50 L 411.49 247.50 L 355.90 248.00 C312.58,248.39 299.96,248.78 298.75,249.79 C296.75,251.45 296.61,253.65 296.55,283.22 C296.50,305.64 296.67,308.10 298.28,309.72 C299.93,311.37 303.45,311.52 344.96,311.81 C379.20,312.04 390.09,312.41 390.88,313.36 C392.28,315.04 387.95,324.34 384.83,326.36 C382.87,327.63 375.97,327.92 341.40,328.18 C309.70,328.43 299.95,328.79 298.75,329.79 C296.75,331.45 296.61,333.65 296.55,363.22 C296.50,385.43 296.68,388.11 298.24,389.67 C299.72,391.15 302.63,391.50 317.06,391.96 L 334.13 392.50 L 316.40 407.73 L 307.75 408.45 C302.99,408.85 298.69,409.70 298.18,410.34 C297.68,410.98 297.23,412.96 297.20,414.74 C297.16,416.52 296.82,418.49 296.43,419.12 C295.79,420.14 281.98,427.00 280.55,427.00 C280.22,427.00 280.08,337.02 280.23,227.05 ZM 24.23 227.05 C24.45,64.66 24.74,26.86 25.80,25.80 C26.83,24.77 38.95,24.44 83.84,24.19 L 140.59 23.88 L 142.96 30.69 C144.26,34.44 145.53,38.06 145.77,38.75 C146.09,39.64 144.76,40.00 141.11,40.00 L 136.00 40.00 L 136.00 55.92 L 143.66 56.21 L 151.32 56.50 L 153.16 63.00 C154.17,66.57 154.99,70.06 155.00,70.75 C155.00,71.74 142.84,72.00 97.50,72.00 L 40.00 72.00 L 40.00 88.00 L 158.79 88.00 L 159.90 94.33 C160.50,97.81 161.00,101.41 161.00,102.33 C161.00,103.87 156.32,104.00 100.50,104.00 L 40.00 104.00 L 40.00 120.00 L 101.44 120.00 C135.23,120.00 163.12,120.39 163.41,120.86 C164.20,122.14 165.86,160.97 165.28,164.69 L 164.79 167.89 L 104.55 168.19 C57.20,168.43 43.97,168.78 42.75,169.79 C40.75,171.45 40.61,173.65 40.55,203.22 C40.50,225.64 40.67,228.10 42.28,229.72 C43.95,231.38 47.93,231.52 101.03,231.80 L 158.00 232.09 L 157.90 234.80 C157.85,236.28 157.29,239.75 156.65,242.50 L 155.49 247.50 L 99.90 248.00 C56.58,248.39 43.96,248.78 42.75,249.79 C40.75,251.45 40.61,253.65 40.55,283.22 C40.50,305.64 40.67,308.10 42.28,309.72 C43.93,311.37 47.45,311.52 88.96,311.81 C123.20,312.04 134.09,312.41 134.88,313.36 C136.28,315.04 131.95,324.34 128.83,326.36 C126.87,327.63 119.97,327.92 85.40,328.18 C53.70,328.43 43.95,328.79 42.75,329.79 C40.75,331.45 40.61,333.65 40.55,363.22 C40.50,385.43 40.68,388.11 42.24,389.67 C43.72,391.15 46.63,391.50 61.06,391.96 L 78.13 392.50 L 60.40 407.73 L 51.75 408.45 C46.99,408.85 42.69,409.70 42.18,410.34 C41.68,410.98 41.23,412.96 41.20,414.74 C41.16,416.52 40.82,418.49 40.43,419.12 C39.79,420.14 25.98,427.00 24.55,427.00 C24.22,427.00 24.08,337.02 24.23,227.05 ZM 72.00 40.00 L 40.00 40.00 L 40.00 56.00 L 72.00 56.00 L 72.00 40.00 ZM 120.00 40.00 L 88.00 40.00 L 88.00 56.00 L 120.00 56.00 L 120.00 40.00 ZM 328.00 40.00 L 296.00 40.00 L 296.00 56.00 L 328.00 56.00 L 328.00 40.00 ZM 376.00 40.00 L 344.00 40.00 L 344.00 56.00 L 376.00 56.00 L 376.00 40.00 Z" fill="rgba(198,225,251,1)"/>
<path d="M 56.00 440.00 L 56.00 424.00 L 128.00 424.00 L 200.00 424.00 L 200.00 440.00 L 200.00 456.00 L 128.00 456.00 L 56.00 456.00 L 56.00 440.00 ZM 312.00 440.00 L 312.00 424.00 L 384.00 424.00 L 456.00 424.00 L 456.00 440.00 L 456.00 456.00 L 384.00 456.00 L 312.00 456.00 L 312.00 440.00 ZM 56.00 360.00 L 56.00 344.00 L 128.00 344.00 L 200.00 344.00 L 200.00 360.00 L 200.00 376.00 L 128.00 376.00 L 56.00 376.00 L 56.00 360.00 ZM 312.00 360.00 L 312.00 344.00 L 384.00 344.00 L 456.00 344.00 L 456.00 360.00 L 456.00 376.00 L 384.00 376.00 L 312.00 376.00 L 312.00 360.00 ZM 56.00 280.00 L 56.00 264.00 L 128.00 264.00 L 200.00 264.00 L 200.00 280.00 L 200.00 296.00 L 128.00 296.00 L 56.00 296.00 L 56.00 280.00 ZM 312.00 280.00 L 312.00 264.00 L 384.00 264.00 L 456.00 264.00 L 456.00 280.00 L 456.00 296.00 L 384.00 296.00 L 312.00 296.00 L 312.00 280.00 ZM 56.00 200.00 L 56.00 184.00 L 128.00 184.00 L 200.00 184.00 L 200.00 200.00 L 200.00 216.00 L 128.00 216.00 L 56.00 216.00 L 56.00 200.00 ZM 312.00 200.00 L 312.00 184.00 L 384.00 184.00 L 456.00 184.00 L 456.00 200.00 L 456.00 216.00 L 384.00 216.00 L 312.00 216.00 L 312.00 200.00 Z" fill="rgba(255,255,255,1)"/>
</g>
</svg>