<svg xmlns="http://www.w3.org/2000/svg" width="512" height="512" viewBox="0 0 512 512">
<g>
<path d="M 481.00 75.00 L 481.00 100.00 L 126.00 100.00 L 126.00 75.00 L 481.00 75.00 ZM 404.00 113.00 L 404.00 168.00 L 310.00 168.00 L 310.00 113.00 L 404.00 113.00 ZM 404.00 248.00 L 404.00 303.00 L 310.00 303.00 L 310.00 248.00 L 404.00 248.00 ZM 404.00 316.00 L 404.00 371.00 L 310.00 371.00 L 310.00 316.00 L 404.00 316.00 ZM 404.00 181.00 L 404.00 236.00 L 357.67 236.00 C332.18,236.00 311.03,235.70 310.67,235.33 C310.30,234.97 310.00,222.59 310.00,207.83 L 310.00 181.00 L 404.00 181.00 ZM 404.00 384.00 L 404.00 437.00 L 310.00 437.00 L 310.00 384.00 L 404.00 384.00 ZM 296.77 140.25 L 296.50 167.50 L 274.32 167.77 L 252.14 168.04 L 251.82 153.05 C251.55,140.27 251.24,137.80 249.71,136.28 C248.10,134.68 245.67,134.50 225.21,134.50 L 202.50 134.50 L 201.93 113.00 L 297.03 113.00 ZM 481.00 248.00 L 481.00 303.00 L 417.00 303.00 L 417.00 248.00 L 481.00 248.00 ZM 481.00 316.00 L 481.00 371.00 L 417.00 371.00 L 417.00 316.00 L 481.00 316.00 ZM 480.77 140.25 L 480.50 167.50 L 448.75 167.76 L 417.00 168.03 L 417.00 113.00 L 481.03 113.00 ZM 480.77 208.25 L 480.50 235.50 L 449.43 235.76 C432.34,235.91 418.06,235.72 417.68,235.35 C417.31,234.97 417.00,222.59 417.00,207.83 L 417.00 181.00 L 481.03 181.00 ZM 481.00 384.00 L 481.00 437.00 L 417.00 437.00 L 417.00 384.00 L 481.00 384.00 ZM 297.00 248.00 L 297.00 303.00 L 252.00 303.00 L 252.00 248.00 L 297.00 248.00 ZM 297.00 316.00 L 297.00 371.00 L 252.00 371.00 L 252.00 316.00 L 297.00 316.00 ZM 296.77 208.25 L 296.50 235.50 L 274.94 235.77 C263.08,235.92 253.06,235.73 252.69,235.35 C252.31,234.98 252.00,222.59 252.00,207.83 L 252.00 181.00 L 297.03 181.00 ZM 297.00 384.00 L 297.00 437.00 L 252.00 437.00 L 252.00 384.00 L 297.00 384.00 ZM 189.24 133.75 C188.89,134.71 181.73,135.00 158.06,135.00 C141.16,135.00 127.03,134.70 126.67,134.33 C126.30,133.97 126.00,129.02 126.00,123.33 L 126.00 113.00 L 188.78 113.00 L 189.45 115.67 C190.17,118.51 190.01,131.65 189.24,133.75 ZM 87.67 404.59 C85.22,407.45 78.28,408.74 74.39,407.07 C67.76,404.23 65.81,394.49 70.75,388.95 C76.25,382.80 86.56,384.31 89.66,391.73 C91.50,396.14 90.75,401.02 87.67,404.59 ZM 85.83 201.35 C81.91,203.89 78.74,204.11 74.48,202.15 C68.32,199.32 66.19,192.39 69.51,185.98 C71.50,182.12 73.84,181.00 79.85,181.00 C84.14,181.00 85.17,181.41 87.33,183.98 C88.70,185.61 90.12,188.27 90.47,189.87 C91.28,193.56 88.95,199.34 85.83,201.35 ZM 85.86 303.47 C78.61,309.57 68.00,303.61 68.00,293.45 C68.00,290.63 68.78,289.02 71.40,286.40 C74.25,283.55 75.52,283.00 79.27,283.00 C90.47,283.00 94.67,296.05 85.86,303.47 Z" fill="rgba(0,203,254,1)"/>
<path d="M 20.86 448.09 L 18.50 446.18 L 18.50 292.12 C18.50,145.59 18.59,137.98 20.28,136.29 C21.94,134.63 25.44,134.48 67.53,134.22 L 113.00 133.94 L 113.00 65.11 L 115.22 63.56 C117.21,62.16 136.69,62.00 303.11,62.00 C484.43,62.00 488.83,62.04 491.14,63.91 L 493.50 65.82 L 493.50 446.18 L 491.14 448.09 C488.83,449.96 483.70,450.00 256.00,450.00 C28.30,450.00 23.17,449.96 20.86,448.09 ZM 32.00 348.00 L 32.00 437.00 L 239.00 437.00 L 239.00 348.00 L 32.00 348.00 ZM 32.00 148.00 L 32.00 237.01 L 238.50 236.50 L 238.76 192.25 L 239.02 148.00 L 32.00 148.00 ZM 32.00 250.00 L 32.00 335.01 L 238.50 334.50 L 239.02 250.00 L 32.00 250.00 ZM 481.00 75.00 L 126.00 75.00 L 126.00 100.00 L 481.00 100.00 L 481.00 75.00 ZM 404.00 113.00 L 310.00 113.00 L 310.00 168.00 L 404.00 168.00 L 404.00 113.00 ZM 404.00 248.00 L 310.00 248.00 L 310.00 303.00 L 404.00 303.00 L 404.00 248.00 ZM 404.00 316.00 L 310.00 316.00 L 310.00 371.00 L 404.00 371.00 L 404.00 316.00 ZM 404.00 181.00 L 310.00 181.00 L 310.00 207.83 C310.00,222.59 310.30,234.97 310.67,235.33 C311.03,235.70 332.18,236.00 357.67,236.00 L 404.00 236.00 L 404.00 181.00 ZM 404.00 384.00 L 310.00 384.00 L 310.00 437.00 L 404.00 437.00 L 404.00 384.00 ZM 296.77 140.25 L 297.03 113.00 L 201.93 113.00 L 202.50 134.50 L 225.21 134.50 C245.67,134.50 248.10,134.68 249.71,136.28 C251.24,137.80 251.55,140.27 251.82,153.05 L 252.14 168.04 L 274.32 167.77 L 296.50 167.50 ZM 481.00 248.00 L 417.00 248.00 L 417.00 303.00 L 481.00 303.00 L 481.00 248.00 ZM 481.00 316.00 L 417.00 316.00 L 417.00 371.00 L 481.00 371.00 L 481.00 316.00 ZM 480.77 140.25 L 481.03 113.00 L 417.00 113.00 L 417.00 168.03 L 448.75 167.76 L 480.50 167.50 ZM 480.77 208.25 L 481.03 181.00 L 417.00 181.00 L 417.00 207.83 C417.00,222.59 417.31,234.97 417.68,235.35 C418.06,235.72 432.34,235.91 449.43,235.76 L 480.50 235.50 ZM 481.00 384.00 L 417.00 384.00 L 417.00 437.00 L 481.00 437.00 L 481.00 384.00 ZM 297.00 248.00 L 252.00 248.00 L 252.00 303.00 L 297.00 303.00 L 297.00 248.00 ZM 297.00 316.00 L 252.00 316.00 L 252.00 371.00 L 297.00 371.00 L 297.00 316.00 ZM 296.77 208.25 L 297.03 181.00 L 252.00 181.00 L 252.00 207.83 C252.00,222.59 252.31,234.98 252.69,235.35 C253.06,235.73 263.08,235.92 274.94,235.77 L 296.50 235.50 ZM 297.00 384.00 L 252.00 384.00 L 252.00 437.00 L 297.00 437.00 L 297.00 384.00 ZM 89.81 418.41 C69.72,428.42 47.84,406.91 57.35,386.49 C67.34,365.05 98.31,368.82 103.16,392.07 C105.37,402.65 99.95,413.36 89.81,418.41 ZM 91.36 315.19 C85.93,318.23 78.28,319.52 74.00,318.12 C54.42,311.71 48.63,291.30 62.47,277.47 C67.77,272.17 72.71,270.00 79.50,270.00 C93.64,270.00 105.62,283.68 103.56,297.46 C102.53,304.29 97.34,311.85 91.36,315.19 ZM 89.50 214.05 C78.75,218.68 69.49,216.59 61.26,207.67 C47.76,193.02 57.46,169.46 77.51,168.18 C85.32,167.68 90.12,169.21 95.20,173.80 C102.69,180.56 105.25,189.19 102.54,198.50 C100.60,205.17 95.23,211.58 89.50,214.05 ZM 189.24 133.75 C190.01,131.65 190.17,118.51 189.45,115.67 L 188.78 113.00 L 126.00 113.00 L 126.00 123.33 C126.00,129.02 126.30,133.97 126.67,134.33 C127.03,134.70 141.16,135.00 158.06,135.00 C181.73,135.00 188.89,134.71 189.24,133.75 ZM 215.64 298.45 L 213.09 301.00 L 182.80 300.92 C166.13,300.88 151.82,300.60 151.00,300.31 C146.92,298.85 145.63,292.55 148.83,289.65 C150.45,288.19 154.29,288.00 182.71,288.00 C209.42,288.00 214.83,287.92 216.54,290.40 C217.03,291.11 217.22,292.02 217.52,293.21 C218.04,295.31 217.63,296.46 215.64,298.45 ZM 213.92 197.74 C212.16,198.63 203.47,198.97 182.00,198.95 C148.45,198.94 147.05,198.65 147.02,191.82 C146.98,186.02 147.11,186.00 182.55,186.00 L 214.95 186.00 L 216.57 188.47 C218.63,191.60 217.38,195.97 213.92,197.74 ZM 215.36 401.49 C214.09,402.77 209.11,403.00 182.65,403.00 C147.59,403.00 147.00,402.89 147.00,396.47 C147.00,390.06 147.71,389.94 182.99,390.24 L 214.29 390.50 L 216.25 393.13 C218.35,395.94 218.05,398.81 215.36,401.49 ZM 87.67 404.59 C90.75,401.02 91.50,396.14 89.66,391.73 C86.56,384.31 76.25,382.80 70.75,388.95 C65.81,394.49 67.76,404.23 74.39,407.07 C78.28,408.74 85.22,407.45 87.67,404.59 ZM 85.83 201.35 C88.95,199.34 91.28,193.56 90.47,189.87 C90.12,188.27 88.70,185.61 87.33,183.98 C85.17,181.41 84.14,181.00 79.85,181.00 C73.84,181.00 71.50,182.12 69.51,185.98 C66.19,192.39 68.32,199.32 74.48,202.15 C78.74,204.11 81.91,203.89 85.83,201.35 ZM 85.86 303.47 C94.67,296.05 90.47,283.00 79.27,283.00 C75.52,283.00 74.25,283.55 71.40,286.40 C68.78,289.02 68.00,290.63 68.00,293.45 C68.00,303.61 78.61,309.57 85.86,303.47 Z" fill="rgba(27,116,185,1)"/>
<path d="M 32.00 392.50 L 32.00 348.00 L 135.50 348.00 L 239.00 348.00 L 239.00 392.50 L 239.00 437.00 L 135.50 437.00 L 32.00 437.00 L 32.00 392.50 ZM 89.81 418.41 C99.95,413.36 105.37,402.65 103.16,392.07 C98.31,368.82 67.34,365.05 57.35,386.49 C47.84,406.91 69.72,428.42 89.81,418.41 ZM 215.36 401.49 C218.05,398.81 218.35,395.94 216.25,393.13 L 214.29 390.50 L 182.99 390.24 C147.71,389.94 147.00,390.06 147.00,396.47 C147.00,402.89 147.59,403.00 182.65,403.00 C209.11,403.00 214.09,402.77 215.36,401.49 ZM 32.00 292.50 L 32.00 250.00 L 135.51 250.00 L 239.02 250.00 L 238.76 292.25 L 238.50 334.50 L 135.25 334.75 L 32.00 335.01 L 32.00 292.50 ZM 91.36 315.19 C97.34,311.85 102.53,304.29 103.56,297.46 C105.62,283.68 93.64,270.00 79.50,270.00 C72.71,270.00 67.77,272.17 62.47,277.47 C48.63,291.30 54.42,311.71 74.00,318.12 C78.28,319.52 85.93,318.23 91.36,315.19 ZM 215.64 298.45 C217.63,296.46 218.04,295.31 217.52,293.21 C216.18,287.87 217.04,288.00 182.71,288.00 C154.29,288.00 150.45,288.19 148.83,289.65 C145.63,292.55 146.92,298.85 151.00,300.31 C151.82,300.60 166.13,300.88 182.80,300.92 L 213.09 301.00 L 215.64 298.45 ZM 32.00 192.50 L 32.00 148.00 L 135.51 148.00 L 239.02 148.00 L 238.76 192.25 L 238.50 236.50 L 135.25 236.75 L 32.00 237.01 L 32.00 192.50 ZM 89.50 214.05 C95.23,211.58 100.60,205.17 102.54,198.50 C105.25,189.19 102.69,180.56 95.20,173.80 C90.12,169.21 85.32,167.68 77.51,168.18 C57.46,169.46 47.76,193.02 61.26,207.67 C69.49,216.59 78.75,218.68 89.50,214.05 ZM 213.92 197.74 C217.38,195.97 218.63,191.60 216.57,188.47 L 214.95 186.00 L 182.55 186.00 C147.11,186.00 146.98,186.02 147.02,191.82 C147.05,198.65 148.45,198.94 182.00,198.95 C203.47,198.97 212.16,198.63 213.92,197.74 Z" fill="rgba(248,248,248,1)"/>
</g>
</svg>