<svg xmlns="http://www.w3.org/2000/svg" width="512" height="512" viewBox="0 0 512 512">
<g>
<path d="M 73.08 498.55 C71.14,496.94 69.15,495.13 67.04,493.08 C57.21,483.54 53.98,478.15 50.93,466.24 C49.05,458.89 49.00,453.17 49.02,256.09 C49.04,121.71 49.39,52.01 50.07,49.06 C50.55,47.01 52.41,42.21 54.50,37.60 C52.67,41.81 51.48,45.57 51.39,47.50 C51.30,49.70 51.17,144.40 51.10,257.94 C51.02,403.05 51.30,464.57 52.05,465.03 C52.63,465.39 53.32,467.37 53.58,469.42 C54.56,477.39 59.62,485.78 68.79,494.66 C70.25,496.07 71.67,497.36 73.08,498.55 ZM 459.77 470.56 C460.46,458.65 461.75,156.75 461.18,142.79 C463.08,155.82 463.00,187.36 463.00,305.30 C463.00,455.74 462.96,458.83 460.99,466.55 C460.65,467.87 460.24,469.21 459.77,470.56 ZM 461.03 141.81 C460.68,140.64 459.80,139.09 458.90,138.12 C457.85,137.00 457.00,135.32 457.00,134.39 C457.00,133.47 456.04,129.96 454.87,126.60 C452.79,120.66 451.32,119.09 399.22,67.28 C369.78,38.01 345.35,14.28 344.92,14.55 C344.50,14.81 342.65,13.52 340.82,11.68 C338.65,9.50 335.42,7.72 331.50,6.56 C328.20,5.58 324.83,4.20 324.00,3.48 C323.38,2.94 321.34,2.20 318.98,1.61 C322.62,2.11 325.05,2.76 327.40,3.62 C328.73,4.10 330.02,4.65 331.50,5.26 C344.36,10.64 349.27,14.96 398.65,64.35 C448.04,113.73 452.36,118.64 457.74,131.50 C458.31,132.87 458.82,134.04 459.27,135.23 C459.99,137.08 460.56,139.00 461.03,141.81 ZM 305.82 0.62 C291.41,0.30 264.43,0.10 234.57,0.02 C271.98,0.03 293.01,0.12 305.82,0.62 ZM 417.26 510.06 C422.40,508.75 427.05,507.00 431.31,504.74 C426.99,507.11 422.91,508.62 417.26,510.06 ZM 63.42 22.57 C68.77,15.89 75.43,10.83 84.06,6.68 C75.53,10.78 68.79,15.93 63.42,22.57 ZM 129.09 0.30 C111.47,0.48 99.52,0.74 98.06,1.07 C99.52,0.74 110.15,0.48 129.09,0.30 ZM 437.82 500.67 C441.41,498.05 444.70,494.96 447.75,491.35 C444.65,495.03 441.27,498.25 437.82,500.67 ZM 94.56 509.85 C90.78,508.80 87.43,507.56 84.24,505.98 C87.42,507.55 90.80,508.80 94.56,509.85 Z" fill="rgba(4,39,89,1)"/>
<path d="M 353.00 265.50 C351.91,266.81 339.90,267.00 256.00,267.00 C172.10,267.00 160.09,266.81 159.00,265.50 C158.32,264.67 156.99,264.00 156.06,264.00 C153.36,264.00 150.00,259.37 150.00,255.67 C150.00,252.13 153.34,248.00 156.19,248.00 C157.05,248.00 158.32,247.32 159.00,246.50 C160.09,245.19 172.10,245.00 256.00,245.00 C339.90,245.00 351.91,245.19 353.00,246.50 C353.68,247.32 355.01,248.00 355.94,248.00 C358.52,248.00 362.00,252.63 362.00,256.05 C362.00,259.27 358.23,264.00 355.67,264.00 C354.89,264.00 353.68,264.67 353.00,265.50 ZM 352.64 363.50 C352.13,364.82 340.47,365.00 256.00,365.00 C171.53,365.00 159.87,364.82 159.36,363.50 C159.05,362.67 157.91,362.00 156.85,362.00 C153.69,362.00 150.00,357.54 150.00,353.73 C150.00,350.26 153.52,346.00 156.39,346.00 C157.14,346.00 158.32,345.33 159.00,344.50 C160.09,343.19 172.10,343.00 256.00,343.00 C339.90,343.00 351.91,343.19 353.00,344.50 C353.68,345.33 355.01,346.00 355.94,346.00 C358.52,346.00 362.00,350.63 362.00,354.05 C362.00,357.54 358.16,362.00 355.15,362.00 C354.09,362.00 352.95,362.67 352.64,363.50 ZM 255.00 167.50 C253.93,168.79 247.34,169.00 207.00,169.00 C166.66,169.00 160.07,168.79 159.00,167.50 C158.32,166.68 157.14,166.00 156.39,166.00 C153.55,166.00 150.00,161.74 150.00,158.33 C150.00,154.63 153.37,150.00 156.06,150.00 C156.99,150.00 158.32,149.32 159.00,148.50 C160.07,147.21 166.66,147.00 207.00,147.00 C247.34,147.00 253.93,147.21 255.00,148.50 C255.68,149.32 256.89,150.00 257.67,150.00 C260.26,150.00 264.00,154.73 264.00,158.00 C264.00,161.27 260.26,166.00 257.67,166.00 C256.89,166.00 255.68,166.68 255.00,167.50 Z" fill="rgba(9,75,172,1)"/>
<path d="M 402.48 488.38 C401.00,489.86 388.29,490.00 256.00,490.00 C123.71,490.00 111.00,489.86 109.52,488.38 C108.38,487.24 106.88,486.92 104.47,487.31 C101.34,487.82 98.40,486.97 92.76,483.94 C91.81,483.42 90.32,483.00 89.45,483.00 C88.59,483.00 88.13,482.60 88.43,482.11 C89.14,480.97 86.21,478.53 84.11,478.52 C83.22,478.51 82.50,477.68 82.49,476.66 C82.49,475.64 81.51,474.02 80.32,473.06 C79.13,472.10 78.01,470.45 77.83,469.40 C77.65,468.36 77.24,467.27 76.92,467.00 C74.97,465.31 73.20,459.57 73.69,456.53 C74.08,454.12 73.76,452.62 72.62,451.48 C71.14,449.99 71.00,433.49 71.00,256.00 C71.00,78.51 71.14,62.01 72.62,60.52 C73.76,59.38 74.08,57.88 73.69,55.47 C73.20,52.43 74.97,46.69 76.92,45.00 C77.24,44.72 77.66,43.61 77.84,42.53 C78.03,41.44 79.02,39.98 80.03,39.27 C81.04,38.56 82.01,36.97 82.18,35.74 C82.38,34.35 83.20,33.50 84.34,33.49 C85.36,33.49 86.98,32.51 87.94,31.32 C88.90,30.13 90.55,29.01 91.60,28.83 C92.64,28.65 93.72,28.24 94.00,27.92 C95.71,25.94 101.43,24.20 104.56,24.70 C107.15,25.12 108.40,24.84 109.29,23.63 C110.40,22.11 118.31,22.01 208.00,22.34 C261.62,22.54 307.79,22.91 310.58,23.16 C313.37,23.41 317.65,24.71 320.08,26.05 C326.47,29.59 417.83,121.94 421.42,128.50 C422.93,131.25 425.36,136.88 426.83,141.00 L 429.50 148.50 L 429.79 298.00 C429.98,393.86 429.72,450.46 429.07,455.76 C427.59,467.98 420.90,482.98 416.92,482.99 C416.06,483.00 414.33,484.09 413.07,485.42 C411.26,487.35 410.12,487.73 407.45,487.30 C405.12,486.92 403.61,487.25 402.48,488.38 ZM 353.00 265.50 C353.01,265.49 353.02,265.48 353.03,265.47 C352.12,266.58 352.35,266.94 354.19,267.32 C359.38,268.39 365.00,266.34 365.00,263.38 C365.00,262.62 365.44,262.00 365.98,262.00 C366.60,262.00 366.58,261.04 365.93,259.33 C365.37,257.86 365.18,255.46 365.50,254.00 C366.88,247.71 362.14,243.32 355.35,244.59 C352.65,245.10 352.19,245.48 353.04,246.55 C353.03,246.53 353.01,246.52 353.00,246.50 C351.91,245.19 339.90,245.00 256.00,245.00 C172.10,245.00 160.09,245.19 159.00,246.50 C158.99,246.52 158.97,246.53 158.96,246.55 C159.82,245.48 159.35,245.10 156.65,244.59 C152.29,243.78 148.20,245.34 147.10,248.23 C146.08,250.91 146.33,263.10 147.44,264.90 C147.86,265.58 149.17,266.53 150.35,267.01 C153.10,268.11 153.16,268.12 156.89,267.37 C159.35,266.88 159.79,266.49 158.95,265.45 C158.97,265.46 158.98,265.48 159.00,265.50 C160.09,266.81 172.10,267.00 256.00,267.00 C339.90,267.00 351.91,266.81 353.00,265.50 ZM 352.64 363.50 C352.64,363.49 352.65,363.48 352.65,363.46 C352.46,364.23 352.96,365.05 354.31,365.34 C357.59,366.02 362.29,365.14 363.90,363.53 C365.54,361.89 366.24,349.77 364.90,346.23 C363.80,343.34 359.71,341.78 355.35,342.59 C352.65,343.10 352.19,343.48 353.04,344.55 C353.03,344.53 353.01,344.52 353.00,344.50 C351.91,343.19 339.90,343.00 256.00,343.00 C172.10,343.00 160.09,343.19 159.00,344.50 C158.99,344.52 158.97,344.54 158.96,344.55 C159.82,343.48 159.35,343.10 156.65,342.59 C152.29,341.78 148.20,343.34 147.10,346.23 C146.08,348.91 146.33,361.10 147.44,362.90 C147.86,363.58 149.17,364.53 150.35,365.01 C153.09,366.11 153.17,366.12 156.80,365.39 C158.46,365.06 159.31,364.24 159.36,363.49 C159.36,363.49 159.36,363.50 159.36,363.50 C159.87,364.82 171.53,365.00 256.00,365.00 C340.47,365.00 352.13,364.82 352.64,363.50 ZM 255.00 167.50 C255.01,167.49 255.02,167.48 255.03,167.47 C254.12,168.58 254.35,168.94 256.19,169.32 C261.38,170.39 267.00,168.34 267.00,165.38 C267.00,164.62 267.48,164.00 268.06,164.00 C268.64,164.00 268.78,163.46 268.38,162.80 C267.97,162.14 267.57,159.00 267.50,155.83 C267.33,148.95 265.42,146.21 260.98,146.48 C256.09,146.76 254.48,146.86 254.33,147.36 C254.26,147.61 254.56,147.97 255.00,148.50 C253.93,147.21 247.34,147.00 207.00,147.00 C166.66,147.00 160.07,147.21 159.00,148.50 C158.99,148.52 158.97,148.53 158.96,148.55 C159.82,147.48 159.35,147.10 156.65,146.59 C152.29,145.78 148.20,147.34 147.10,150.23 C146.08,152.91 146.33,165.10 147.44,166.90 C147.86,167.58 149.17,168.53 150.35,169.01 C153.10,170.11 153.16,170.12 156.89,169.37 C159.36,168.88 159.79,168.49 158.95,167.44 C158.97,167.46 158.98,167.48 159.00,167.50 C160.07,168.79 166.66,169.00 207.00,169.00 C247.34,169.00 253.93,168.79 255.00,167.50 ZM 153.27 249.24 C154.17,248.47 155.14,248.00 156.05,248.00 C156.54,248.00 157.13,247.83 157.67,247.55 C157.16,247.83 156.62,248.00 156.19,248.00 C155.22,248.00 154.20,248.47 153.27,249.24 ZM 151.44 260.35 C150.58,258.92 150.00,257.27 150.00,255.81 C150.00,255.78 150.00,255.76 150.00,255.74 C150.02,257.25 150.59,258.92 151.44,260.35 Z" fill="rgba(89,156,254,1)"/>
<path d="M 316.60 24.56 C318.13,25.08 319.61,25.68 320.78,26.29 C323.60,27.77 326.58,28.71 327.40,28.40 C328.22,28.09 330.83,29.18 333.20,30.84 C340.38,35.86 431.44,127.95 434.49,133.29 C436.00,135.92 438.08,140.80 439.12,144.12 C440.93,149.94 441.00,156.15 441.00,304.41 C441.00,437.62 440.80,459.32 439.52,463.62 C437.45,470.61 431.41,478.79 425.06,483.23 C418.95,487.49 416.53,488.06 417.50,485.00 C417.96,483.55 417.53,482.91 416.62,483.03 C416.73,483.01 416.83,482.99 416.92,482.99 C420.90,482.98 427.59,467.98 429.07,455.76 C429.72,450.46 429.98,393.86 429.79,298.00 L 429.50 148.50 L 426.83 141.00 C425.36,136.88 422.93,131.25 421.42,128.50 C417.83,121.94 326.47,29.59 320.08,26.05 C319.13,25.53 317.91,25.01 316.60,24.56 Z" fill="rgba(52,133,252,1)"/>
<path d="M 115.88 489.34 C98.74,488.85 95.07,487.87 91.96,485.96 C91.04,485.40 90.18,484.76 89.03,484.02 C79.69,478.02 73.86,469.05 72.05,457.86 C71.89,456.91 71.75,451.49 71.63,442.60 C71.87,449.31 72.19,451.04 72.62,451.48 C73.76,452.62 74.08,454.12 73.69,456.53 C73.20,459.57 74.97,465.31 76.92,467.00 C77.24,467.27 77.65,468.36 77.83,469.40 C78.01,470.45 79.13,472.10 80.32,473.06 C81.51,474.02 82.49,475.64 82.49,476.66 C82.50,477.68 83.22,478.51 84.11,478.52 C86.21,478.53 89.14,480.97 88.43,482.11 C88.13,482.60 88.59,483.00 89.45,483.00 C90.32,483.00 91.81,483.42 92.76,483.94 C98.40,486.97 101.34,487.82 104.47,487.31 C106.88,486.92 108.38,487.24 109.52,488.38 C109.94,488.80 111.25,489.11 115.88,489.34 ZM 71.63 69.40 C71.75,60.51 71.89,55.09 72.05,54.14 C74.76,37.42 86.74,25.59 103.57,23.01 C104.37,22.89 107.73,22.78 113.05,22.69 C110.37,22.92 109.59,23.22 109.29,23.63 C108.40,24.84 107.15,25.12 104.56,24.70 C101.43,24.20 95.71,25.94 94.00,27.92 C93.72,28.24 92.64,28.65 91.60,28.83 C90.55,29.01 88.90,30.13 87.94,31.32 C86.98,32.51 85.36,33.49 84.34,33.49 C83.20,33.50 82.38,34.35 82.18,35.74 C82.01,36.97 81.04,38.56 80.03,39.27 C79.02,39.98 78.03,41.44 77.84,42.53 C77.66,43.61 77.24,44.72 76.92,45.00 C74.97,46.69 73.20,52.43 73.69,55.47 C74.08,57.88 73.76,59.38 72.62,60.52 C72.19,60.96 71.87,62.69 71.63,69.40 ZM 150.35 267.01 C149.17,266.53 147.86,265.58 147.44,264.90 C146.33,263.10 146.08,250.91 147.10,248.23 C148.20,245.34 152.29,243.78 156.65,244.59 C157.40,244.73 157.97,244.86 158.40,245.00 C158.30,245.00 158.19,245.00 158.07,245.00 C152.70,245.00 147.00,250.67 147.00,256.00 C147.00,259.29 149.76,263.81 152.76,265.43 C154.27,266.25 156.57,266.94 157.87,266.96 C158.11,266.96 158.33,266.96 158.52,266.96 C158.13,267.10 157.59,267.23 156.89,267.37 C153.16,268.12 153.10,268.11 150.35,267.01 ZM 150.35 169.01 C149.17,168.53 147.86,167.58 147.44,166.90 C146.33,165.10 146.08,152.91 147.10,150.23 C148.20,147.34 152.29,145.78 156.65,146.59 C157.40,146.73 157.97,146.86 158.40,147.00 C158.30,147.00 158.19,147.00 158.07,147.00 C152.70,147.00 147.00,152.67 147.00,158.00 C147.00,161.29 149.76,165.81 152.76,167.43 C154.27,168.25 156.57,168.94 157.87,168.96 C158.11,168.96 158.33,168.96 158.52,168.96 C158.13,169.10 157.59,169.23 156.89,169.37 C153.16,170.12 153.10,170.11 150.35,169.01 ZM 150.35 365.01 C149.17,364.53 147.86,363.58 147.44,362.90 C146.33,361.10 146.08,348.91 147.10,346.23 C148.20,343.34 152.29,341.78 156.65,342.59 C157.40,342.73 157.97,342.86 158.40,343.00 C158.30,343.00 158.19,343.00 158.07,343.00 C152.70,343.00 147.00,348.67 147.00,354.00 C147.00,357.29 149.76,361.81 152.76,363.43 C154.81,364.55 156.85,365.05 158.13,364.95 C157.77,365.13 157.32,365.29 156.80,365.39 C153.17,366.12 153.09,366.11 150.35,365.01 ZM 256.19 169.32 C255.43,169.17 254.95,169.01 254.70,168.81 C255.06,168.96 255.79,169.00 256.98,169.00 C261.97,169.00 267.00,163.48 267.00,158.00 C267.00,152.52 261.97,147.00 256.98,147.00 C254.23,147.00 253.94,147.22 255.00,148.50 C254.56,147.97 254.26,147.61 254.33,147.36 C254.48,146.86 256.09,146.76 260.98,146.48 C265.42,146.21 267.33,148.95 267.50,155.83 C267.57,159.00 267.97,162.14 268.38,162.80 C268.78,163.46 268.64,164.00 268.06,164.00 C267.48,164.00 267.00,164.62 267.00,165.38 C267.00,168.34 261.38,170.39 256.19,169.32 ZM 354.19 267.32 C353.43,267.17 352.95,267.01 352.70,266.81 C353.06,266.96 353.79,267.00 354.98,267.00 C359.97,267.00 365.00,261.48 365.00,256.00 C365.00,250.52 359.97,245.00 354.98,245.00 C354.36,245.00 353.87,245.01 353.49,245.04 C353.92,244.89 354.53,244.75 355.35,244.59 C362.14,243.32 366.88,247.71 365.50,254.00 C365.18,255.46 365.37,257.86 365.93,259.33 C366.58,261.04 366.60,262.00 365.98,262.00 C365.44,262.00 365.00,262.62 365.00,263.38 C365.00,266.34 359.38,268.39 354.19,267.32 ZM 354.31 365.34 C353.78,365.23 353.39,365.03 353.11,364.79 C353.53,364.94 354.19,365.00 355.13,365.00 C357.29,365.00 359.21,363.99 361.60,361.60 C364.39,358.81 365.00,357.44 365.00,354.00 C365.00,348.52 359.97,343.00 354.98,343.00 C354.36,343.00 353.87,343.01 353.49,343.04 C353.92,342.89 354.53,342.75 355.35,342.59 C359.71,341.78 363.80,343.34 364.90,346.23 C366.24,349.77 365.54,361.89 363.90,363.53 C362.29,365.14 357.59,366.02 354.31,365.34 ZM 402.48 488.38 C403.61,487.25 405.12,486.92 407.45,487.30 C410.12,487.73 411.26,487.35 413.07,485.42 C415.90,482.41 418.40,482.18 417.50,485.00 C417.22,485.90 417.22,486.48 417.52,486.75 C416.62,486.79 415.35,487.29 414.50,488.00 C413.90,488.50 410.79,488.84 399.76,489.08 C401.53,488.89 402.20,488.65 402.48,488.38 ZM 197.70 22.30 C249.45,22.31 304.39,22.61 310.58,23.16 C307.78,22.91 261.62,22.54 208.00,22.34 C204.44,22.33 201.01,22.32 197.70,22.30 ZM 440.73 433.32 C440.95,410.85 441.00,371.98 441.00,304.41 C441.00,371.16 441.07,410.08 440.73,433.32 ZM 431.29 477.59 C434.45,474.04 437.14,469.86 438.73,465.88 C438.19,468.09 437.52,469.44 436.69,470.68 C435.99,471.72 435.19,472.69 434.25,474.03 C433.45,475.17 432.43,476.39 431.29,477.59 ZM 71.01 304.83 C70.97,272.86 70.97,239.14 71.01,207.17 C71.00,221.92 71.00,238.14 71.00,256.00 C71.00,273.86 71.00,290.08 71.01,304.83 ZM 156.85 362.00 C158.57,362.00 159.41,362.71 159.36,363.49 C159.04,362.67 157.91,362.00 156.85,362.00 ZM 352.65 363.46 C352.84,362.70 353.73,362.00 355.15,362.00 C354.10,362.00 352.99,362.66 352.65,363.46 ZM 156.06 264.00 C156.99,264.00 158.27,264.62 158.89,265.37 C158.91,265.40 158.93,265.42 158.95,265.45 C158.26,264.65 156.97,264.00 156.06,264.00 ZM 158.96 246.55 C158.94,246.57 158.92,246.59 158.90,246.62 C158.27,247.38 156.99,248.00 156.05,248.00 C156.97,248.00 158.26,247.35 158.96,246.55 ZM 355.94 346.00 C355.01,346.00 353.73,345.38 353.10,344.62 C353.08,344.59 353.06,344.57 353.04,344.55 C353.74,345.35 355.03,346.00 355.94,346.00 ZM 355.94 248.00 C355.01,248.00 353.73,247.38 353.10,246.62 C353.08,246.59 353.06,246.57 353.04,246.55 C353.74,247.35 355.03,248.00 355.94,248.00 ZM 158.96 148.55 C158.94,148.57 158.92,148.59 158.90,148.62 C158.27,149.38 156.99,150.00 156.06,150.00 C156.97,150.00 158.26,149.35 158.96,148.55 ZM 420.70 485.99 C421.53,485.55 422.51,484.95 423.65,484.19 C422.59,484.92 421.59,485.54 420.70,485.99 ZM 156.39 166.00 C157.14,166.00 158.27,166.62 158.89,167.37 C158.91,167.40 158.93,167.42 158.95,167.44 C158.26,166.64 157.12,166.00 156.39,166.00 ZM 158.96 344.55 C158.94,344.57 158.92,344.59 158.90,344.62 C158.27,345.38 157.14,346.00 156.39,346.00 C157.12,346.00 158.27,345.35 158.96,344.55 ZM 255.03 167.47 C255.04,167.45 255.05,167.44 255.06,167.42 C255.71,166.64 256.89,166.00 257.67,166.00 C256.89,166.00 255.71,166.66 255.03,167.47 ZM 353.03 265.47 C353.04,265.45 353.05,265.44 353.06,265.42 C353.71,264.64 354.89,264.00 355.67,264.00 C354.89,264.00 353.71,264.66 353.03,265.47 Z" fill="rgba(89,154,252,1)"/>
<path d="M 94.56 509.85 C84.41,507.02 77.12,502.73 68.79,494.66 C59.62,485.78 54.56,477.39 53.58,469.42 C53.32,467.37 52.63,465.39 52.05,465.03 C51.30,464.57 51.02,403.05 51.10,257.94 C51.17,144.40 51.30,49.70 51.39,47.50 C51.50,45.10 53.31,39.89 55.93,34.50 C62.12,21.72 70.98,12.96 84.06,6.68 C89.32,4.16 95.62,1.63 98.06,1.07 C104.39,-0.39 308.60,-0.37 316.57,1.09 C319.83,1.69 323.17,2.76 324.00,3.48 C324.83,4.20 328.20,5.58 331.50,6.56 C335.42,7.72 338.65,9.50 340.82,11.68 C342.65,13.52 344.50,14.81 344.92,14.55 C345.35,14.28 369.78,38.01 399.22,67.28 C451.32,119.09 452.79,120.66 454.87,126.60 C456.04,129.96 457.00,133.47 457.00,134.39 C457.00,135.32 457.85,137.00 458.90,138.12 C459.94,139.24 460.96,141.14 461.15,142.33 C461.80,146.38 460.43,467.48 459.74,470.89 C459.37,472.76 457.14,477.48 454.79,481.39 C445.45,496.97 433.87,505.81 417.26,510.06 C409.91,511.94 404.97,512.00 255.59,511.89 C106.55,511.79 101.27,511.72 94.56,509.85 ZM 414.50 488.00 C415.49,487.18 417.04,486.62 417.94,486.78 C420.69,487.24 430.23,479.78 434.25,474.03 C435.19,472.69 435.99,471.72 436.69,470.68 C441.36,463.68 441.00,453.33 441.00,304.41 C441.00,156.15 440.93,149.94 439.12,144.12 C438.08,140.80 436.00,135.92 434.49,133.29 C431.44,127.95 340.38,35.86 333.20,30.84 C330.83,29.18 328.22,28.09 327.40,28.40 C326.58,28.71 323.60,27.77 320.78,26.29 C317.96,24.82 313.37,23.41 310.58,23.16 C298.80,22.11 110.31,21.98 103.57,23.01 C86.74,25.59 74.76,37.42 72.05,54.14 C70.62,62.94 70.62,449.06 72.05,457.86 C73.86,469.05 79.69,478.02 89.03,484.02 C90.18,484.76 91.04,485.40 91.96,485.96 C98.79,490.16 108.37,489.87 257.60,489.69 C393.80,489.52 412.91,489.32 414.50,488.00 Z" fill="rgba(5,40,91,1)"/>
<path d="M 152.76 363.43 C149.76,361.81 147.00,357.29 147.00,354.00 C147.00,348.67 152.70,343.00 158.07,343.00 C159.89,343.00 160.04,343.24 159.00,344.50 C158.32,345.33 157.14,346.00 156.39,346.00 C153.52,346.00 150.00,350.26 150.00,353.73 C150.00,357.54 153.69,362.00 156.85,362.00 C157.91,362.00 159.05,362.67 159.36,363.50 C160.12,365.48 156.46,365.44 152.76,363.43 ZM 352.64 363.50 C352.95,362.67 354.09,362.00 355.15,362.00 C358.16,362.00 362.00,357.54 362.00,354.05 C362.00,350.63 358.52,346.00 355.94,346.00 C355.01,346.00 353.68,345.33 353.00,344.50 C351.94,343.22 352.23,343.00 354.98,343.00 C359.97,343.00 365.00,348.52 365.00,354.00 C365.00,357.44 364.39,358.81 361.60,361.60 C359.21,363.99 357.29,365.00 355.13,365.00 C352.81,365.00 352.20,364.63 352.64,363.50 ZM 152.76 265.43 C149.76,263.81 147.00,259.29 147.00,256.00 C147.00,250.67 152.70,245.00 158.07,245.00 C159.89,245.00 160.04,245.24 159.00,246.50 C158.32,247.32 156.99,248.00 156.05,248.00 C153.32,248.00 150.00,252.28 150.00,255.81 C150.00,259.37 153.42,264.00 156.06,264.00 C156.99,264.00 158.32,264.67 159.00,265.50 C160.05,266.76 159.87,266.99 157.87,266.96 C156.57,266.94 154.27,266.25 152.76,265.43 ZM 353.00 265.50 C353.68,264.67 354.89,264.00 355.67,264.00 C358.23,264.00 362.00,259.27 362.00,256.05 C362.00,252.63 358.52,248.00 355.94,248.00 C355.01,248.00 353.68,247.32 353.00,246.50 C351.94,245.22 352.23,245.00 354.98,245.00 C359.97,245.00 365.00,250.52 365.00,256.00 C365.00,261.48 359.97,267.00 354.98,267.00 C352.23,267.00 351.94,266.78 353.00,265.50 ZM 152.76 167.43 C149.76,165.81 147.00,161.29 147.00,158.00 C147.00,152.67 152.70,147.00 158.07,147.00 C159.89,147.00 160.04,147.24 159.00,148.50 C158.32,149.32 156.99,150.00 156.06,150.00 C153.37,150.00 150.00,154.63 150.00,158.33 C150.00,161.74 153.55,166.00 156.39,166.00 C157.14,166.00 158.32,166.68 159.00,167.50 C160.05,168.76 159.87,168.99 157.87,168.96 C156.57,168.94 154.27,168.25 152.76,167.43 ZM 255.00 167.50 C255.68,166.68 256.89,166.00 257.67,166.00 C260.26,166.00 264.00,161.27 264.00,158.00 C264.00,154.73 260.26,150.00 257.67,150.00 C256.89,150.00 255.68,149.32 255.00,148.50 C253.94,147.22 254.23,147.00 256.98,147.00 C261.97,147.00 267.00,152.52 267.00,158.00 C267.00,163.48 261.97,169.00 256.98,169.00 C254.23,169.00 253.94,168.78 255.00,167.50 Z" fill="rgba(10,76,173,1)"/>
</g>
</svg>