<svg xmlns="http://www.w3.org/2000/svg" width="512" height="512" viewBox="0 0 512 512">
<g>
<path d="M 279.00 467.45 L 278.50 483.50 L 256.44 483.77 C244.30,483.92 234.06,483.73 233.69,483.35 C233.31,482.98 233.00,476.10 233.00,468.08 C233.00,446.55 231.76,444.83 213.00,440.07 C191.58,434.65 174.18,427.39 155.50,416.07 C145.01,409.71 139.85,408.48 134.68,411.11 C133.48,411.72 127.66,417.00 121.74,422.85 L 110.99 433.48 L 78.56 401.05 L 89.70 389.76 C96.26,383.11 101.13,377.31 101.55,375.67 C102.89,370.32 101.29,365.28 94.94,354.82 C84.54,337.71 76.16,317.28 71.54,297.75 C67.46,280.50 66.27,279.68 44.55,279.00 L 28.50 278.50 L 28.50 233.50 L 44.55 233.00 C66.27,232.32 67.46,231.50 71.54,214.25 C76.20,194.57 84.22,175.03 95.07,156.95 C100.76,147.48 102.00,144.64 102.00,141.14 C102.00,138.79 101.50,135.89 100.89,134.68 C100.28,133.48 95.00,127.66 89.15,121.74 L 78.52 110.99 L 110.95 78.56 L 122.24 89.70 C128.89,96.26 134.69,101.13 136.33,101.55 C141.54,102.86 146.70,101.29 156.17,95.54 C173.96,84.71 191.80,77.29 212.87,71.96 C231.87,67.15 232.32,66.53 233.00,44.55 L 233.50 28.50 L 278.50 28.50 L 279.00 44.55 C279.68,66.26 280.50,67.45 297.75,71.55 C317.85,76.33 337.32,84.31 354.85,94.96 C365.28,101.29 370.32,102.89 375.67,101.55 C377.31,101.13 383.11,96.26 389.76,89.70 L 401.05 78.56 L 433.48 110.99 L 422.85 121.74 C417.00,127.66 411.72,133.48 411.11,134.68 C408.48,139.85 409.71,145.01 416.07,155.50 C427.53,174.41 434.53,191.15 440.04,212.87 C444.86,231.87 445.47,232.32 467.45,233.00 L 483.50 233.50 L 483.50 278.50 L 467.45 279.00 C445.75,279.68 444.71,280.39 440.43,297.67 C435.08,319.29 428.71,334.90 417.41,354.08 C411.35,364.38 410.00,367.44 410.00,370.90 C410.00,373.23 410.50,376.11 411.11,377.32 C411.72,378.52 417.00,384.34 422.85,390.26 L 433.48 401.01 L 417.25 417.25 L 401.01 433.48 L 390.26 422.85 C384.34,417.00 378.52,411.72 377.32,411.11 C372.15,408.48 366.99,409.71 356.50,416.07 C337.59,427.53 318.11,435.61 297.75,440.45 C280.50,444.55 279.68,445.74 279.00,467.45 ZM 234.00 410.54 C246.02,412.30 272.14,411.78 284.50,409.54 C308.25,405.23 329.07,396.38 347.56,382.74 C356.49,376.15 376.15,356.49 382.74,347.56 C409.46,311.34 418.55,262.15 407.00,216.35 C399.92,188.26 387.61,167.30 365.11,144.98 C352.30,132.27 342.35,124.82 328.00,117.16 C286.65,95.12 228.76,94.54 186.50,115.74 C157.46,130.31 130.08,157.71 115.78,186.50 C92.21,233.95 95.43,295.55 123.77,339.50 C135.34,357.45 154.65,376.76 172.50,388.24 C190.89,400.08 210.08,407.03 234.00,410.54 Z" fill="rgba(66,164,245,1)"/>
<path d="M 211.30 510.04 C205.61,506.57 205.00,504.09 205.00,484.55 C205.00,469.65 204.77,467.00 203.51,467.00 C200.77,467.00 175.62,458.32 167.00,454.40 C162.32,452.28 154.95,448.59 150.62,446.20 L 142.73 441.87 L 130.12 454.34 C115.64,468.66 113.32,469.78 105.74,466.12 C99.25,462.98 45.49,408.63 44.54,404.25 C43.12,397.66 44.59,395.16 57.70,381.87 L 70.17 369.24 L 66.18 362.20 C59.98,351.25 53.57,336.43 49.09,322.67 C46.84,315.75 45.00,309.39 45.00,308.54 C45.00,307.21 42.58,307.00 27.25,307.00 C11.41,306.99 9.16,306.78 6.30,305.04 C5.11,304.32 4.15,303.74 3.37,302.97 C-0.02,299.66 0.00,292.86 0.00,255.80 C0.01,216.60 0.11,214.34 1.96,211.30 C5.43,205.61 7.91,205.00 27.45,205.00 C42.60,205.00 45.00,204.79 45.00,203.46 C45.00,202.61 46.85,196.20 49.12,189.21 C53.54,175.55 59.87,160.93 66.22,149.74 L 70.17 142.76 L 57.70 130.13 C44.60,116.85 43.13,114.36 44.53,107.75 C45.52,103.02 103.02,45.52 107.75,44.53 C114.36,43.13 116.85,44.60 130.12,57.68 L 142.73 70.13 L 150.62 65.80 C154.95,63.41 162.28,59.74 166.91,57.64 C175.98,53.52 200.40,45.03 203.25,45.01 C204.85,45.00 205.00,43.48 205.01,27.25 C205.03,7.67 205.43,5.97 210.91,2.28 L 214.30 0.00 L 255.70 0.00 C292.85,0.00 299.66,-0.02 302.98,3.37 C303.74,4.15 304.32,5.12 305.04,6.30 C306.78,9.15 306.99,11.41 307.00,27.12 L 307.00 44.75 L 310.25 45.39 C322.07,47.70 347.02,57.63 361.37,65.73 L 369.23 70.17 L 381.87 57.68 C396.37,43.33 398.68,42.21 406.26,45.88 C412.75,49.02 466.51,103.37 467.46,107.75 C468.88,114.34 467.41,116.85 454.32,130.12 L 441.87 142.73 L 446.22 150.62 C452.68,162.30 459.39,178.03 463.43,190.92 C465.39,197.19 467.00,202.93 467.00,203.67 C467.00,204.73 470.62,205.00 484.75,205.00 C504.48,205.01 507.27,205.76 510.45,211.91 C512.77,216.39 512.77,295.61 510.45,300.09 C507.27,306.24 504.48,306.99 484.75,307.00 C469.67,307.00 467.00,307.22 467.00,308.49 C467.00,311.23 458.32,336.38 454.40,345.00 C452.28,349.67 448.59,357.05 446.20,361.38 L 441.87 369.27 L 454.32 381.88 C467.40,395.15 468.87,397.64 467.47,404.25 C466.48,408.98 408.98,466.48 404.25,467.47 C397.64,468.87 395.15,467.40 381.87,454.30 L 369.23 441.83 L 361.37 446.27 C357.04,448.71 349.45,452.52 344.50,454.74 C335.78,458.64 311.16,467.00 308.37,467.00 C307.26,467.00 307.00,470.34 307.00,484.55 C307.00,504.09 306.39,506.57 300.70,510.04 C297.66,511.89 295.40,511.99 256.00,511.99 C216.60,511.99 214.34,511.89 211.30,510.04 ZM 229.94 486.94 C231.90,488.90 233.11,489.00 256.00,489.00 C272.89,489.00 279.71,489.50 282.40,486.40 C284.58,483.90 284.05,479.05 283.95,469.69 C283.79,453.95 284.51,449.87 287.78,448.12 C288.80,447.57 295.09,445.75 301.73,444.07 C321.62,439.05 339.14,431.89 355.41,422.13 C364.19,416.86 368.44,414.15 372.37,414.57 C376.44,415.01 380.16,418.84 388.21,426.71 C398.16,436.44 400.27,438.06 402.21,437.48 C405.21,436.60 436.60,405.19 437.49,402.19 C438.08,400.21 436.57,398.24 427.15,388.69 C416.02,377.40 413.42,373.43 414.45,369.33 C414.76,368.10 417.43,363.13 420.37,358.30 C431.47,340.07 438.31,323.86 443.71,303.00 C445.63,295.58 447.64,288.69 448.16,287.70 C449.86,284.52 454.04,283.79 469.69,283.95 C479.05,284.05 483.90,284.58 486.40,282.40 C489.50,279.71 489.00,272.89 489.00,256.00 C489.00,239.11 489.50,232.29 486.40,229.60 C483.90,227.42 479.05,227.95 469.69,228.05 C454.04,228.21 449.86,227.48 448.16,224.30 C447.64,223.31 445.63,216.43 443.71,209.00 C438.31,188.15 430.56,169.85 419.95,152.92 C417.27,148.64 414.81,144.08 414.48,142.78 C413.42,138.56 415.95,134.68 427.15,123.31 C436.57,113.76 438.08,111.79 437.49,109.81 C436.60,106.81 405.21,75.40 402.21,74.52 C400.27,73.94 398.15,75.56 388.21,85.26 C381.44,91.87 375.34,96.97 373.76,97.36 C370.47,98.17 365.99,96.44 357.53,91.09 C343.68,82.35 323.41,73.62 307.09,69.37 C287.14,64.18 287.15,64.19 285.38,60.77 C284.03,58.17 283.77,54.80 283.92,42.35 C284.04,32.96 284.58,28.10 282.40,25.60 C279.71,22.50 272.88,23.00 256.00,23.00 C239.12,23.00 232.29,22.50 229.60,25.60 C227.42,28.10 227.96,32.96 228.08,42.35 C228.34,63.68 228.33,63.70 211.59,67.54 C193.34,71.72 171.46,80.78 154.20,91.31 C149.09,94.43 143.90,97.24 142.67,97.55 C138.57,98.58 134.60,95.97 123.31,84.85 C113.76,75.43 111.79,73.92 109.81,74.51 C106.81,75.40 75.40,106.79 74.52,109.79 C73.94,111.73 75.56,113.84 85.29,123.79 C93.16,131.84 96.99,135.55 97.43,139.63 C97.85,143.56 95.13,147.82 89.86,156.61 C80.33,172.50 71.52,194.19 67.54,211.59 C63.71,228.29 63.62,228.35 42.70,228.08 C30.59,227.92 27.38,228.18 25.41,229.46 L 23.00 231.05 L 23.00 280.95 L 25.41 282.54 C27.38,283.82 30.59,284.08 42.70,283.92 C54.84,283.76 58.16,284.03 60.76,285.38 C64.19,287.15 64.18,287.14 69.37,307.09 C73.79,324.06 81.28,341.30 91.63,358.30 C94.57,363.13 97.24,368.10 97.55,369.33 C98.58,373.43 95.97,377.40 84.85,388.69 C75.43,398.24 73.92,400.21 74.51,402.19 C75.40,405.19 106.79,436.60 109.79,437.48 C111.73,438.06 113.84,436.44 123.79,426.71 C131.91,418.77 136.47,415.05 138.67,414.57 C142.10,413.82 145.79,415.33 155.31,421.42 C167.94,429.49 188.02,438.08 204.50,442.47 C225.38,448.02 224.85,447.81 226.62,451.23 C227.97,453.83 228.23,457.20 228.08,469.65 C227.90,483.83 228.03,485.03 229.94,486.94 ZM 271.80 406.63 C270.12,407.66 240.93,407.70 240.30,406.67 C240.01,406.21 238.80,406.08 237.60,406.39 C234.87,407.07 212.70,402.02 204.00,398.73 C182.58,390.63 165.74,379.66 148.95,362.86 C133.35,347.27 123.26,332.41 115.52,313.65 C111.07,302.86 104.72,277.98 105.56,274.63 C105.89,273.30 105.79,271.99 105.33,271.70 C104.30,271.07 104.34,241.88 105.37,240.20 C105.79,239.53 105.87,238.15 105.54,237.14 C104.70,234.48 110.36,211.58 114.54,200.75 C121.93,181.60 132.78,165.30 148.79,149.30 C164.96,133.12 180.90,122.45 200.53,114.66 C211.30,110.39 234.19,104.76 237.46,105.58 C238.74,105.90 240.01,105.79 240.30,105.33 C240.80,104.51 265.20,104.60 276.00,105.45 C282.37,105.95 302.14,110.90 309.72,113.89 C329.85,121.83 347.32,133.35 362.98,149.04 C378.91,165.00 390.88,183.36 398.44,203.43 C401.56,211.72 406.08,230.03 406.60,236.50 C407.43,246.67 407.47,271.21 406.67,271.70 C406.21,271.99 406.11,273.30 406.44,274.63 C407.94,280.61 397.37,314.40 389.75,328.00 C372.71,358.38 344.52,383.75 313.65,396.48 C303.27,400.76 277.72,407.36 274.94,406.48 C273.88,406.15 272.47,406.21 271.80,406.63 ZM 199.17 370.48 C201.55,371.76 203.84,372.60 204.25,372.34 C204.66,372.09 205.00,362.34 205.00,350.69 L 205.00 329.49 L 195.75 321.06 C181.46,308.04 173.27,295.09 169.44,279.48 C166.78,268.64 166.65,244.68 169.19,233.91 C171.55,223.94 176.41,212.98 181.44,206.31 C191.46,193.02 207.36,179.44 219.00,174.25 C223.76,172.12 224.93,171.95 227.72,172.95 C230.09,173.80 231.48,173.81 233.01,172.99 C234.75,172.06 235.64,172.34 238.46,174.69 C240.31,176.24 242.19,178.18 242.64,179.00 C243.08,179.82 243.57,194.90 243.71,212.50 C243.86,230.10 243.98,244.84 243.99,245.25 C243.99,245.66 249.39,246.00 255.98,246.00 C267.59,246.00 267.98,245.93 268.48,243.75 C268.76,242.51 269.10,227.22 269.24,209.77 L 269.50 178.04 L 272.70 174.84 C275.62,171.92 276.14,171.74 278.56,172.84 C280.56,173.76 281.98,173.78 284.36,172.93 C290.82,170.62 304.11,178.42 318.85,193.16 C331.77,206.09 336.01,212.28 340.44,224.72 C346.16,240.77 347.17,257.75 343.55,277.00 C342.20,284.16 336.73,296.73 331.80,304.00 C326.99,311.09 315.26,323.67 310.18,327.18 C307.87,328.78 307.86,328.86 307.96,350.59 C308.02,362.58 308.23,372.57 308.44,372.77 C309.41,373.74 329.85,360.74 337.81,354.09 C347.76,345.78 357.83,334.36 363.65,324.77 C366.59,319.93 372.85,307.86 373.64,305.50 C373.83,304.95 375.53,300.00 377.43,294.50 C382.13,280.88 383.31,273.09 383.33,255.50 C383.36,234.83 380.91,223.00 372.92,205.23 C371.37,201.78 370.19,198.77 370.30,198.55 C370.69,197.77 360.61,181.89 356.00,176.04 C351.65,170.51 339.31,158.00 338.22,158.00 C337.64,158.00 337.02,157.66 336.83,157.24 C336.21,155.82 328.50,150.31 321.25,146.11 C310.27,139.75 295.53,133.87 284.50,131.45 C278.68,130.17 270.99,128.84 267.03,128.41 C264.56,128.15 261.54,127.27 260.31,126.47 C257.42,124.57 254.53,124.61 251.54,126.57 C250.23,127.43 247.20,128.31 244.83,128.53 C232.86,129.62 222.98,132.08 210.00,137.22 C196.93,142.39 195.00,143.28 195.00,144.15 C195.00,144.62 194.36,145.00 193.58,145.00 C190.98,145.00 177.02,155.10 168.55,163.13 C163.94,167.49 157.67,174.32 154.62,178.30 C144.75,191.19 133.70,215.90 130.38,232.52 C128.45,242.21 128.21,266.64 129.97,276.00 C130.64,279.58 131.28,283.05 131.40,283.72 C131.51,284.39 131.92,285.26 132.30,285.64 C132.69,286.02 133.00,287.34 133.00,288.57 C133.00,296.18 148.85,327.56 157.05,336.17 C159.22,338.46 161.00,340.71 161.00,341.19 C161.00,342.63 169.85,351.00 171.37,351.00 C172.15,351.00 173.02,351.61 173.30,352.35 C173.97,354.07 185.71,362.93 189.00,364.19 C190.37,364.71 192.25,365.82 193.17,366.65 C194.09,367.48 196.79,369.21 199.17,370.48 ZM 241.00 383.03 C244.20,385.15 275.64,383.19 279.83,380.61 C280.68,380.08 281.00,371.73 281.00,349.81 C281.00,325.68 280.90,318.74 284.21,314.44 C285.67,312.55 287.78,311.17 290.85,309.06 C298.79,303.61 307.25,294.60 311.44,287.15 C313.40,283.66 315.00,280.29 315.01,279.65 C315.01,279.02 315.60,277.38 316.32,276.00 C318.79,271.26 320.27,261.29 319.76,252.79 C319.25,244.35 316.66,234.63 312.43,225.31 C310.24,220.47 297.83,206.00 295.88,206.00 C295.40,206.00 295.00,217.41 295.00,231.35 C295.00,246.88 294.58,257.90 293.92,259.79 C293.33,261.49 291.34,264.03 289.49,265.44 C286.69,267.58 285.70,267.84 283.50,267.00 C280.13,265.72 231.98,265.68 228.63,266.95 C226.67,267.70 225.59,267.46 223.55,265.86 C218.24,261.68 218.00,260.22 218.00,232.05 C218.00,217.72 217.62,206.00 217.16,206.00 C216.70,206.00 213.31,209.12 209.63,212.94 C196.67,226.36 190.35,245.53 192.88,263.77 C195.37,281.73 206.30,298.90 222.18,309.79 C224.96,311.70 226.89,312.92 228.21,314.61 C231.31,318.56 231.14,325.07 231.04,348.91 C230.92,381.64 230.98,381.98 236.82,382.02 C238.29,382.02 240.18,382.48 241.00,383.03 Z" fill="rgba(25,118,210,1)"/>
<path d="M 229.94 486.94 C228.03,485.03 227.90,483.83 228.08,469.65 C228.23,457.20 227.97,453.83 226.62,451.23 C224.85,447.81 225.38,448.02 204.50,442.47 C188.02,438.08 167.94,429.49 155.31,421.42 C145.79,415.33 142.10,413.82 138.67,414.57 C136.47,415.05 131.91,418.77 123.79,426.71 C113.84,436.44 111.73,438.06 109.79,437.48 C106.79,436.60 75.40,405.19 74.51,402.19 C73.92,400.21 75.43,398.24 84.85,388.69 C95.97,377.40 98.58,373.43 97.55,369.33 C97.24,368.10 94.57,363.13 91.63,358.30 C81.28,341.30 73.79,324.06 69.37,307.09 C64.18,287.14 64.19,287.15 60.76,285.38 C58.16,284.03 54.84,283.76 42.70,283.92 C30.59,284.08 27.38,283.82 25.41,282.54 L 23.00 280.95 L 23.00 231.05 L 25.41 229.46 C27.38,228.18 30.59,227.92 42.70,228.08 C63.62,228.35 63.71,228.29 67.54,211.59 C71.52,194.19 80.33,172.50 89.86,156.61 C95.13,147.82 97.85,143.56 97.43,139.63 C96.99,135.55 93.16,131.84 85.29,123.79 C75.56,113.84 73.94,111.73 74.52,109.79 C75.40,106.79 106.81,75.40 109.81,74.51 C111.79,73.92 113.76,75.43 123.31,84.85 C134.60,95.97 138.57,98.58 142.67,97.55 C143.90,97.24 149.09,94.43 154.20,91.31 C171.46,80.78 193.34,71.72 211.59,67.54 C228.33,63.70 228.34,63.68 228.08,42.35 C227.96,32.96 227.42,28.10 229.60,25.60 C232.29,22.50 239.12,23.00 256.00,23.00 C272.88,23.00 279.71,22.50 282.40,25.60 C284.58,28.10 284.04,32.96 283.92,42.35 C283.77,54.80 284.03,58.17 285.38,60.77 C287.15,64.19 287.14,64.18 307.09,69.37 C323.41,73.62 343.68,82.35 357.53,91.09 C365.99,96.44 370.47,98.17 373.76,97.36 C375.34,96.97 381.44,91.87 388.21,85.26 C398.15,75.56 400.27,73.94 402.21,74.52 C405.21,75.40 436.60,106.81 437.49,109.81 C438.08,111.79 436.57,113.76 427.15,123.31 C415.95,134.68 413.42,138.56 414.48,142.78 C414.81,144.08 417.27,148.64 419.95,152.92 C430.56,169.85 438.31,188.15 443.71,209.00 C445.63,216.43 447.64,223.31 448.16,224.30 C449.86,227.48 454.04,228.21 469.69,228.05 C479.05,227.95 483.90,227.42 486.40,229.60 C489.50,232.29 489.00,239.11 489.00,256.00 C489.00,272.89 489.50,279.71 486.40,282.40 C483.90,284.58 479.05,284.05 469.69,283.95 C454.04,283.79 449.86,284.52 448.16,287.70 C447.64,288.69 445.63,295.58 443.71,303.00 C438.31,323.86 431.47,340.07 420.37,358.30 C417.43,363.13 414.76,368.10 414.45,369.33 C413.42,373.43 416.02,377.40 427.15,388.69 C436.57,398.24 438.08,400.21 437.49,402.19 C436.60,405.19 405.21,436.60 402.21,437.48 C400.27,438.06 398.16,436.44 388.21,426.71 C380.16,418.84 376.44,415.01 372.37,414.57 C368.44,414.15 364.19,416.86 355.41,422.13 C339.14,431.89 321.62,439.05 301.73,444.07 C295.09,445.75 288.80,447.57 287.78,448.12 C284.51,449.87 283.79,453.95 283.95,469.69 C284.05,479.05 284.58,483.90 282.40,486.40 C279.71,489.50 272.89,489.00 256.00,489.00 C233.11,489.00 231.90,488.90 229.94,486.94 ZM 231.61 484.44 C232.16,485.85 235.01,486.00 256.36,485.77 L 280.50 485.50 L 281.00 469.45 C281.68,447.60 282.15,446.94 300.04,442.57 C318.56,438.05 342.86,427.80 358.56,417.89 C371.85,409.49 374.70,410.15 389.49,424.99 C394.98,430.50 400.15,435.00 400.99,435.00 C402.91,435.00 435.00,402.99 435.00,401.08 C435.00,400.31 430.34,394.90 424.65,389.06 C410.04,374.08 409.53,371.79 417.89,358.56 C427.80,342.86 438.05,318.56 442.57,300.04 C446.94,282.15 447.60,281.68 469.45,281.00 L 485.50 280.50 L 485.77 256.57 C485.98,238.09 485.75,232.46 484.77,231.84 C484.07,231.39 476.62,231.02 468.21,231.02 L 452.92 231.00 L 449.07 227.25 C445.60,223.87 444.96,222.41 442.63,212.50 C438.25,193.90 428.01,169.47 417.89,153.44 C409.53,140.21 410.04,137.92 424.65,122.94 C430.34,117.10 435.00,111.68 435.00,110.90 C435.00,108.99 402.89,77.00 400.97,77.00 C400.14,77.00 394.97,81.53 389.48,87.07 C383.99,92.61 378.28,97.78 376.80,98.57 C372.05,101.08 367.84,100.35 360.91,95.80 C344.33,84.93 314.16,72.50 295.74,68.96 C289.89,67.84 285.07,64.75 282.74,60.64 C282.00,59.34 281.33,52.26 281.01,42.50 L 280.50 26.50 L 256.57 26.23 C238.09,26.02 232.46,26.25 231.84,27.23 C231.39,27.93 231.02,35.25 231.01,43.50 C230.99,64.10 229.58,66.22 213.79,69.54 C195.29,73.43 169.46,84.14 152.54,94.93 C139.85,103.02 137.48,102.32 121.02,85.61 C116.36,80.87 111.86,77.00 111.03,77.00 C109.05,77.00 77.00,109.02 77.00,111.01 C77.00,111.85 81.53,117.03 87.07,122.52 C92.61,128.01 97.78,133.72 98.57,135.20 C101.18,140.13 100.36,144.01 94.93,152.54 C84.14,169.46 73.43,195.29 69.54,213.79 C66.22,229.59 64.10,230.99 43.45,231.00 C33.08,231.00 28.03,231.37 27.20,232.20 C25.45,233.95 25.50,278.34 27.25,279.79 C27.94,280.35 35.25,280.98 43.50,281.17 C64.44,281.67 66.33,282.91 69.54,298.21 C73.43,316.71 84.14,342.54 94.93,359.46 C100.36,367.99 101.18,371.87 98.57,376.80 C97.78,378.28 92.61,383.99 87.07,389.48 C81.53,394.97 77.00,400.15 77.00,400.99 C77.00,402.91 109.01,435.00 110.92,435.00 C111.69,435.00 117.13,430.32 123.00,424.59 C137.84,410.12 140.23,409.64 154.25,418.37 C170.17,428.28 192.51,437.60 212.49,442.67 C230.63,447.26 231.00,447.77 231.00,468.37 C231.00,476.33 231.28,483.56 231.61,484.44 ZM 285.00 407.49 C275.01,409.43 247.95,410.27 236.82,408.99 C221.59,407.24 201.02,401.03 186.88,393.93 C174.62,387.77 159.54,376.62 148.48,365.54 C124.86,341.89 111.97,317.78 104.86,284.00 C103.07,275.48 102.66,270.20 102.65,256.00 C102.65,240.69 102.99,236.89 105.40,225.62 C110.23,203.01 116.68,187.71 129.07,169.48 C152.36,135.23 185.00,113.90 228.00,104.86 C242.90,101.73 269.06,101.71 283.59,104.82 C318.20,112.22 341.86,124.74 365.05,147.94 C386.88,169.78 400.71,195.18 407.17,225.31 C409.00,233.82 409.37,238.80 409.40,255.50 C409.44,277.60 408.30,285.78 402.80,302.96 C385.82,355.99 339.77,396.86 285.00,407.49 ZM 271.80 406.63 C272.47,406.21 273.88,406.15 274.94,406.48 C277.72,407.36 303.27,400.76 313.65,396.48 C344.52,383.75 372.71,358.38 389.75,328.00 C397.37,314.40 407.94,280.61 406.44,274.63 C406.11,273.30 406.21,271.99 406.67,271.70 C407.47,271.21 407.43,246.67 406.60,236.50 C406.08,230.03 401.56,211.72 398.44,203.43 C390.88,183.36 378.91,165.00 362.98,149.04 C347.32,133.35 329.85,121.83 309.72,113.89 C302.14,110.90 282.37,105.95 276.00,105.45 C265.20,104.60 240.80,104.51 240.30,105.33 C240.01,105.79 238.74,105.90 237.46,105.58 C234.19,104.76 211.30,110.39 200.53,114.66 C180.90,122.45 164.96,133.12 148.79,149.30 C132.78,165.30 121.93,181.60 114.54,200.75 C110.36,211.58 104.70,234.48 105.54,237.14 C105.87,238.15 105.79,239.53 105.37,240.20 C104.34,241.88 104.30,271.07 105.33,271.70 C105.79,271.99 105.89,273.30 105.56,274.63 C104.72,277.98 111.07,302.86 115.52,313.65 C123.26,332.41 133.35,347.27 148.95,362.86 C165.74,379.66 182.58,390.63 204.00,398.73 C212.70,402.02 234.87,407.07 237.60,406.39 C238.80,406.08 240.01,406.21 240.30,406.67 C240.93,407.70 270.12,407.66 271.80,406.63 ZM 288.00 266.51 L 284.61 269.00 L 256.55 269.00 C230.32,268.99 228.29,268.86 225.24,267.01 C225.16,266.95 225.07,266.90 224.99,266.85 C226.22,267.52 227.18,267.50 228.63,266.95 C231.98,265.68 280.13,265.72 283.50,267.00 C285.26,267.67 286.24,267.64 288.00,266.51 ZM 243.05 183.58 C243.88,188.92 243.98,198.01 243.94,215.40 C243.89,236.55 244.16,242.48 245.19,243.14 C246.83,244.18 266.07,244.24 267.70,243.21 C268.57,242.65 268.97,233.88 269.20,210.29 L 269.49 178.68 L 269.24 209.77 C269.10,227.22 268.76,242.51 268.48,243.75 C267.98,245.93 267.59,246.00 255.98,246.00 C249.39,246.00 243.99,245.66 243.99,245.25 C243.98,244.84 243.86,230.10 243.71,212.50 C243.61,200.39 243.35,189.48 243.05,183.58 ZM 272.66 129.21 C261.97,128.19 241.42,128.60 232.85,130.22 C236.74,129.45 240.65,128.91 244.83,128.53 C247.20,128.31 250.23,127.43 251.54,126.57 C254.53,124.61 257.42,124.57 260.31,126.47 C261.54,127.27 264.56,128.15 267.03,128.41 C268.49,128.57 270.46,128.85 272.66,129.21 ZM 276.86 172.25 C277.99,172.04 279.47,172.00 281.65,172.00 C283.61,172.00 285.54,172.18 287.48,172.55 C286.31,172.48 285.27,172.60 284.36,172.93 C281.98,173.78 280.56,173.76 278.56,172.84 C277.87,172.53 277.34,172.32 276.86,172.25 ZM 225.64 172.40 C227.07,172.15 228.45,172.02 229.78,172.03 C232.10,172.04 233.60,172.14 234.84,172.51 C234.25,172.45 233.70,172.63 233.01,172.99 C231.48,173.81 230.09,173.80 227.72,172.95 C226.94,172.67 226.28,172.48 225.64,172.40 ZM 195.29 191.10 C202.52,184.08 209.57,178.87 216.06,175.69 C209.60,179.12 202.18,184.68 195.29,191.10 ZM 169.19 233.91 C171.06,225.99 173.41,219.58 176.98,213.40 C173.70,219.53 170.84,226.96 169.19,233.91 ZM 219.51 260.90 C218.30,258.49 218.06,255.32 218.01,239.99 C218.07,252.13 218.33,257.65 219.51,260.90 ZM 300.34 177.77 C305.91,181.18 311.91,186.21 318.85,193.16 C312.22,186.53 305.89,181.31 300.34,177.77 ZM 271.62 175.91 L 272.44 175.06 C273.07,174.41 273.59,173.89 274.11,173.49 C273.70,173.85 273.24,174.29 272.70,174.84 L 271.62 175.91 ZM 217.89 219.09 C217.74,211.28 217.47,206.00 217.16,206.00 C217.47,206.00 217.74,211.28 217.89,219.09 Z" fill="rgba(27,120,212,1)"/>
<path d="M 231.61 484.44 C231.28,483.56 231.00,476.33 231.00,468.37 C231.00,447.77 230.63,447.26 212.49,442.67 C192.51,437.60 170.17,428.28 154.25,418.37 C140.23,409.64 137.84,410.12 123.00,424.59 C117.13,430.32 111.69,435.00 110.92,435.00 C109.01,435.00 77.00,402.91 77.00,400.99 C77.00,400.15 81.53,394.97 87.07,389.48 C92.61,383.99 97.78,378.28 98.57,376.80 C101.18,371.87 100.36,367.99 94.93,359.46 C84.14,342.54 73.43,316.71 69.54,298.21 C66.33,282.91 64.44,281.67 43.50,281.17 C35.25,280.98 27.94,280.35 27.25,279.79 C25.50,278.34 25.45,233.95 27.20,232.20 C28.03,231.37 33.08,231.00 43.45,231.00 C64.10,230.99 66.22,229.59 69.54,213.79 C73.43,195.29 84.14,169.46 94.93,152.54 C100.36,144.01 101.18,140.13 98.57,135.20 C97.78,133.72 92.61,128.01 87.07,122.52 C81.53,117.03 77.00,111.85 77.00,111.01 C77.00,109.02 109.05,77.00 111.03,77.00 C111.86,77.00 116.36,80.87 121.02,85.61 C137.48,102.32 139.85,103.02 152.54,94.93 C169.46,84.14 195.29,73.43 213.79,69.54 C229.58,66.22 230.99,64.10 231.01,43.50 C231.02,35.25 231.39,27.93 231.84,27.23 C232.46,26.25 238.09,26.02 256.57,26.23 L 280.50 26.50 L 281.01 42.50 C281.33,52.26 282.00,59.34 282.74,60.64 C285.07,64.75 289.89,67.84 295.74,68.96 C314.16,72.50 344.33,84.93 360.91,95.80 C367.84,100.35 372.05,101.08 376.80,98.57 C378.28,97.78 383.99,92.61 389.48,87.07 C394.97,81.53 400.14,77.00 400.97,77.00 C402.89,77.00 435.00,108.99 435.00,110.90 C435.00,111.68 430.34,117.10 424.65,122.94 C410.04,137.92 409.53,140.21 417.89,153.44 C428.01,169.47 438.25,193.90 442.63,212.50 C444.96,222.41 445.60,223.87 449.07,227.25 L 452.92 231.00 L 468.21 231.02 C476.62,231.02 484.07,231.39 484.77,231.84 C485.75,232.46 485.98,238.09 485.77,256.57 L 485.50 280.50 L 469.45 281.00 C447.60,281.68 446.94,282.15 442.57,300.04 C438.05,318.56 427.80,342.86 417.89,358.56 C409.53,371.79 410.04,374.08 424.65,389.06 C430.34,394.90 435.00,400.31 435.00,401.08 C435.00,402.99 402.91,435.00 400.99,435.00 C400.15,435.00 394.98,430.50 389.49,424.99 C374.70,410.15 371.85,409.49 358.56,417.89 C342.86,427.80 318.56,438.05 300.04,442.57 C282.15,446.94 281.68,447.60 281.00,469.45 L 280.50 485.50 L 256.36 485.77 C235.01,486.00 232.16,485.85 231.61,484.44 ZM 279.00 467.45 C279.68,445.74 280.50,444.55 297.75,440.45 C318.11,435.61 337.59,427.53 356.50,416.07 C366.99,409.71 372.15,408.48 377.32,411.11 C378.52,411.72 384.34,417.00 390.26,422.85 L 401.01 433.48 L 417.25 417.25 L 433.48 401.01 L 422.85 390.26 C417.00,384.34 411.72,378.52 411.11,377.32 C410.50,376.11 410.00,373.23 410.00,370.90 C410.00,367.44 411.35,364.38 417.41,354.08 C428.71,334.90 435.08,319.29 440.43,297.67 C444.71,280.39 445.75,279.68 467.45,279.00 L 483.50 278.50 L 483.50 233.50 L 467.45 233.00 C445.47,232.32 444.86,231.87 440.04,212.87 C434.53,191.15 427.53,174.41 416.07,155.50 C409.71,145.01 408.48,139.85 411.11,134.68 C411.72,133.48 417.00,127.66 422.85,121.74 L 433.48 110.99 L 401.05 78.56 L 389.76 89.70 C383.11,96.26 377.31,101.13 375.67,101.55 C370.32,102.89 365.28,101.29 354.85,94.96 C337.32,84.31 317.85,76.33 297.75,71.55 C280.50,67.45 279.68,66.26 279.00,44.55 L 278.50 28.50 L 233.50 28.50 L 233.00 44.55 C232.32,66.53 231.87,67.15 212.87,71.96 C191.80,77.29 173.96,84.71 156.17,95.54 C146.70,101.29 141.54,102.86 136.33,101.55 C134.69,101.13 128.89,96.26 122.24,89.70 L 110.95 78.56 L 78.52 110.99 L 89.15 121.74 C95.00,127.66 100.28,133.48 100.89,134.68 C101.50,135.89 102.00,138.79 102.00,141.14 C102.00,144.64 100.76,147.48 95.07,156.95 C84.22,175.03 76.20,194.57 71.54,214.25 C67.46,231.50 66.27,232.32 44.55,233.00 L 28.50 233.50 L 28.50 278.50 L 44.55 279.00 C66.27,279.68 67.46,280.50 71.54,297.75 C76.16,317.28 84.54,337.71 94.94,354.82 C101.29,365.28 102.89,370.32 101.55,375.67 C101.13,377.31 96.26,383.11 89.70,389.76 L 78.56 401.05 L 110.99 433.48 L 121.74 422.85 C127.66,417.00 133.48,411.72 134.68,411.11 C139.85,408.48 145.01,409.71 155.50,416.07 C174.18,427.39 191.58,434.65 213.00,440.07 C231.76,444.83 233.00,446.55 233.00,468.08 C233.00,476.10 233.31,482.98 233.69,483.35 C234.06,483.73 244.30,483.92 256.44,483.77 L 278.50 483.50 ZM 234.00 410.54 C210.08,407.03 190.89,400.08 172.50,388.24 C154.65,376.76 135.34,357.45 123.77,339.50 C95.43,295.55 92.21,233.95 115.78,186.50 C130.08,157.71 157.46,130.31 186.50,115.74 C228.76,94.54 286.65,95.12 328.00,117.16 C342.35,124.82 352.30,132.27 365.11,144.98 C387.61,167.30 399.92,188.26 407.00,216.35 C418.55,262.15 409.46,311.34 382.74,347.56 C376.15,356.49 356.49,376.15 347.56,382.74 C329.07,396.38 308.25,405.23 284.50,409.54 C272.14,411.78 246.02,412.30 234.00,410.54 ZM 285.00 407.49 C339.77,396.86 385.82,355.99 402.80,302.96 C408.30,285.78 409.44,277.60 409.40,255.50 C409.37,238.80 409.00,233.82 407.17,225.31 C400.71,195.18 386.88,169.78 365.05,147.94 C341.86,124.74 318.20,112.22 283.59,104.82 C269.06,101.71 242.90,101.73 228.00,104.86 C185.00,113.90 152.36,135.23 129.07,169.48 C116.68,187.71 110.23,203.01 105.40,225.62 C102.99,236.89 102.65,240.69 102.65,256.00 C102.66,270.20 103.07,275.48 104.86,284.00 C111.97,317.78 124.86,341.89 148.48,365.54 C159.54,376.62 174.62,387.77 186.88,393.93 C201.02,401.03 221.59,407.24 236.82,408.99 C247.95,410.27 275.01,409.43 285.00,407.49 Z" fill="rgba(64,163,243,1)"/>
<path d="M 192.88 263.77 C190.35,245.53 196.67,226.36 209.63,212.94 C213.31,209.12 216.70,206.00 217.16,206.00 C217.62,206.00 218.00,217.81 218.00,232.25 C218.01,256.68 218.15,258.73 219.99,261.76 C221.09,263.55 223.45,265.91 225.24,267.01 C226.89,268.01 228.24,268.51 233.25,268.76 C226.94,268.55 222.45,268.25 221.59,267.86 C220.11,267.18 218.50,264.99 217.43,262.17 C215.92,258.21 215.70,254.39 215.86,234.54 C215.98,220.34 215.66,210.92 215.04,210.00 C214.49,209.18 214.02,208.84 214.02,209.25 C214.01,209.66 214.11,210.16 214.25,210.35 C214.79,211.09 211.72,213.95 210.92,213.45 C209.59,212.63 204.13,220.67 199.72,229.96 C194.69,240.57 192.92,246.92 194.36,249.20 C195.12,250.41 195.03,251.58 194.03,253.43 C192.88,255.58 192.88,256.40 194.00,258.50 C195.09,260.54 195.10,261.44 194.06,263.38 C193.59,264.26 193.33,265.19 193.29,266.30 C193.13,265.46 193.00,264.61 192.88,263.77 ZM 266.00 243.59 L 266.00 213.22 C266.00,183.59 266.07,182.39 268.00,181.00 C268.59,180.58 269.12,180.05 269.49,179.57 L 269.20 210.29 C268.97,233.88 268.57,242.65 267.70,243.21 C267.46,243.36 266.86,243.48 266.00,243.59 ZM 226.84 172.22 C228.17,171.98 229.48,171.81 230.68,171.71 C237.39,171.17 238.02,171.29 240.36,173.64 C241.74,175.02 243.16,177.46 243.52,179.07 C243.87,180.68 244.57,182.00 245.08,182.00 C245.62,182.00 246.00,194.78 246.00,213.00 L 246.00 243.39 C245.61,243.31 245.33,243.23 245.19,243.14 C244.16,242.48 243.89,236.55 243.94,215.40 C244.02,182.92 243.58,179.40 238.92,175.17 C235.94,172.46 234.76,172.05 229.78,172.03 C228.82,172.02 227.84,172.09 226.84,172.22 ZM 199.17 370.48 C198.86,370.32 198.54,370.14 198.22,369.96 C201.70,371.43 202.00,368.52 202.00,348.49 L 202.00 328.23 L 199.47 326.57 C198.08,325.66 197.17,324.53 197.46,324.06 C197.75,323.59 195.39,320.80 192.22,317.85 C187.59,313.57 182.91,307.83 179.14,301.97 C183.39,308.52 188.86,314.78 195.75,321.06 L 205.00 329.49 L 205.00 350.69 C205.00,362.34 204.66,372.09 204.25,372.34 C203.84,372.60 201.55,371.76 199.17,370.48 ZM 318.33 242.83 C317.78,240.84 316.96,238.09 315.84,234.25 C315.15,231.91 314.09,230.00 313.49,230.00 C312.88,230.00 311.62,228.31 310.69,226.25 C308.28,220.93 302.21,212.96 300.79,213.25 C300.13,213.39 299.56,213.05 299.53,212.50 C299.50,211.95 299.08,210.89 298.61,210.14 C296.54,206.88 295.96,212.64 296.14,234.54 C296.30,254.39 296.08,258.21 294.57,262.17 C293.45,265.12 291.90,267.18 290.25,267.93 C289.74,268.16 287.95,268.36 285.25,268.52 L 288.71 265.98 C290.97,264.32 293.31,261.55 293.91,259.83 C294.59,257.89 295.00,247.08 295.00,231.35 C295.00,217.41 295.40,206.00 295.88,206.00 C297.83,206.00 310.24,220.47 312.43,225.31 C315.07,231.13 317.07,237.11 318.33,242.83 ZM 331.16 304.92 C326.87,311.10 322.32,316.30 312.75,326.01 L 310.00 328.80 L 310.00 369.18 L 314.08 368.49 C316.37,368.10 319.39,366.79 322.82,364.80 C315.66,369.46 308.98,373.31 308.44,372.77 C308.23,372.57 308.02,362.58 307.96,350.59 C307.86,328.86 307.87,328.78 310.18,327.18 C315.04,323.82 326.02,312.12 331.16,304.92 ZM 167.92 269.28 C167.68,267.97 166.94,266.68 166.00,266.00 C163.64,264.30 163.37,261.18 165.50,260.36 C166.52,259.97 167.00,258.38 167.00,255.39 C167.00,252.15 166.61,251.00 165.50,251.00 C163.34,251.00 163.65,247.36 165.95,245.75 C167.03,244.99 167.85,243.51 167.79,242.44 C167.69,240.86 168.24,237.75 169.14,234.13 C167.28,242.26 166.89,257.57 167.92,269.28 ZM 303.61 179.93 C305.19,180.97 306.92,182.15 308.85,183.49 C313.99,187.07 318.55,189.78 318.98,189.51 C319.95,188.91 322.33,191.65 322.63,193.70 C322.78,194.68 325.78,199.50 328.76,203.79 C326.13,200.64 322.92,197.24 318.85,193.16 C313.24,187.55 308.26,183.19 303.61,179.93 ZM 245.01 383.79 C245.61,383.57 246.00,383.14 246.00,382.50 C246.00,380.63 251.17,380.46 254.01,382.24 C255.59,383.23 256.41,383.23 257.99,382.24 C260.94,380.39 266.00,380.63 266.00,382.62 C266.00,382.81 266.01,382.97 266.05,383.12 C258.60,383.82 250.02,384.14 245.01,383.79 ZM 179.56 209.30 C182.62,204.44 185.94,199.89 187.42,198.83 C187.94,198.46 188.52,197.34 188.72,196.33 C189.48,192.40 189.66,191.94 190.86,190.74 C191.54,190.06 192.41,189.48 192.80,189.45 C194.33,189.34 198.53,187.69 199.00,187.01 C199.56,186.20 203.10,183.70 207.11,181.11 C202.47,184.43 197.66,188.61 192.78,193.60 C187.20,199.32 182.92,204.33 179.56,209.30 ZM 333.22 209.71 C335.52,212.47 337.66,216.93 340.44,224.72 C342.73,231.14 343.50,234.25 344.70,241.71 C344.98,243.48 345.84,245.45 346.61,246.09 C348.22,247.43 348.45,250.60 347.00,251.50 C346.45,251.84 346.00,253.86 346.00,256.00 C346.00,258.14 346.45,260.16 347.00,260.50 C348.34,261.33 348.28,264.74 346.91,265.20 C346.07,265.48 345.25,267.95 344.08,273.96 C347.05,255.96 345.85,239.92 340.44,224.72 C338.31,218.76 336.23,214.23 333.22,209.71 ZM 319.12 266.06 C319.18,264.71 318.95,263.81 318.38,263.59 C316.81,262.99 316.47,258.00 318.00,258.00 C318.55,258.00 319.00,257.10 319.00,256.00 C319.00,254.90 318.55,254.00 318.00,254.00 C316.46,254.00 316.81,249.01 318.39,248.40 C318.67,248.30 318.89,248.22 319.05,248.07 C319.13,247.99 319.19,247.90 319.23,247.78 C319.48,249.49 319.66,251.16 319.76,252.79 C320.02,257.13 319.76,261.85 319.12,266.06 ZM 383.33 254.94 C383.18,254.47 382.90,253.97 382.47,253.31 C380.49,250.29 380.61,246.32 382.73,245.13 C382.86,245.06 382.97,244.99 383.08,244.92 C383.25,248.05 383.33,251.36 383.33,254.94 ZM 383.11 266.04 C382.97,266.01 382.80,266.00 382.62,266.00 C380.56,266.00 380.48,262.22 382.47,258.39 C382.90,257.57 383.18,256.96 383.33,256.43 C383.31,260.00 383.25,263.15 383.11,266.04 ZM 129.07 267.47 C128.92,264.85 128.82,261.96 128.79,258.98 C129.08,259.61 129.49,260.00 130.02,260.00 C131.54,260.00 131.18,265.61 129.57,266.94 C129.37,267.11 129.20,267.28 129.07,267.47 ZM 128.80 253.75 C128.84,250.61 128.94,247.48 129.10,244.54 C129.18,244.65 129.27,244.75 129.37,244.85 C131.43,247.13 131.44,249.40 129.39,252.53 C129.15,252.89 128.95,253.31 128.80,253.75 ZM 269.60 128.97 C269.37,129.12 269.16,129.31 268.96,129.55 C267.41,131.42 265.25,131.39 263.36,129.50 C263.03,129.18 262.50,128.91 261.82,128.68 C264.60,128.73 267.25,128.82 269.60,128.97 ZM 249.89 128.78 C249.35,128.99 248.92,129.22 248.64,129.50 C246.75,131.39 244.59,131.42 243.04,129.55 C242.91,129.39 242.77,129.25 242.63,129.14 C244.92,128.98 247.38,128.86 249.89,128.78 ZM 333.42 357.49 C341.13,351.48 349.27,343.74 355.48,336.14 C358.80,332.06 362.93,325.84 366.46,319.83 C365.41,321.77 364.42,323.51 363.65,324.77 C357.83,334.36 347.76,345.78 337.81,354.09 C336.60,355.10 335.10,356.26 333.42,357.49 ZM 382.47 237.68 C382.07,235.88 381.69,233.78 381.47,232.00 C380.79,226.57 378.03,217.45 374.67,209.24 C378.95,219.39 381.33,227.81 382.47,237.68 ZM 129.70 237.07 C129.90,235.34 130.13,233.80 130.38,232.52 C130.90,229.94 131.60,227.17 132.45,224.27 C131.77,226.70 131.25,228.96 130.92,230.96 C130.59,233.00 130.14,235.24 129.70,237.07 ZM 269.30 269.00 C260.36,269.12 250.00,269.10 241.20,268.95 C245.10,268.99 250.10,269.00 256.55,269.00 L 269.30 269.00 ZM 282.41 131.00 C281.63,130.87 280.71,130.72 279.50,130.53 C277.45,130.20 275.14,129.71 273.60,129.30 C274.94,129.45 276.09,129.62 277.00,129.82 C278.88,130.23 280.89,130.67 282.41,131.00 ZM 129.50 272.78 C130.13,275.57 130.91,280.02 131.32,283.27 C131.10,282.06 130.54,279.07 129.97,276.00 C129.79,275.07 129.64,273.98 129.50,272.78 ZM 204.95 293.03 C201.35,288.07 198.43,282.70 196.31,277.10 C198.74,283.04 201.59,288.31 204.95,293.03 ZM 236.96 129.63 C235.59,129.92 233.98,130.21 232.50,130.41 C231.50,130.55 230.49,130.71 229.45,130.92 C230.39,130.72 231.40,130.51 232.50,130.29 C233.73,130.04 235.24,129.82 236.96,129.63 ZM 377.43 294.50 C379.33,289.00 381.33,281.58 381.88,278.00 C381.99,277.28 382.11,276.54 382.23,275.81 C381.36,281.93 379.87,287.43 377.43,294.50 ZM 139.69 204.81 C144.17,194.65 149.55,184.92 154.62,178.30 C149.66,184.77 144.17,194.75 139.69,204.81 ZM 315.84 276.99 C316.01,276.55 316.20,276.10 316.40,275.65 C317.05,274.19 317.59,272.74 318.02,271.38 C317.53,273.20 316.96,274.77 316.32,276.00 C316.15,276.32 315.99,276.65 315.84,276.99 ZM 226.11 131.68 C222.69,132.55 218.84,133.82 214.06,135.63 C219.22,133.64 222.31,132.61 226.11,131.68 ZM 295.69 134.64 C294.78,134.34 293.88,134.06 293.00,133.80 C290.38,133.02 288.62,132.50 287.30,132.12 C289.96,132.80 292.79,133.65 295.69,134.64 ZM 168.64 275.37 C168.24,273.30 168.00,271.49 168.00,270.18 C168.18,272.03 168.39,273.77 168.64,275.37 ZM 274.29 173.34 C275.56,172.33 276.63,172.02 279.09,172.04 C276.72,172.13 275.51,172.43 274.29,173.34 ZM 216.78 175.34 C217.43,175.00 218.02,174.71 218.50,174.50 C219.38,174.11 220.51,173.72 221.78,173.36 C220.16,173.88 218.49,174.54 216.78,175.34 ZM 343.21 278.57 C342.49,281.74 340.96,286.00 339.07,290.33 C340.90,286.11 342.40,281.92 343.21,278.57 ZM 176.98 298.43 C175.87,296.50 174.88,294.59 174.04,292.74 C173.94,292.52 173.84,292.30 173.74,292.07 C174.71,294.23 175.79,296.35 176.98,298.43 ZM 241.00 383.03 C240.18,382.48 238.29,382.02 236.82,382.02 C238.29,382.02 240.18,382.47 241.00,383.00 C241.10,383.07 241.20,383.13 241.31,383.19 C241.19,383.14 241.08,383.08 241.00,383.03 ZM 291.31 173.52 C292.56,173.90 293.81,174.39 295.14,175.01 C293.85,174.42 292.58,173.93 291.31,173.52 ZM 271.88 175.65 C272.15,175.35 272.44,175.05 272.74,174.75 C272.64,174.85 272.54,174.96 272.44,175.06 L 271.88 175.65 ZM 278.74 381.08 C279.23,380.91 279.61,380.74 279.83,380.61 C279.57,380.77 279.20,380.93 278.74,381.08 ZM 200.13 141.19 C199.00,141.67 198.11,142.06 197.42,142.38 C198.12,142.06 199.01,141.67 200.13,141.19 Z" fill="rgba(141,200,247,1)"/>
<path d="M 241.00 383.00 C240.18,382.47 238.29,382.02 236.82,382.02 C230.98,381.98 230.92,381.64 231.04,348.91 C231.18,314.87 231.47,316.16 222.18,309.79 C210.32,301.66 202.11,291.27 196.30,277.08 C193.12,269.29 192.60,266.12 194.06,263.38 C195.10,261.44 195.09,260.54 194.00,258.50 C192.88,256.40 192.88,255.58 194.03,253.43 C195.03,251.58 195.12,250.41 194.36,249.20 C192.92,246.92 194.69,240.57 199.72,229.96 C204.13,220.67 209.59,212.63 210.92,213.45 C211.72,213.95 214.79,211.09 214.25,210.35 C214.11,210.16 214.01,209.66 214.02,209.25 C214.02,208.84 214.49,209.18 215.04,210.00 C215.66,210.92 215.98,220.34 215.86,234.54 C215.70,254.39 215.92,258.21 217.43,262.17 C218.50,264.99 220.11,267.18 221.59,267.86 C225.05,269.44 286.80,269.50 290.25,267.93 C291.90,267.18 293.45,265.12 294.57,262.17 C296.08,258.21 296.30,254.39 296.14,234.54 C295.96,212.64 296.54,206.88 298.61,210.14 C299.08,210.89 299.50,211.95 299.53,212.50 C299.56,213.05 300.13,213.39 300.79,213.25 C302.21,212.96 308.28,220.93 310.69,226.25 C311.62,228.31 312.88,230.00 313.49,230.00 C314.09,230.00 315.15,231.91 315.84,234.25 C319.90,248.07 319.85,247.84 318.39,248.40 C316.81,249.01 316.46,254.00 318.00,254.00 C318.55,254.00 319.00,254.90 319.00,256.00 C319.00,257.10 318.55,258.00 318.00,258.00 C316.47,258.00 316.81,262.99 318.38,263.59 C319.92,264.18 319.00,269.80 316.40,275.65 C315.63,277.38 315.00,279.25 315.00,279.81 C315.00,280.36 313.40,283.66 311.44,287.15 C307.25,294.60 298.79,303.61 290.85,309.06 C280.79,315.97 281.00,315.08 281.00,349.81 C281.00,371.73 280.68,380.08 279.83,380.61 C279.18,381.01 277.04,381.69 275.08,382.12 C273.11,382.56 270.26,383.21 268.75,383.57 C266.61,384.09 266.00,383.87 266.00,382.62 C266.00,380.63 260.94,380.39 257.99,382.24 C256.41,383.23 255.59,383.23 254.01,382.24 C251.17,380.46 246.00,380.63 246.00,382.50 C246.00,384.19 243.27,384.46 241.00,383.00 ZM 197.26 369.50 C196.02,368.85 194.22,367.61 193.26,366.73 C192.29,365.86 190.37,364.71 189.00,364.19 C185.71,362.93 173.97,354.07 173.30,352.35 C173.02,351.61 172.15,351.00 171.37,351.00 C169.85,351.00 161.00,342.63 161.00,341.19 C161.00,340.71 159.22,338.46 157.05,336.17 C148.85,327.56 133.00,296.18 133.00,288.57 C133.00,287.34 132.66,286.00 132.25,285.58 C131.84,285.17 131.47,284.53 131.43,284.17 C130.96,280.00 129.68,272.95 129.00,270.81 C128.38,268.87 128.54,267.79 129.57,266.94 C131.18,265.61 131.54,260.00 130.02,260.00 C128.14,260.00 127.73,255.06 129.39,252.53 C131.44,249.40 131.43,247.13 129.37,244.85 C128.06,243.41 127.95,242.50 128.80,240.28 C129.38,238.75 130.34,234.56 130.92,230.96 C133.18,217.04 144.92,190.97 154.62,178.30 C157.67,174.32 163.94,167.49 168.55,163.13 C177.02,155.10 190.98,145.00 193.58,145.00 C194.36,145.00 195.00,144.62 195.00,144.15 C195.00,143.29 196.81,142.45 210.00,137.21 C220.26,133.13 226.59,131.22 232.50,130.41 C235.25,130.03 238.48,129.36 239.67,128.92 C241.16,128.36 242.22,128.57 243.04,129.55 C244.59,131.42 246.75,131.39 248.64,129.50 C250.70,127.45 261.30,127.45 263.36,129.50 C265.25,131.39 267.41,131.42 268.96,129.55 C269.78,128.57 270.84,128.36 272.33,128.92 C273.52,129.36 276.75,130.09 279.50,130.53 C285.18,131.44 284.39,131.24 293.00,133.80 C301.92,136.45 312.60,141.10 321.25,146.11 C328.50,150.31 336.21,155.82 336.83,157.24 C337.02,157.66 337.64,158.00 338.22,158.00 C339.31,158.00 351.65,170.51 356.00,176.04 C360.61,181.89 370.69,197.77 370.30,198.55 C370.19,198.77 371.38,201.78 372.95,205.23 C377.06,214.30 380.67,225.67 381.47,232.00 C381.85,235.02 382.68,239.00 383.31,240.83 C384.30,243.70 384.22,244.30 382.73,245.13 C380.61,246.32 380.49,250.29 382.47,253.31 C383.76,255.29 383.76,255.90 382.47,258.39 C380.48,262.22 380.56,266.00 382.62,266.00 C383.88,266.00 384.08,266.61 383.56,268.75 C383.19,270.26 382.43,274.42 381.88,278.00 C381.33,281.58 379.33,289.00 377.43,294.50 C375.53,300.00 373.83,304.95 373.64,305.50 C371.34,312.35 361.91,328.26 355.48,336.14 C343.11,351.30 323.05,366.97 314.08,368.49 L 310.00 369.18 L 310.00 348.99 L 310.00 328.80 L 312.75 326.01 C322.79,315.82 327.30,310.60 331.79,304.00 C336.62,296.90 342.25,284.07 343.42,277.50 C344.96,268.89 345.92,265.53 346.91,265.20 C348.28,264.74 348.34,261.33 347.00,260.50 C346.45,260.16 346.00,258.14 346.00,256.00 C346.00,253.86 346.45,251.84 347.00,251.50 C348.45,250.60 348.22,247.43 346.61,246.09 C345.84,245.45 344.98,243.48 344.70,241.71 C343.50,234.25 342.73,231.14 340.44,224.72 C337.59,216.74 335.41,212.25 333.04,209.50 C329.78,205.71 322.85,195.20 322.63,193.70 C322.33,191.65 319.95,188.91 318.98,189.51 C318.55,189.78 313.99,187.07 308.85,183.49 C295.99,174.54 291.92,172.76 283.17,172.22 C276.22,171.80 275.70,171.92 272.92,174.57 C271.32,176.11 270.00,177.87 270.00,178.47 C270.00,179.07 269.10,180.21 268.00,181.00 C266.07,182.39 266.00,183.59 266.00,213.22 L 266.00 244.00 L 256.00 244.00 L 246.00 244.00 L 246.00 213.00 C246.00,194.78 245.62,182.00 245.08,182.00 C244.57,182.00 243.87,180.68 243.52,179.07 C243.16,177.46 241.74,175.02 240.36,173.64 C238.02,171.29 237.39,171.17 230.68,171.71 C226.65,172.04 221.30,173.26 218.50,174.50 C213.89,176.53 200.16,185.34 199.00,187.01 C198.53,187.69 194.33,189.34 192.80,189.45 C192.41,189.48 191.54,190.06 190.86,190.74 C189.66,191.94 189.48,192.40 188.72,196.33 C188.52,197.34 187.94,198.46 187.42,198.83 C184.96,200.59 177.41,211.99 174.44,218.43 C171.18,225.48 167.55,238.58 167.79,242.44 C167.85,243.51 167.03,244.99 165.95,245.75 C163.65,247.36 163.34,251.00 165.50,251.00 C166.61,251.00 167.00,252.15 167.00,255.39 C167.00,258.38 166.52,259.97 165.50,260.36 C163.37,261.18 163.64,264.30 166.00,266.00 C167.16,266.83 168.00,268.59 168.00,270.16 C168.00,274.84 170.99,286.02 174.04,292.74 C177.93,301.33 185.14,311.29 192.22,317.85 C195.39,320.80 197.75,323.59 197.46,324.06 C197.17,324.53 198.08,325.66 199.47,326.57 L 202.00 328.23 L 202.00 348.49 C202.00,370.24 201.65,371.80 197.26,369.50 Z" fill="rgba(143,201,248,1)"/>
</g>
</svg>